<svg width="75" height="75" viewBox="0 0 75 75" fill="none" xmlns="http://www.w3.org/2000/svg">
<path fill-rule="evenodd" clip-rule="evenodd" d="M37.5 75C58.2107 75 75 58.2107 75 37.5C75 16.7893 58.2107 0 37.5 0C16.7893 0 0 16.7893 0 37.5C0 58.2107 16.7893 75 37.5 75Z" fill="#9EE1EC"/>
<path fill-rule="evenodd" clip-rule="evenodd" d="M39.3333 35.6667H48.6667C49.403 35.6667 50 36.2636 50 37C50 37.7364 49.403 38.3333 48.6667 38.3333H39.3333V47.6667C39.3333 48.403 38.7364 49 38 49C37.2636 49 36.6667 48.403 36.6667 47.6667V38.3333H27.3333C26.597 38.3333 26 37.7364 26 37C26 36.2636 26.597 35.6667 27.3333 35.6667H36.6667V26.3333C36.6667 25.597 37.2636 25 38 25C38.7364 25 39.3333 25.597 39.3333 26.3333V35.6667Z" fill="white"/>
</svg>
