<svg width="24" height="24" viewBox="0 0 24 24" fill="none" xmlns="http://www.w3.org/2000/svg">
<path fill-rule="evenodd" clip-rule="evenodd" d="M19.4996 6.5C19.4996 7.88071 18.3803 9 16.9996 9C15.6189 9 14.4996 7.88071 14.4996 6.5C14.4996 5.11929 15.6189 4 16.9996 4C18.3803 4 19.4996 5.11929 19.4996 6.5ZM12.8771 14.5393L12.6064 14.319C13.4554 12.9355 15.1074 12 16.9996 12C19.7596 12 21.9996 13.99 21.9996 16.44C20.0296 16.89 18.3096 17 16.9996 17C16.1997 17 15.4516 16.9574 14.7619 16.889L14.2083 16.0299C13.8529 15.4784 13.4093 14.9725 12.8771 14.5393Z" fill="white" fill-opacity="0.3"/>
<path fill-rule="evenodd" clip-rule="evenodd" d="M11 8C11 9.65685 9.65685 11 8 11C6.34315 11 5 9.65685 5 8C5 6.34315 6.34315 5 8 5C9.65685 5 11 6.34315 11 8ZM8 20C9.57 20 11.64 19.87 14 19.33C14 16.39 11.31 14 8 14C4.69 14 2 16.39 2 19.33C3.52 19.68 5.57 20 8 20Z" fill="white" fill-opacity="0.6"/>
</svg>
