<svg width="200" height="150" viewBox="0 0 200 150" fill="none" xmlns="http://www.w3.org/2000/svg">
<path opacity="0.06" d="M184.433 70.0523C171.46 81.7203 156.958 80.0675 156.353 85.7808C155.74 91.5713 170.664 93.0098 178.587 106.136C183.842 114.843 186.227 129.041 180.466 136.824C171.371 149.111 147.628 136.088 102.491 134.006C52.984 131.723 41.7615 145.423 24.9623 133.962C-5.25043 113.349 -0.842587 47.2765 14.0334 41.9993C23.544 38.6253 31.4052 62.2033 60.216 67.9313C61.4862 68.1838 90.8085 73.6548 103.064 58.5258C109.214 50.935 105.106 45.5145 112.66 34.0025C120.681 21.779 132.611 16.7635 136.117 15.3433C140.687 13.4924 151.255 9.37205 163.917 12.0778C179.631 15.4355 197.5 29.0848 197.5 45.6608C197.5 58.4248 187.037 67.71 184.433 70.0523Z" fill="#161616"/>
<path fill-rule="evenodd" clip-rule="evenodd" d="M97.965 13.8623H24.1052C23.8218 13.8623 23.5901 14.0916 23.5901 14.3774V111.992C23.5901 112.275 23.8218 112.507 24.1052 112.507H97.965C98.2508 112.507 98.48 112.275 98.48 111.992V14.3774C98.48 14.0916 98.2508 13.8623 97.965 13.8623ZM149.7 89.9593C150.21 89.2475 150.514 88.3778 150.514 87.4368C150.514 85.0428 148.567 83.095 146.172 83.095C143.778 83.095 141.831 85.0428 141.831 87.4368C141.831 88.3778 142.135 89.2473 142.645 89.9593C140.575 91.084 138.951 93.353 138.951 95.5933C138.951 96.5218 139.706 97.277 140.634 97.277H151.71C152.639 97.277 153.394 96.5218 153.394 95.5933C153.394 93.353 151.77 91.084 149.7 89.9593ZM146.172 85.6385C147.164 85.6385 147.971 86.4453 147.971 87.4368C147.971 88.4183 147.18 89.2175 146.202 89.2335H146.143C145.165 89.2175 144.374 88.4183 144.374 87.4368C144.374 86.4453 145.181 85.6385 146.172 85.6385ZM141.646 94.733C142.153 93.2325 143.845 91.7773 145.31 91.7773H146.143C146.145 91.7773 146.148 91.7773 146.15 91.7775C146.152 91.7778 146.155 91.7778 146.157 91.778C146.159 91.7783 146.162 91.7783 146.164 91.7785C146.167 91.7788 146.17 91.7788 146.172 91.7788C146.182 91.7788 146.192 91.7773 146.202 91.7773H147.034C148.5 91.7773 150.192 93.2325 150.699 94.733H141.646ZM104.264 40.829C104.264 41.7855 103.489 42.561 102.532 42.561C101.576 42.561 100.8 41.7855 100.8 40.829C100.8 39.8725 101.576 39.097 102.532 39.097C103.489 39.097 104.264 39.8725 104.264 40.829ZM102.532 48.324C103.489 48.324 104.264 47.5485 104.264 46.5918C104.264 45.6353 103.489 44.8598 102.532 44.8598C101.576 44.8598 100.8 45.6353 100.8 46.5918C100.8 47.5485 101.576 48.324 102.532 48.324ZM14.6497 110.776C14.6497 111.733 13.8742 112.508 12.9176 112.508C11.961 112.508 11.1855 111.733 11.1855 110.776C11.1855 109.82 11.961 109.044 12.9176 109.044C13.8742 109.044 14.6497 109.82 14.6497 110.776ZM18.681 112.508C19.6376 112.508 20.4131 111.733 20.4131 110.776C20.4131 109.82 19.6376 109.044 18.681 109.044C17.7244 109.044 16.9489 109.82 16.9489 110.776C16.9489 111.733 17.7244 112.508 18.681 112.508ZM169.587 24.3978C171.483 21.2273 174.949 19.105 178.913 19.105C184.912 19.105 189.774 23.9677 189.774 29.9663C189.774 32.9463 188.574 35.6453 186.63 37.6105C185.283 38.973 183.575 39.9828 181.661 40.4798C180.783 40.709 179.864 40.83 178.913 40.83C178.553 40.83 178.195 40.812 177.844 40.7785V53.1465C177.844 53.512 177.548 53.8083 177.182 53.8083H150.651C150.286 53.8083 149.99 53.512 149.99 53.1465V34.342C149.99 33.9765 150.286 33.6803 150.651 33.6803H168.704C168.281 32.5213 168.052 31.2695 168.052 29.9663C168.052 29.263 168.119 28.5755 168.248 27.9083C168.49 26.6463 168.948 25.464 169.587 24.3978ZM177.845 55.2608H166.424V57.1615H177.845V55.2608ZM149.941 55.2608H156.271V57.1615H149.941V55.2608Z" fill="#C1B9E4"/>
<path opacity="0.09" d="M91.3301 82.1423V83.8193C91.3301 84.038 91.5063 84.2143 91.7226 84.2143H98.4781V81.7498H91.7226C91.5063 81.7498 91.3301 81.926 91.3301 82.1423Z" fill="black"/>
<path opacity="0.09" d="M87.9269 75.4095C87.0974 75.4095 86.4199 76.085 86.4199 76.9163V89.05C86.4199 89.8793 87.0974 90.555 87.9269 90.555H98.4789V88.6333H89.0127V77.333H98.4789V75.4095H87.9269Z" fill="black"/>
<g opacity="0.31">
<path opacity="0.19" d="M98.4798 75.5797V111.993C98.4798 112.277 98.2506 112.508 97.9648 112.508H24.105C23.8216 112.508 23.5898 112.277 23.5898 111.993V102.018C23.7315 102.028 23.8783 102.033 24.0225 102.033C25.9851 102.033 27.7623 101.238 29.0476 99.9525C30.3223 98.675 31.1156 96.916 31.1261 94.9712V81.8205C31.1261 79.8577 31.9218 78.0807 33.2071 76.7955C34.4948 75.5102 36.2693 74.7145 38.2321 74.7145C42.1571 74.7145 45.3381 77.8952 45.3381 81.8205V87.2007C45.3381 91.126 48.5188 94.3067 52.4441 94.3067C54.4066 94.3067 56.1838 93.511 57.4691 92.2257C58.7541 90.9405 59.5501 89.1635 59.5501 87.2007V71.4047C59.5501 69.4422 60.3458 67.665 61.6336 66.38C62.9188 65.0947 64.6961 64.2987 66.6586 64.2987C70.5813 64.2987 73.7646 67.4797 73.7646 71.4047V82.2505C73.7646 86.1757 76.9456 89.3565 80.8706 89.3565C82.8333 89.3565 84.6103 88.5607 85.8956 87.2755C87.1808 85.9902 87.9766 84.2132 87.9766 82.2505V81.823C87.9766 77.8977 91.1576 74.717 95.0826 74.717C96.3138 74.717 97.4703 75.0312 98.4798 75.5797Z" fill="#1A1A1A"/>
</g>
<path opacity="0.19" d="M121.526 22.3525H41.6113V32.9037H121.526V22.3525Z" fill="#1A1A1A"/>
<path fill-rule="evenodd" clip-rule="evenodd" d="M135.484 79.9887C135.751 81.297 136.534 82.6158 137.938 84.1328C138.435 84.6685 138.528 85.454 138.167 86.0902C137.866 86.6208 137.312 86.935 136.72 86.935C136.606 86.935 136.491 86.9222 136.372 86.899L136.369 86.8965L128.936 85.3023H122.814V129.296C122.814 130.3 121.995 131.119 120.991 131.119H42.1626C41.1581 131.119 40.3391 130.3 40.3391 129.296V119.223H11.6395C10.9364 119.223 10.3672 118.653 10.3672 117.95C10.3672 117.247 10.9364 116.678 11.6395 116.678H40.3391V58.7635H36.2671L32.7181 59.5257L28.7026 60.3885C28.3241 60.4685 28.0691 60.0153 28.3319 59.7318C29.7431 58.2098 30.8044 56.6077 31.1264 54.8432V40.7755C31.1264 40.3505 31.4741 40.003 31.8989 40.003H40.3391V21.7163C40.3391 20.7093 41.1581 19.8928 42.1626 19.8928H120.991C121.995 19.8928 122.814 20.7093 122.814 21.7163V67.8603H133.438C134.567 67.8603 135.484 68.7773 135.484 69.9053V79.9887ZM42.8814 128.574H120.27V85.3023H82.6686C81.5431 85.3023 80.6236 84.3828 80.6236 83.2572V69.9053C80.6236 68.7773 81.5431 67.8603 82.6686 67.8603H120.27V22.4349H42.8814V40.003H82.6686C83.0964 40.003 83.4414 40.3505 83.4414 40.7755V57.9907C83.4414 58.4182 83.0964 58.7635 82.6686 58.7635H42.8814V116.678H110.428C111.129 116.678 111.698 117.247 111.698 117.95C111.698 118.653 111.129 119.223 110.428 119.223H42.8814V128.574ZM83.1684 82.7575H129.207L134.484 83.8907C133.673 82.6957 133.178 81.534 132.962 80.3365L132.941 80.223V70.405H83.1684V82.7575ZM83.4411 104.658V95.172C83.4411 94.7445 83.0961 94.3992 82.6686 94.3992H49.9279C49.5029 94.3992 49.1551 94.7445 49.1551 95.172V101.51C48.8331 103.275 47.7721 104.877 46.3606 106.399C46.0979 106.682 46.3529 107.135 46.7316 107.056L47.7591 106.834L54.2961 105.43H82.6686C83.0961 105.43 83.4411 105.085 83.4411 104.658ZM130.133 74.9435H86.1291C85.8449 74.9435 85.6141 75.1742 85.6141 75.4587V77.6578C85.6141 77.9423 85.8449 78.173 86.1291 78.173H130.133C130.417 78.173 130.648 77.9423 130.648 77.6578V75.4587C130.648 75.1742 130.417 74.9435 130.133 74.9435ZM27.8206 68.234C27.8206 69.1623 27.0654 69.9175 26.1369 69.9175H15.061C14.1326 69.9175 13.3773 69.1623 13.3773 68.234C13.3773 65.9935 15.001 63.7245 17.0718 62.6C16.5612 61.888 16.2571 61.0185 16.2571 60.0775C16.2571 57.6833 18.2048 55.7355 20.5989 55.7355C22.993 55.7355 24.9408 57.6833 24.9408 60.0775C24.9408 61.0185 24.6367 61.888 24.1261 62.6C26.1969 63.7245 27.8206 65.9935 27.8206 68.234ZM22.3972 60.0775C22.3972 59.0858 21.5904 58.279 20.5989 58.279C19.6074 58.279 18.8007 59.0858 18.8007 60.0775C18.8007 61.059 19.5915 61.858 20.5692 61.8742H20.6287C21.6064 61.858 22.3972 61.059 22.3972 60.0775ZM20.5692 64.4177H19.737C18.2711 64.4177 16.5794 65.8732 16.0722 67.3737H25.1256C24.6185 65.8732 22.9268 64.4177 21.4609 64.4177H20.6287C20.6238 64.4177 20.619 64.4183 20.6142 64.4185C20.6111 64.4188 20.6079 64.419 20.6048 64.4193C20.6029 64.4193 20.6009 64.4193 20.5989 64.4193C20.5965 64.4193 20.5941 64.4193 20.5918 64.4193C20.5891 64.419 20.5864 64.4188 20.5837 64.4185L20.5783 64.4183C20.5753 64.418 20.5722 64.4177 20.5692 64.4177ZM134.946 121.03H130.371C130.066 121.03 129.819 121.277 129.819 121.582V126.157C129.819 126.461 130.066 126.708 130.371 126.708H134.946C135.25 126.708 135.497 126.461 135.497 126.157V121.582C135.497 121.277 135.25 121.03 134.946 121.03ZM177.844 40.7782C178.194 40.8118 178.552 40.8297 178.913 40.8297C179.863 40.8297 180.782 40.7087 181.661 40.4795V61.6123C181.661 61.9315 181.578 62.2327 181.431 62.493C181.122 63.0442 180.533 63.415 179.858 63.415H147.975C146.978 63.415 146.172 62.609 146.172 61.6123V29.711C146.172 28.7142 146.978 27.9082 147.975 27.9082H168.247C168.118 28.5752 168.051 29.263 168.051 29.966C168.051 31.2692 168.281 32.521 168.703 33.68H150.651C150.285 33.68 149.989 33.9762 149.989 34.342V53.1462C149.989 53.512 150.285 53.8083 150.651 53.8083H177.182C177.548 53.8083 177.844 53.512 177.844 53.1462V40.7782ZM149.94 57.1615H156.271V55.2607H149.94V57.1615ZM166.424 57.1615H177.844V55.2607H166.424V57.1615ZM172.367 35.299H185.457C186.1 35.299 186.623 34.776 186.623 34.1332V26.3165C186.623 25.6735 186.1 25.1505 185.457 25.1505H172.367C171.724 25.1505 171.201 25.6735 171.201 26.3165V34.1332C171.201 34.776 171.724 35.299 172.367 35.299ZM183.244 26.81L178.941 29.2542L175.172 26.81H183.244ZM172.861 27.2895L178.884 31.1952L184.964 27.742V33.6395H172.861V27.2895ZM184.994 84.2575L184.994 84.2578C184.036 84.7943 183.454 85.1675 183.454 85.828C183.454 86.488 184.036 86.8615 184.994 87.3978C185.962 87.9403 187.06 88.555 187.06 89.8668C187.06 91.1783 185.962 91.7933 184.994 92.3355C184.036 92.872 183.454 93.2453 183.454 93.9055C183.454 94.5658 184.036 94.9393 184.994 95.4758L184.994 95.476C185.963 96.0185 187.06 96.6332 187.06 97.9447C187.06 99.2567 185.962 99.8715 184.994 100.414C184.036 100.951 183.454 101.324 183.454 101.985C183.454 102.645 184.036 103.019 184.994 103.555C185.962 104.098 187.06 104.713 187.06 106.024C187.06 107.336 185.962 107.951 184.994 108.493C184.036 109.03 183.454 109.403 183.454 110.063C183.454 110.724 184.036 111.098 184.994 111.634C185.962 112.177 187.06 112.792 187.06 114.104C187.06 115.415 185.962 116.03 184.994 116.573C184.036 117.109 183.454 117.483 183.454 118.144C183.454 118.804 184.036 119.177 184.994 119.714C185.962 120.256 187.06 120.871 187.06 122.183C187.06 123.494 185.963 124.11 184.994 124.652L184.994 124.652C184.036 125.189 183.454 125.563 183.454 126.223C183.454 126.884 184.036 127.257 184.994 127.794L184.994 127.795C185.963 128.337 187.06 128.952 187.06 130.264C187.06 131.576 185.962 132.191 184.994 132.734C184.036 133.271 183.454 133.645 183.454 134.305C183.454 134.966 184.036 135.34 184.994 135.876C185.962 136.419 187.06 137.034 187.06 138.346C187.06 138.631 186.829 138.862 186.545 138.862C186.261 138.862 186.03 138.631 186.03 138.346C186.03 137.685 185.448 137.312 184.49 136.775C183.522 136.233 182.424 135.617 182.424 134.305C182.424 132.993 183.522 132.378 184.49 131.835C185.448 131.299 186.03 130.925 186.03 130.264C186.03 129.604 185.448 129.23 184.49 128.693L184.49 128.693C183.522 128.15 182.424 127.535 182.424 126.223C182.424 124.911 183.521 124.297 184.49 123.754L184.49 123.754C185.448 123.217 186.03 122.843 186.03 122.183C186.03 121.522 185.448 121.149 184.49 120.613L184.49 120.612C183.521 120.07 182.424 119.455 182.424 118.144C182.424 116.832 183.522 116.217 184.49 115.674L184.49 115.674C185.448 115.138 186.03 114.764 186.03 114.104C186.03 113.443 185.448 113.069 184.49 112.533C183.522 111.99 182.424 111.375 182.424 110.063C182.424 108.752 183.522 108.137 184.49 107.594C185.448 107.058 186.03 106.684 186.03 106.024C186.03 105.364 185.448 104.99 184.49 104.454C183.522 103.911 182.424 103.296 182.424 101.985C182.424 100.673 183.522 100.058 184.49 99.5153C185.448 98.9788 186.03 98.6052 186.03 97.9447C186.03 97.2845 185.448 96.9112 184.49 96.3747C183.522 95.8322 182.424 95.2173 182.424 93.9055C182.424 92.594 183.522 91.9793 184.49 91.4368L184.49 91.4365C185.448 90.9003 186.03 90.5268 186.03 89.8668C186.03 89.2065 185.448 88.833 184.49 88.2968C183.522 87.7542 182.424 87.1395 182.424 85.828C182.424 84.5163 183.522 83.9013 184.49 83.3587C185.448 82.8223 186.03 82.449 186.03 81.7887C186.03 81.1285 185.448 80.755 184.49 80.2188C183.522 79.6763 182.424 79.0615 182.424 77.7497C182.424 76.438 183.522 75.823 184.49 75.2805C185.448 74.744 186.03 74.3705 186.03 73.7103C186.03 73.4258 186.261 73.195 186.545 73.195C186.829 73.195 187.06 73.4258 187.06 73.7103C187.06 75.022 185.962 75.637 184.994 76.1795C184.036 76.716 183.454 77.0895 183.454 77.7497C183.454 78.41 184.036 78.7832 184.994 79.3197C185.962 79.862 187.06 80.477 187.06 81.7887C187.06 83.1003 185.963 83.715 184.994 84.2575Z" fill="#3913B8"/>
<path d="M121.543 63.8215C118.467 63.8215 115.965 61.3195 115.965 58.2438V22.3184C115.965 19.2428 118.467 16.7407 121.543 16.7407C124.618 16.7407 127.12 19.2428 127.12 22.3184V58.2438C127.12 61.3195 124.618 63.8215 121.543 63.8215ZM121.543 17.0342C118.629 17.0342 116.258 19.4047 116.258 22.3184V58.2438C116.258 61.1575 118.629 63.528 121.543 63.528C124.456 63.528 126.827 61.1575 126.827 58.2438V22.3184C126.827 19.4047 124.456 17.0342 121.543 17.0342Z" fill="#CCCCCC"/>
<path d="M75.1497 136.1H39.2242C36.1487 136.1 33.6465 133.598 33.6465 130.522C33.6465 127.447 36.1487 124.945 39.2242 124.945H75.1497C78.2252 124.945 80.7275 127.447 80.7275 130.522C80.7275 133.598 78.2252 136.1 75.1497 136.1ZM39.2242 125.238C36.3105 125.238 33.9402 127.609 33.9402 130.522C33.9402 133.436 36.3105 135.807 39.2242 135.807H75.1497C78.0635 135.807 80.434 133.436 80.434 130.522C80.434 127.609 78.0635 125.238 75.1497 125.238H39.2242Z" fill="#CCCCCC"/>
<path opacity="0.09" d="M126.307 127.373H11.5604C11.17 127.373 10.8535 127.056 10.8535 126.666V121.073C10.8535 120.683 11.17 120.366 11.5604 120.366H126.307C126.697 120.366 127.013 120.683 127.013 121.073V126.666C127.013 127.056 126.697 127.373 126.307 127.373Z" fill="black"/>
<path opacity="0.19" d="M82.589 105.431V105.794C82.589 106.201 82.2567 106.53 81.85 106.53H54.7832L47.5637 108.081C47.2032 108.158 46.9585 107.725 47.211 107.455C47.4015 107.249 47.5845 107.043 47.7595 106.834L54.2965 105.431H82.589Z" fill="#1A1A1A"/>
<path opacity="0.19" d="M81.5765 58.7638V62.1068C81.5765 62.5035 81.2545 62.828 80.8555 62.828H37.591L30.5365 64.3423C30.1835 64.417 29.944 63.9948 30.1913 63.7293C31.412 62.4133 32.3495 61.0328 32.718 59.526L36.267 58.7638H81.5765Z" fill="#1A1A1A"/>
<path opacity="0.19" d="M98.478 22.3108V29.337H64.6813C64.3748 29.337 64.125 29.0897 64.125 28.7832V22.3108H98.478Z" fill="#1A1A1A"/>
<path d="M100.312 27.3572H62.8415C62.572 27.3572 62.3535 27.1387 62.3535 26.8692V22.3525H100.8V26.8692C100.8 27.1387 100.581 27.3572 100.312 27.3572Z" fill="#B5CDFB"/>
<path opacity="0.09" d="M110.809 124.969C111.416 124.969 111.908 124.477 111.908 123.87C111.908 123.262 111.416 122.77 110.809 122.77C110.201 122.77 109.709 123.262 109.709 123.87C109.709 124.477 110.201 124.969 110.809 124.969Z" fill="black"/>
<path opacity="0.09" d="M113.742 124.969C114.35 124.969 114.842 124.477 114.842 123.87C114.842 123.262 114.35 122.77 113.742 122.77C113.135 122.77 112.643 123.262 112.643 123.87C112.643 124.477 113.135 124.969 113.742 124.969Z" fill="black"/>
<path opacity="0.09" d="M116.674 124.969C117.281 124.969 117.774 124.477 117.774 123.87C117.774 123.262 117.281 122.77 116.674 122.77C116.067 122.77 115.574 123.262 115.574 123.87C115.574 124.477 116.067 124.969 116.674 124.969Z" fill="black"/>
<path opacity="0.19" d="M42.9106 37.2085H40.3281V40.0045H42.9106V37.2085Z" fill="#1A1A1A"/>
<path opacity="0.19" d="M42.9009 58.7638H40.3184V61.5598H42.9009V58.7638Z" fill="#1A1A1A"/>
<path opacity="0.19" d="M122.794 63.7738H120.256V67.8516H122.794V63.7738Z" fill="#1A1A1A"/>
<path opacity="0.19" d="M122.829 85.2665H120.246V90.555H122.829V85.2665Z" fill="#1A1A1A"/>
<path opacity="0.29" d="M79.1887 45.2195H35.1852C34.9007 45.2195 34.6699 45.45 34.6699 45.7345V47.9337C34.6699 48.2182 34.9007 48.4487 35.1852 48.4487H79.1887C79.4732 48.4487 79.7037 48.2182 79.7037 47.9337V45.7345C79.7037 45.45 79.4732 45.2195 79.1887 45.2195Z" fill="#F2F2F2"/>
<path opacity="0.29" d="M79.1884 49.949H35.1849C34.9004 49.949 34.6699 50.1795 34.6699 50.464V52.6632C34.6699 52.9477 34.9004 53.1782 35.1849 53.1782H79.1884C79.4729 53.1782 79.7037 52.9477 79.7037 52.6632V50.464C79.7037 50.1795 79.4729 49.949 79.1884 49.949Z" fill="#F2F2F2"/>
<path d="M47.6228 27.3575C48.3355 27.3575 48.9135 26.7795 48.9135 26.0667C48.9135 25.354 48.3355 24.7761 47.6228 24.7761C46.91 24.7761 46.332 25.354 46.332 26.0667C46.332 26.7795 46.91 27.3575 47.6228 27.3575Z" fill="#E74C3C"/>
<path d="M51.605 27.3575C52.318 27.3575 52.8957 26.7795 52.8957 26.0667C52.8957 25.354 52.318 24.7761 51.605 24.7761C50.8922 24.7761 50.3145 25.354 50.3145 26.0667C50.3145 26.7795 50.8922 27.3575 51.605 27.3575Z" fill="#5FC47A"/>
<path d="M153.415 24.3979H169.587C168.948 25.4642 168.49 26.6465 168.248 27.9085H148.449C149.201 25.8583 151.141 24.3979 153.415 24.3979Z" fill="#B5CDFB"/>
<path d="M186.629 37.6102V58.8485C186.629 60.8627 185.027 62.493 183.049 62.493H181.432C181.579 62.2327 181.661 61.9315 181.661 61.6122V40.4795C183.575 39.9825 185.282 38.9727 186.629 37.6102Z" fill="#B5CDFB"/>
<path opacity="0.19" d="M177.843 40.9588V41.7238H149.988V34.592C149.988 34.0898 150.285 33.6803 150.65 33.6803H168.702C169.308 35.3465 170.31 36.8226 171.595 37.9943C171.551 38.0458 171.554 38.1256 171.6 38.1721C171.623 38.1953 173.962 40.4745 177.828 40.9563C177.833 40.9563 177.838 40.9588 177.843 40.9588Z" fill="#1A1A1A"/>
<path d="M164.73 100.551H142.188V101.856H164.73V100.551Z" fill="#3913B8"/>
<path d="M164.73 103.247H142.188V104.553H164.73V103.247Z" fill="#3913B8"/>
<path d="M164.73 108.993H142.188V110.298H164.73V108.993Z" fill="#3913B8"/>
<path d="M164.73 111.69H142.188V112.995H164.73V111.69Z" fill="#3913B8"/>
<path d="M164.73 117.435H142.188V118.74H164.73V117.435Z" fill="#3913B8"/>
<path d="M164.73 120.132H142.188V121.437H164.73V120.132Z" fill="#3913B8"/>
<path d="M172.436 97.1155H157.013C156.824 97.1155 156.67 96.9618 156.67 96.7723V91.447C156.67 91.2575 156.824 91.1038 157.013 91.1038H172.436C172.625 91.1038 172.779 91.2575 172.779 91.447V96.7723C172.779 96.9618 172.625 97.1155 172.436 97.1155Z" fill="#B5CDFB"/>
<path d="M172.436 105.558H167.111C166.921 105.558 166.768 105.404 166.768 105.214V99.8893C166.768 99.6995 166.921 99.546 167.111 99.546H172.436C172.626 99.546 172.779 99.6995 172.779 99.8893V105.214C172.779 105.404 172.626 105.558 172.436 105.558Z" fill="#B5CDFB"/>
<path d="M172.436 114H167.111C166.921 114 166.768 113.846 166.768 113.657V108.331C166.768 108.142 166.921 107.988 167.111 107.988H172.436C172.626 107.988 172.779 108.142 172.779 108.331V113.657C172.779 113.846 172.626 114 172.436 114Z" fill="#B5CDFB"/>
<path d="M172.436 122.442H167.111C166.921 122.442 166.768 122.288 166.768 122.098V116.773C166.768 116.584 166.921 116.43 167.111 116.43H172.436C172.626 116.43 172.779 116.584 172.779 116.773V122.098C172.779 122.288 172.626 122.442 172.436 122.442Z" fill="#B5CDFB"/>
<path d="M190.352 139.48C190.28 139.48 190.223 139.422 190.223 139.351C190.223 138.416 189.379 137.943 188.486 137.443C187.567 136.928 186.617 136.395 186.617 135.31C186.617 134.224 187.567 133.692 188.486 133.177C189.379 132.676 190.223 132.203 190.223 131.268C190.223 130.334 189.379 129.861 188.486 129.361C187.567 128.846 186.617 128.313 186.617 127.228C186.617 126.142 187.567 125.61 188.486 125.095C189.379 124.594 190.223 124.122 190.223 123.187C190.223 122.253 189.379 121.78 188.486 121.28C187.567 120.765 186.617 120.233 186.617 119.148C186.617 118.062 187.567 117.53 188.486 117.015C189.379 116.515 190.223 116.042 190.223 115.108C190.223 114.173 189.379 113.701 188.486 113.2C187.567 112.685 186.617 112.154 186.617 111.068C186.617 109.983 187.567 109.45 188.486 108.936C189.379 108.436 190.223 107.963 190.223 107.028C190.223 106.094 189.379 105.621 188.486 105.121C187.567 104.607 186.617 104.074 186.617 102.989C186.617 101.904 187.567 101.372 188.486 100.857C189.379 100.356 190.223 99.8837 190.223 98.9492C190.223 98.0152 189.379 97.5424 188.486 97.0422C187.567 96.5277 186.617 95.9954 186.617 94.9099C186.617 93.8247 187.567 93.2927 188.486 92.7782C189.379 92.2779 190.223 91.8054 190.223 90.8712C190.223 89.9369 189.379 89.4644 188.486 88.9642C187.567 88.4497 186.617 87.9177 186.617 86.8324C186.617 85.7472 187.567 85.2149 188.486 84.7004C189.379 84.1999 190.223 83.7274 190.223 82.7932C190.223 81.8589 189.379 81.3862 188.486 80.8859C187.567 80.3714 186.617 79.8394 186.617 78.7544C186.617 77.6689 187.567 77.1367 188.486 76.6222C189.379 76.1217 190.223 75.6489 190.223 74.7147C190.223 74.6434 190.28 74.5859 190.352 74.5859C190.423 74.5859 190.48 74.6434 190.48 74.7147C190.48 75.8002 189.53 76.3322 188.612 76.8467C187.718 77.3472 186.875 77.8199 186.875 78.7544C186.875 79.6884 187.718 80.1612 188.612 80.6614C189.53 81.1759 190.48 81.7079 190.48 82.7932C190.48 83.8784 189.53 84.4104 188.612 84.9249C187.718 85.4254 186.875 85.8979 186.875 86.8324C186.875 87.7667 187.718 88.2392 188.612 88.7394C189.53 89.2539 190.48 89.7859 190.48 90.8712C190.48 91.9564 189.53 92.4884 188.612 93.0029C187.718 93.5032 186.875 93.9759 186.875 94.9099C186.875 95.8444 187.718 96.3169 188.612 96.8174C189.53 97.3319 190.48 97.8642 190.48 98.9492C190.48 100.035 189.53 100.567 188.612 101.082C187.718 101.582 186.875 102.055 186.875 102.989C186.875 103.923 187.718 104.396 188.612 104.896C189.53 105.411 190.48 105.943 190.48 107.028C190.48 108.114 189.53 108.646 188.612 109.161C187.718 109.661 186.875 110.134 186.875 111.068C186.875 112.002 187.718 112.475 188.612 112.975C189.53 113.49 190.48 114.022 190.48 115.108C190.48 116.193 189.53 116.725 188.612 117.24C187.718 117.741 186.875 118.213 186.875 119.148C186.875 120.082 187.718 120.555 188.612 121.055C189.53 121.57 190.48 122.102 190.48 123.187C190.48 124.273 189.53 124.805 188.612 125.32C187.718 125.82 186.875 126.293 186.875 127.228C186.875 128.163 187.718 128.635 188.612 129.136C189.53 129.651 190.48 130.183 190.48 131.268C190.48 132.354 189.53 132.887 188.612 133.401C187.718 133.902 186.875 134.375 186.875 135.31C186.875 136.244 187.718 136.717 188.612 137.218C189.53 137.733 190.48 138.265 190.48 139.351C190.48 139.422 190.423 139.48 190.352 139.48Z" fill="#344F73"/>
<path d="M129.855 11.4298C130.812 11.4298 131.587 10.6543 131.587 9.69768C131.587 8.74108 130.812 7.96558 129.855 7.96558C128.899 7.96558 128.123 8.74108 128.123 9.69768C128.123 10.6543 128.899 11.4298 129.855 11.4298Z" fill="#B5CDFB"/>
<path d="M124.091 11.4298C125.048 11.4298 125.823 10.6543 125.823 9.69768C125.823 8.74108 125.048 7.96558 124.091 7.96558C123.135 7.96558 122.359 8.74108 122.359 9.69768C122.359 10.6543 123.135 11.4298 124.091 11.4298Z" fill="#B5CDFB"/>
<path d="M37.6891 14.1208H16.9158C16.7735 14.1208 16.6582 14.0055 16.6582 13.8633C16.6582 13.721 16.7735 13.6057 16.9158 13.6057H37.6891C37.8314 13.6057 37.9466 13.721 37.9466 13.8633C37.9466 14.0055 37.8314 14.1208 37.6891 14.1208Z" fill="#344F73"/>
<path d="M100.476 113.252H79.7028C79.5606 113.252 79.4453 113.137 79.4453 112.995C79.4453 112.852 79.5606 112.737 79.7028 112.737H100.476C100.618 112.737 100.734 112.852 100.734 112.995C100.734 113.137 100.618 113.252 100.476 113.252Z" fill="#344F73"/>
<path opacity="0.29" d="M81.5103 99.8733C81.1548 99.8733 80.8666 99.585 80.8666 99.2293V96.906H77.5051C77.1496 96.906 76.8613 96.6178 76.8613 96.262C76.8613 95.9065 77.1496 95.6183 77.5051 95.6183H80.9953C81.6343 95.6183 82.1543 96.138 82.1543 96.7773V99.2293C82.1543 99.585 81.8661 99.8733 81.5103 99.8733ZM80.9953 96.906H80.9978H80.9953Z" fill="#F2F2F2"/>
<path d="M186.352 25.9217C186.004 25.9217 185.68 25.7032 185.561 25.3557C184.501 22.2387 180.705 21.8644 180.667 21.861C180.208 21.82 179.868 21.4145 179.91 20.9552C179.951 20.4958 180.355 20.1566 180.815 20.198C181.016 20.2158 185.735 20.6838 187.142 24.8179C187.291 25.2545 187.057 25.7287 186.621 25.8772C186.532 25.9075 186.441 25.9217 186.352 25.9217Z" fill="white"/>
<path d="M134.4 60.1198C134.175 60.1198 133.992 59.9373 133.992 59.712V35.3295C133.992 35.1043 134.175 34.9218 134.4 34.9218C134.625 34.9218 134.808 35.1043 134.808 35.3295V59.712C134.808 59.9373 134.625 60.1198 134.4 60.1198Z" fill="#B5CDFB"/>
<path d="M138.744 60.1198C138.518 60.1198 138.336 59.9373 138.336 59.712V35.3295C138.336 35.1043 138.518 34.9218 138.744 34.9218C138.969 34.9218 139.152 35.1043 139.152 35.3295V59.712C139.152 59.9373 138.969 60.1198 138.744 60.1198Z" fill="#B5CDFB"/>
<path d="M136.572 62.572C136.347 62.572 136.164 62.3895 136.164 62.1642V30.055C136.164 29.8297 136.347 29.6472 136.572 29.6472C136.797 29.6472 136.98 29.8297 136.98 30.055V62.1642C136.98 62.3895 136.797 62.572 136.572 62.572Z" fill="#B5CDFB"/>
<path d="M183.013 40.1655C182.158 40.562 180.888 41.0385 179.124 41.0385C178.722 41.0385 178.297 41.0127 177.844 40.9587C177.839 40.9587 177.834 40.9562 177.829 40.9562C173.963 40.4745 171.624 38.1952 171.601 38.172C171.555 38.1255 171.552 38.0457 171.596 37.9942C171.598 37.9917 171.598 37.9917 171.601 37.989C171.652 37.9402 171.732 37.9402 171.784 37.989C171.804 38.0122 174.084 40.2297 177.86 40.7012C180.25 41 181.883 40.405 182.905 39.931C182.97 39.9027 183.044 39.931 183.075 39.9955C183.106 40.0597 183.078 40.1345 183.013 40.1655Z" fill="#344F73"/>
<path d="M61.0327 101.614C61.9707 101.614 62.7312 100.853 62.7312 99.9151C62.7312 98.9768 61.9707 98.2163 61.0327 98.2163C60.0945 98.2163 59.334 98.9768 59.334 99.9151C59.334 100.853 60.0945 101.614 61.0327 101.614Z" fill="#FFCD33"/>
<path d="M65.564 101.614C66.5022 101.614 67.2627 100.853 67.2627 99.9151C67.2627 98.9768 66.5022 98.2163 65.564 98.2163C64.626 98.2163 63.8652 98.9768 63.8652 99.9151C63.8652 100.853 64.626 101.614 65.564 101.614Z" fill="#B5CDFB"/>
<path d="M70.0933 101.614C71.0313 101.614 71.7918 100.853 71.7918 99.9151C71.7918 98.9768 71.0313 98.2163 70.0933 98.2163C69.155 98.2163 68.3945 98.9768 68.3945 99.9151C68.3945 100.853 69.155 101.614 70.0933 101.614Z" fill="#FFCD33"/>
</svg>
