<svg width="200" height="150" viewBox="0 0 200 150" fill="none" xmlns="http://www.w3.org/2000/svg">
<path d="M40.5787 101.556H30.2014C28.5217 101.556 27.1602 100.195 27.1602 98.5148V73.7478C27.1602 72.068 28.5217 70.7065 30.2014 70.7065H40.5787C42.2584 70.7065 43.6199 72.068 43.6199 73.7478V98.5148C43.6199 100.195 42.2584 101.556 40.5787 101.556Z" fill="#4382FF"/>
<path d="M152.18 94.8863H122.958C120.882 94.8863 119.199 93.203 119.199 91.127V20.4643C119.199 18.3881 120.882 16.7051 122.958 16.7051H152.18C154.256 16.7051 155.939 18.3881 155.939 20.4643V91.127C155.939 93.203 154.256 94.8863 152.18 94.8863Z" fill="#B3CAF8"/>
<path d="M186.5 23.9703H176.107V98.3243H186.5V23.9703Z" fill="#B3CAF8"/>
<path d="M185.616 106.264H11.625V118.515H185.616V106.264Z" fill="#4382FF"/>
<path d="M109.21 140.866H17.7508C14.3676 140.866 11.625 138.123 11.625 134.74C11.625 131.357 14.3676 128.614 17.7508 128.614H109.21C112.593 128.614 115.336 131.357 115.336 134.74C115.336 138.123 112.593 140.866 109.21 140.866Z" fill="#8FE4FF"/>
<path d="M182.271 140.866H128.395C125.012 140.866 122.27 138.123 122.27 134.74C122.27 131.357 125.012 128.614 128.395 128.614H182.271C185.655 128.614 188.397 131.357 188.397 134.74C188.397 138.123 185.655 140.866 182.271 140.866Z" fill="#8FE4FF"/>
<path d="M111.341 102.407H88.3351L81.3613 95.278L80.3613 79.338H101.617V94.253L111.341 102.407Z" fill="#8FE4FF"/>
<path fill-rule="evenodd" clip-rule="evenodd" d="M16.5723 106.28C16.5723 106.027 16.7768 105.823 17.0291 105.823H181.308C181.56 105.823 181.764 106.027 181.764 106.28C181.764 106.532 181.56 106.737 181.308 106.737H17.0291C16.7768 106.737 16.5723 106.532 16.5723 106.28Z" fill="#8FE4FF"/>
<path d="M144.873 87.385H56.173C53.4918 87.385 50.8883 85.2115 50.3583 82.5302L40.8625 34.5062C40.3323 31.825 42.0763 29.6512 44.7575 29.6512H133.458C136.139 29.6512 138.742 31.825 139.272 34.5062L148.768 82.5302C149.298 85.2115 147.554 87.385 144.873 87.385Z" fill="#4382FF"/>
<path d="M133.656 100.798H60.877V102.781H133.656V100.798Z" fill="#4382FF"/>
<path d="M162.189 67.6157H186.857" stroke="#005B9D" stroke-width="0.456815" stroke-miterlimit="10"/>
<path d="M162.189 72.9518H186.857" stroke="#005B9D" stroke-width="0.456815" stroke-miterlimit="10"/>
<path d="M175.135 78.2875H186.857" stroke="#005B9D" stroke-width="0.456815" stroke-miterlimit="10"/>
<path d="M175.135 83.6238H186.857" stroke="#005B9D" stroke-width="0.456815" stroke-miterlimit="10"/>
<path d="M162.189 88.9595H186.857" stroke="#005B9D" stroke-width="0.456815" stroke-miterlimit="10"/>
<path d="M40.769 74.6138H39.8555" stroke="#F1F1F2" stroke-width="0.228408" stroke-miterlimit="10"/>
<path d="M38.0142 74.6138H25.6865C21.7747 74.6138 18.6035 71.4425 18.6035 67.5308C18.6035 63.6188 21.7747 60.4475 25.6865 60.4475H69.954C70.3732 60.4475 70.7837 60.484 71.183 60.5538" stroke="#FFE458" stroke-width="0.228408" stroke-miterlimit="10" stroke-dasharray="1.84 1.84"/>
<path d="M72.0762 60.771C72.3687 60.863 72.6529 60.9732 72.9279 61.1005" stroke="#F1F1F2" stroke-width="0.228408" stroke-miterlimit="10"/>
<path d="M72.9273 61.1005C75.3533 62.2245 77.0358 64.681 77.0358 67.5305C77.0358 71.4425 73.8646 74.6137 69.9528 74.6137H40.7676" stroke="#FFE458" stroke-width="0.228408" stroke-miterlimit="10"/>
<path d="M112.487 125.449H14.4742C12.9006 125.449 11.625 124.173 11.625 122.599V114.052C11.625 112.478 12.9006 111.203 14.4742 111.203H112.487C114.06 111.203 115.336 112.478 115.336 114.052V122.599C115.336 124.173 114.06 125.449 112.487 125.449Z" stroke="#78D2EE" stroke-width="0.5" stroke-miterlimit="10"/>
<path d="M184.667 125.449H125.119C123.545 125.449 122.27 124.173 122.27 122.599V114.052C122.27 112.478 123.545 111.203 125.119 111.203H184.667C186.241 111.203 187.516 112.478 187.516 114.052V122.599C187.516 124.173 186.241 125.449 184.667 125.449Z" stroke="#78D2EE" stroke-width="0.5" stroke-miterlimit="10"/>
<path d="M17.5135 114.241H15.709V122.694H17.5135V114.241Z" fill="#8FE4FF"/>
<path d="M129.203 114.241H127.398V122.694H129.203V114.241Z" fill="#8FE4FF"/>
<path d="M20.3009 52.762C24.0893 52.762 27.1605 49.691 27.1605 45.9025C27.1605 42.114 24.0893 39.043 20.3009 39.043C16.5125 39.043 13.4414 42.114 13.4414 45.9025C13.4414 49.691 16.5125 52.762 20.3009 52.762Z" fill="#4382FF"/>
<path d="M66.4585 39.785H29.7168V42.0528H66.4585V39.785Z" fill="#8FE4FF"/>
<path d="M67.73 44.7688H30.9883V47.0365H67.73V44.7688Z" fill="#8FE4FF"/>
<path d="M81.0864 49.7524H31.8359V52.0202H81.0864V49.7524Z" fill="#8FE4FF"/>
<path d="M34.2617 35.1622H150.56" stroke="#FFE458" stroke-width="0.228408" stroke-miterlimit="10"/>
<path d="M22.2148 23.9703H99.3042" stroke="#78D2EE" stroke-width="0.25" stroke-miterlimit="10"/>
<path d="M29.1855 21.0592H106.275" stroke="#78D2EE" stroke-width="0.25" stroke-miterlimit="10"/>
<path d="M168.638 52.532L169.75 57.8699C170.313 60.5672 168.59 62.754 165.903 62.754H101.412C98.7245 62.754 96.09 60.5672 95.5277 57.8699L94.415 52.532C93.8527 49.8345 95.5755 47.6479 98.263 47.6479H162.753C165.441 47.6479 168.075 49.8345 168.638 52.532Z" fill="#8FE4FF"/>
<path d="M104.154 57.424C102.511 57.424 100.901 56.0875 100.557 54.4387C100.213 52.7902 101.266 51.4537 102.909 51.4537C104.552 51.4537 106.162 52.7902 106.505 54.4387C106.849 56.0875 105.796 57.424 104.154 57.424Z" fill="#4382FF"/>
<path d="M111.145 52.2157H161.88" stroke="#005B9D" stroke-width="0.456815" stroke-miterlimit="10" stroke-linecap="round"/>
<path d="M112.07 56.6617H162.806" stroke="#005B9D" stroke-width="0.456815" stroke-miterlimit="10" stroke-linecap="round"/>
<path d="M36.9146 99.843H33.7653C33.5078 99.843 33.2988 99.634 33.2988 99.3765C33.2988 99.1188 33.5078 98.91 33.7653 98.91H36.9146C37.1723 98.91 37.3811 99.1188 37.3811 99.3765C37.3811 99.634 37.1723 99.843 36.9146 99.843Z" fill="#B3CAF8"/>
<path d="M40.8806 79.7893H29.9023V92.4733H40.8806V79.7893Z" fill="#8FE4FF"/>
<path d="M40.8806 77.4712H29.9023V78.5937H40.8806V77.4712Z" fill="#8FE4FF"/>
<path d="M37.8986 72.281H32.8833C32.0136 72.281 31.3086 71.576 31.3086 70.7065H39.4731C39.4731 71.576 38.7681 72.281 37.8986 72.281Z" fill="#B3CAF8"/>
<path d="M29.9023 93.552H40.8806" stroke="#78D2EE" stroke-width="0.228408" stroke-miterlimit="10"/>
<path d="M29.9023 94.886H40.8806" stroke="#78D2EE" stroke-width="0.228408" stroke-miterlimit="10"/>
<path d="M29.9023 96.22H40.8806" stroke="#78D2EE" stroke-width="0.228408" stroke-miterlimit="10"/>
<path d="M143.986 77.4108C146.975 77.4108 149.408 79.843 149.408 82.8328C149.408 85.8225 146.975 88.2548 143.986 88.2548C140.996 88.2548 138.564 85.8225 138.564 82.8328C138.564 79.843 140.996 77.4108 143.986 77.4108ZM143.986 75.3005C139.826 75.3005 136.453 78.6728 136.453 82.8328C136.453 86.9928 139.826 90.365 143.986 90.365C148.146 90.365 151.518 86.9928 151.518 82.8328C151.518 78.6728 148.146 75.3005 143.986 75.3005Z" fill="#8FE4FF"/>
<path d="M145.17 74.1973H142.803V76.2178H145.17V74.1973Z" fill="#8FE4FF"/>
<path d="M145.17 89.3547H142.803V91.3752H145.17V89.3547Z" fill="#8FE4FF"/>
<path d="M149.222 75.876L147.793 77.3047L149.467 78.9785L150.895 77.5497L149.222 75.876Z" fill="#8FE4FF"/>
<path d="M138.505 86.594L137.076 88.0227L138.75 89.6965L140.179 88.2677L138.505 86.594Z" fill="#8FE4FF"/>
<path d="M152.575 81.6028H150.555V83.9698H152.575V81.6028Z" fill="#8FE4FF"/>
<path d="M137.417 81.6028H135.396V83.9698H137.417V81.6028Z" fill="#8FE4FF"/>
<path d="M149.467 86.594L147.793 88.2677L149.222 89.6965L150.895 88.0227L149.467 86.594Z" fill="#8FE4FF"/>
<path d="M138.75 75.876L137.076 77.5497L138.505 78.9785L140.179 77.3047L138.75 75.876Z" fill="#8FE4FF"/>
<path d="M131.484 70.4095C133.635 70.4095 135.385 72.159 135.385 74.3095C135.385 76.4602 133.635 78.2097 131.484 78.2097C129.334 78.2097 127.584 76.4602 127.584 74.3095C127.584 72.159 129.334 70.4095 131.484 70.4095ZM131.484 68.8912C128.492 68.8912 126.066 71.3172 126.066 74.3095C126.066 77.302 128.492 79.7277 131.484 79.7277C134.477 79.7277 136.903 77.302 136.903 74.3095C136.903 71.3172 134.477 68.8912 131.484 68.8912Z" fill="#8FE4FF"/>
<path d="M132.653 67.8278H130.318V69.8213H132.653V67.8278Z" fill="#8FE4FF"/>
<path d="M132.653 78.731H130.318V80.7245H132.653V78.731Z" fill="#8FE4FF"/>
<path d="M135.218 68.8907L133.809 70.3005L135.46 71.9515L136.869 70.542L135.218 68.8907Z" fill="#8FE4FF"/>
<path d="M127.509 76.6007L126.1 78.0102L127.751 79.6615L129.161 78.252L127.509 76.6007Z" fill="#8FE4FF"/>
<path d="M137.933 73.1088H135.939V75.4438H137.933V73.1088Z" fill="#8FE4FF"/>
<path d="M127.031 73.1088H125.037V75.4438H127.031V73.1088Z" fill="#8FE4FF"/>
<path d="M135.46 76.6007L133.809 78.252L135.218 79.6615L136.869 78.0102L135.46 76.6007Z" fill="#8FE4FF"/>
<path d="M127.751 68.8907L126.1 70.542L127.509 71.9515L129.161 70.3005L127.751 68.8907Z" fill="#8FE4FF"/>
<path d="M129.543 44.5555H115.139" stroke="#FFE458" stroke-width="1.20402" stroke-miterlimit="10"/>
<path d="M128.797 41.4327H119.926" stroke="#FFE458" stroke-width="1.20402" stroke-miterlimit="10"/>
<path d="M127.953 38.3103H115.393" stroke="#FFE458" stroke-width="1.20402" stroke-miterlimit="10"/>
<path d="M103.266 73.5437H88.8613" stroke="#FFE458" stroke-width="1.20402" stroke-miterlimit="10"/>
<path d="M102.521 70.4213H93.6504" stroke="#FFE458" stroke-width="1.20402" stroke-miterlimit="10"/>
<path d="M101.677 67.2987H89.1172" stroke="#FFE458" stroke-width="1.20402" stroke-miterlimit="10"/>
<path d="M119.2 25.6005C121.035 25.6005 122.523 24.1129 122.523 22.2777C122.523 20.4426 121.035 18.9548 119.2 18.9548C117.365 18.9548 115.877 20.4426 115.877 22.2777C115.877 24.1129 117.365 25.6005 119.2 25.6005Z" stroke="#005B9D" stroke-width="0.228408" stroke-miterlimit="10"/>
<path d="M180.996 12.3338C181.828 12.3338 182.503 11.6589 182.503 10.8264C182.503 9.99394 181.828 9.31909 180.996 9.31909C180.163 9.31909 179.488 9.99394 179.488 10.8264C179.488 11.6589 180.163 12.3338 180.996 12.3338Z" fill="#4382FF"/>
<path d="M39.1593 12.4671C40.0478 12.4671 40.7678 11.7469 40.7678 10.8586C40.7678 9.97018 40.0478 9.25 39.1593 9.25C38.271 9.25 37.5508 9.97018 37.5508 10.8586C37.5508 11.7469 38.271 12.4671 39.1593 12.4671Z" fill="#8FE4FF"/>
<path d="M144.065 84.5723C145.007 84.5723 145.771 83.8085 145.771 82.8665C145.771 81.9245 145.007 81.1608 144.065 81.1608C143.123 81.1608 142.359 81.9245 142.359 82.8665C142.359 83.8085 143.123 84.5723 144.065 84.5723Z" fill="#8FE4FF"/>
<path d="M47.9085 33.813C48.392 33.813 48.784 33.421 48.784 32.9375C48.784 32.4543 48.392 32.0623 47.9085 32.0623C47.425 32.0623 47.0332 32.4543 47.0332 32.9375C47.0332 33.421 47.425 33.813 47.9085 33.813Z" fill="#8FE4FF"/>
<path d="M51.5881 33.813C52.0716 33.813 52.4634 33.421 52.4634 32.9375C52.4634 32.4543 52.0716 32.0623 51.5881 32.0623C51.1046 32.0623 50.7129 32.4543 50.7129 32.9375C50.7129 33.421 51.1046 33.813 51.5881 33.813Z" fill="#8FE4FF"/>
<path d="M55.27 33.813C55.7533 33.813 56.1453 33.421 56.1453 32.9375C56.1453 32.4543 55.7533 32.0623 55.27 32.0623C54.7865 32.0623 54.3945 32.4543 54.3945 32.9375C54.3945 33.421 54.7865 33.813 55.27 33.813Z" fill="#B3CAF8"/>
<path d="M40.4199 11.0442C40.4199 11.0442 142.682 10.6983 159.418 10.8783C166.077 10.9499 172.114 15.0338 174.432 21.2769C175.233 23.4312 175.485 25.5817 174.897 27.6232C172.913 34.502 162.606 35.8675 162.704 40.8482C162.789 45.1317 171.046 44.9322 173.784 51.2287C179.125 63.5075 169.883 82.7365 156.523 85.2858C151.704 86.205 147.245 84.78 143.986 83.155" stroke="#005B9D" stroke-width="0.5" stroke-miterlimit="10" stroke-dasharray="1.83 1.83"/>
<path d="M20.4378 45.4837C21.4185 45.4837 22.2135 44.6888 22.2135 43.708C22.2135 42.7273 21.4185 41.9323 20.4378 41.9323C19.4571 41.9323 18.6621 42.7273 18.6621 43.708C18.6621 44.6888 19.4571 45.4837 20.4378 45.4837Z" fill="#8FE4FF"/>
<path d="M17.0977 48.9603C17.0977 47.7438 18.0839 46.2271 19.3004 46.2271H21.3029C22.5195 46.2271 23.5057 47.7438 23.5057 48.9603C23.5057 50.1768 17.0977 50.1768 17.0977 48.9603Z" fill="#8FE4FF"/>
<path d="M40.8222 76.2758C41.7399 76.2758 42.4842 75.5315 42.4842 74.6138C42.4842 73.6958 41.7399 72.9518 40.8222 72.9518C39.9042 72.9518 39.1602 73.6958 39.1602 74.6138C39.1602 75.5315 39.9042 76.2758 40.8222 76.2758Z" fill="#B3CAF8"/>
<path d="M72.7499 62.8092C73.6676 62.8092 74.4119 62.0652 74.4119 61.1472C74.4119 60.2292 73.6676 59.4852 72.7499 59.4852C71.8319 59.4852 71.0879 60.2292 71.0879 61.1472C71.0879 62.0652 71.8319 62.8092 72.7499 62.8092Z" fill="#B3CAF8"/>
<path d="M29.7168 42.0525H66.4585" stroke="#78D2EE" stroke-width="0.228408" stroke-miterlimit="10" stroke-linecap="round"/>
<path d="M30.9883 47.0365H67.73" stroke="#78D2EE" stroke-width="0.228408" stroke-miterlimit="10" stroke-linecap="round"/>
<path d="M31.8359 52.0203H81.0864" stroke="#78D2EE" stroke-width="0.228408" stroke-miterlimit="10" stroke-linecap="round"/>
</svg>
