<svg width="200" height="150" viewBox="0 0 200 150" fill="none" xmlns="http://www.w3.org/2000/svg">
<path d="M53.783 105.351H44.6445V111.339H53.783V105.351Z" fill="#F1F2F2"/>
<path d="M70.6405 105.351H61.502V111.339H70.6405V105.351Z" fill="#F1F2F2"/>
<path d="M59.913 105.351H55.3438V111.339H59.913V105.351Z" fill="#F1F2F2"/>
<path d="M69.7335 124.649H68.5983C66.64 124.649 65.0508 123.06 65.0508 121.102V119.967C65.0508 118.009 66.64 116.419 68.5983 116.419H69.7335C71.6918 116.419 73.281 118.009 73.281 119.967V121.102C73.2528 123.06 71.6918 124.649 69.7335 124.649Z" fill="#F1F2F2"/>
<path d="M93.6855 85.0023H44.6445V86.3645H93.6855V85.0023Z" fill="#F1F2F2"/>
<path d="M93.6855 87.9535H44.6445V89.3157H93.6855V87.9535Z" fill="#F1F2F2"/>
<path d="M93.6855 90.8768H44.6445V92.239H93.6855V90.8768Z" fill="#F1F2F2"/>
<path d="M93.6855 93.8285H44.6445V95.1907H93.6855V93.8285Z" fill="#F1F2F2"/>
<path d="M93.6855 96.78H44.6445V98.1423H93.6855V96.78Z" fill="#F1F2F2"/>
<path d="M93.6855 99.703H44.6445V101.065H93.6855V99.703Z" fill="#F1F2F2"/>
<path opacity="0.2" d="M12.4606 52.1095C12.5174 58.495 31.0496 58.8072 32.7523 67.8605C34.7958 78.645 9.90639 85.8535 10.0199 102.257C10.0483 108.33 13.5107 115.482 18.761 117.299C28.8928 120.789 36.2716 100.214 51.8238 100.384C70.2143 100.611 75.4078 124.167 91.1873 123.429C108.953 122.634 113.239 90.4795 129.415 90.2807C145.223 90.082 150.701 120.42 165.912 119.484C177.435 118.774 187.425 100.526 188.191 85.229C188.361 81.937 189.099 66.5265 179.478 59.2327C169.204 51.485 155.128 58.7505 151.665 52.592C148.175 46.4617 160.577 36.8125 157.228 31.0797C154.333 26.1415 144.173 31.5622 128.678 28.866C108.159 25.3185 102.199 11.6676 92.4928 15.4422C83.7233 18.8478 86.7031 30.7107 75.9756 36.6422C67.9723 41.0695 63.0058 36.245 47.8791 37.0962C30.5103 38.0612 12.4038 45.7807 12.4606 52.1095Z" fill="#FFC7A8"/>
<path d="M128.934 133.164H16.804C16.7189 133.164 16.6621 133.107 16.6621 133.022C16.6621 132.937 16.7189 132.88 16.804 132.88H128.934C129.019 132.88 129.076 132.937 129.076 133.022C129.076 133.107 129.019 133.164 128.934 133.164Z" fill="#2F5373"/>
<path d="M44.5589 23.8714H34.8529C34.3136 23.8714 33.8594 23.4173 33.8594 22.8781C33.8594 22.3388 34.3136 21.8848 34.8529 21.8848H44.5589C45.0981 21.8848 45.5521 22.3388 45.5521 22.8781C45.5521 23.4173 45.0981 23.8714 44.5589 23.8714Z" fill="#F3E6DE"/>
<path d="M101.943 23.8714H92.2374C91.6981 23.8714 91.2441 23.4173 91.2441 22.8781C91.2441 22.3388 91.6981 21.8848 92.2374 21.8848H101.943C102.483 21.8848 102.937 22.3388 102.937 22.8781C102.965 23.4173 102.511 23.8714 101.943 23.8714Z" fill="#F3E6DE"/>
<path d="M129.615 62.3268H127.912V62.8943H129.615V62.3268Z" fill="#FFC7A8"/>
<path d="M178.004 62.8943H174.541V62.3268H178.004V62.8943ZM171.079 62.8943H167.617V62.3268H171.079V62.8943ZM164.183 62.8943H160.72V62.3268H164.183V62.8943ZM157.258 62.8943H153.796V62.3268H157.258V62.8943ZM150.362 62.8943H146.899V62.3268H150.362V62.8943ZM143.437 62.8943H139.974V62.3268H143.437V62.8943ZM136.54 62.8943H133.078V62.3268H136.54V62.8943Z" fill="#FFC7A8"/>
<path d="M183.141 62.3268H181.438V62.8943H183.141V62.3268Z" fill="#FFC7A8"/>
<path d="M168.042 21.6576V53.273C168.042 53.8123 167.929 54.3233 167.702 54.7773C167.134 55.9125 165.971 56.7355 164.608 56.7355H132.964C131.035 56.7355 129.502 55.1745 129.502 53.273V21.6576C129.502 19.7277 131.063 18.1952 132.964 18.1952H164.58C166.51 18.1668 168.042 19.7277 168.042 21.6576Z" fill="#F1F2F2"/>
<path opacity="0.16" d="M159.102 23.701C158.562 21.9415 156.774 20.7779 154.958 20.4941C155.441 20.3238 155.526 19.5859 155.213 19.1602C154.901 18.7345 154.362 18.5642 153.823 18.4791C153.539 18.4223 153.255 18.3656 153 18.3372C151.467 18.1385 150.077 17.3155 149.169 16.0951C147.636 13.995 144.457 11.5827 139.775 14.3923C138.072 13.7396 135.915 14.1369 134.95 15.8965C134.808 16.1803 134.695 16.4925 134.638 16.8046C134.354 18.5075 134.837 21.1752 136.028 21.8563C136.795 22.3104 137.902 22.651 139.15 22.9064C138.214 26.227 135.432 36.6425 136.426 37.2385C137.05 37.6072 140.144 38.26 143.18 38.544L143.351 39.821L144.003 44.9295C144.315 47.3132 146.472 48.9877 148.856 48.6755C151.24 48.3635 152.915 46.2065 152.603 43.8225L151.496 35.1667L151.382 34.372C151.666 33.7192 151.921 33.0382 152.177 32.357C153.057 32.6125 154.107 32.0165 154.334 31.1082C155.781 30.938 157.37 30.6825 158.25 29.5472C158.846 28.781 158.988 27.7877 159.102 26.8512C159.3 25.8295 159.414 24.7227 159.102 23.701Z" fill="#232323"/>
<path opacity="0.16" d="M168.042 51.4285V53.2732C168.042 53.8125 167.929 54.3232 167.702 54.7775C167.134 55.9125 165.97 56.7355 164.608 56.7355L157.258 40.871C159.244 40.9562 161.799 42.063 163.246 43.255C165.062 44.7592 166.935 48.562 168.042 51.4285Z" fill="#232323"/>
<path d="M169.573 59.6868H140.029C137.986 59.6868 136.34 58.0408 136.34 55.9973V26.482C136.34 24.4385 137.986 22.7925 140.029 22.7925H169.573C171.617 22.7925 173.263 24.4385 173.263 26.482V56.0258C173.263 58.0408 171.617 59.6868 169.573 59.6868ZM140.029 23.2182C138.241 23.2182 136.766 24.6656 136.766 26.482V56.0258C136.766 57.8138 138.213 59.2895 140.029 59.2895H169.573C171.361 59.2895 172.837 57.842 172.837 56.0258V26.482C172.837 24.694 171.389 23.2182 169.573 23.2182H140.029Z" fill="#232323"/>
<path d="M196.392 29.4052H188.843C188.247 29.4052 187.736 28.9227 187.736 28.2985V20.7777C187.736 20.1817 188.219 19.6709 188.843 19.6709H196.392C196.988 19.6709 197.499 20.1533 197.499 20.7777V28.2985C197.499 28.9227 197.017 29.4052 196.392 29.4052ZM188.872 20.0966C188.503 20.0966 188.19 20.4088 188.19 20.7777V28.2985C188.19 28.6675 188.503 28.9795 188.872 28.9795H196.421C196.79 28.9795 197.102 28.6675 197.102 28.2985V20.7777C197.102 20.4088 196.79 20.0966 196.421 20.0966H188.872Z" fill="#232323"/>
<path d="M196.392 43.2263H188.843C188.247 43.2263 187.736 42.744 187.736 42.1195V34.5988C187.736 34.0028 188.219 33.492 188.843 33.492H196.392C196.988 33.492 197.499 33.9745 197.499 34.5988V42.148C197.499 42.744 197.017 43.2263 196.392 43.2263ZM188.872 33.9178C188.503 33.9178 188.19 34.2298 188.19 34.5988V42.148C188.19 42.5168 188.503 42.829 188.872 42.829H196.421C196.79 42.829 197.102 42.5168 197.102 42.148V34.5988C197.102 34.2298 196.79 33.9178 196.421 33.9178H188.872Z" fill="#232323"/>
<path d="M196.392 57.0477H188.843C188.247 57.0477 187.736 56.5652 187.736 55.9407V48.3917C187.736 47.7957 188.219 47.285 188.843 47.285H196.392C196.988 47.285 197.499 47.7675 197.499 48.3917V55.9407C197.499 56.5652 197.017 57.0477 196.392 57.0477ZM188.872 47.739C188.503 47.739 188.19 48.0512 188.19 48.42V55.9692C188.19 56.3382 188.503 56.6502 188.872 56.6502H196.421C196.79 56.6502 197.102 56.3382 197.102 55.9692V48.42C197.102 48.0512 196.79 47.739 196.421 47.739H188.872Z" fill="#232323"/>
<path d="M195.798 19.0748V27.1348C195.798 27.2768 195.77 27.3903 195.713 27.532C195.571 27.816 195.259 28.043 194.918 28.043H186.858C186.376 28.043 185.979 27.6458 185.979 27.1633V19.0748C185.979 18.5924 186.376 18.195 186.858 18.195H194.918C195.401 18.1667 195.798 18.564 195.798 19.0748Z" fill="#F1F2F2"/>
<path d="M195.798 32.8962V40.956C195.798 41.098 195.77 41.2115 195.713 41.3535C195.571 41.6372 195.259 41.8642 194.918 41.8642H186.858C186.376 41.8642 185.979 41.467 185.979 40.9845V32.8962C185.979 32.4137 186.376 32.0162 186.858 32.0162H194.918C195.401 32.0162 195.798 32.4137 195.798 32.8962Z" fill="#F1F2F2"/>
<path d="M195.798 46.717V54.777C195.798 54.919 195.77 55.0325 195.713 55.1745C195.571 55.4583 195.259 55.6853 194.918 55.6853H186.858C186.376 55.6853 185.979 55.288 185.979 54.8055V46.7455C185.979 46.263 186.376 45.8658 186.858 45.8658H194.918C195.401 45.8373 195.798 46.2348 195.798 46.717Z" fill="#F1F2F2"/>
<path d="M196.394 74.927H188.845C188.362 74.927 187.965 74.5298 187.965 74.0473V66.4983C187.965 66.0158 188.362 65.6185 188.845 65.6185H196.394C196.876 65.6185 197.274 66.0158 197.274 66.4983V74.0473C197.302 74.5298 196.905 74.927 196.394 74.927Z" fill="#FFC7A8"/>
<path d="M196.394 88.7768H188.845C188.362 88.7768 187.965 88.3795 187.965 87.897V80.3478C187.965 79.8653 188.362 79.468 188.845 79.468H196.394C196.876 79.468 197.274 79.8653 197.274 80.3478V87.897C197.302 88.3795 196.905 88.7768 196.394 88.7768Z" fill="#FFC7A8"/>
<path d="M196.394 102.598H188.845C188.362 102.598 187.965 102.201 187.965 101.718V94.169C187.965 93.6867 188.362 93.2892 188.845 93.2892H196.394C196.876 93.2892 197.274 93.6867 197.274 94.169V101.718C197.302 102.201 196.905 102.598 196.394 102.598Z" fill="#FFC7A8"/>
<path d="M194.917 73.9622H186.857C186.261 73.9622 185.75 73.48 185.75 72.8555V64.7955C185.75 64.1995 186.232 63.6887 186.857 63.6887H194.917C195.513 63.6887 196.023 64.1712 196.023 64.7955V72.8555C196.023 73.0257 195.995 73.196 195.91 73.338C195.711 73.7352 195.342 73.9622 194.917 73.9622ZM186.857 64.1427C186.488 64.1427 186.176 64.455 186.176 64.824V72.884C186.176 73.2527 186.488 73.565 186.857 73.565H194.917C195.172 73.565 195.399 73.423 195.513 73.196C195.57 73.111 195.57 72.9975 195.57 72.9122V64.8522C195.57 64.4832 195.257 64.1712 194.888 64.1712H186.857V64.1427Z" fill="#232323"/>
<path d="M194.917 87.812H186.857C186.261 87.812 185.75 87.3295 185.75 86.7053V78.6453C185.75 78.0493 186.232 77.5383 186.857 77.5383H194.917C195.513 77.5383 196.023 78.0208 196.023 78.6453V86.7053C196.023 86.8755 195.995 87.0458 195.91 87.1875C195.711 87.5565 195.342 87.812 194.917 87.812ZM186.857 77.964C186.488 77.964 186.176 78.2763 186.176 78.6453V86.7053C186.176 87.074 186.488 87.3863 186.857 87.3863H194.917C195.172 87.3863 195.399 87.2443 195.513 87.0173C195.57 86.9323 195.57 86.8188 195.57 86.7335V78.6735C195.57 78.3045 195.257 77.9925 194.888 77.9925H186.857V77.964Z" fill="#232323"/>
<path d="M194.917 101.633H186.857C186.261 101.633 185.75 101.151 185.75 100.526V92.4662C185.75 91.8702 186.232 91.3595 186.857 91.3595H194.917C195.513 91.3595 196.023 91.8417 196.023 92.4662V100.526C196.023 100.697 195.995 100.867 195.91 101.009C195.711 101.378 195.342 101.633 194.917 101.633ZM186.857 91.785C186.488 91.785 186.176 92.0972 186.176 92.4662V100.526C186.176 100.895 186.488 101.207 186.857 101.207H194.917C195.172 101.207 195.399 101.065 195.513 100.838C195.57 100.753 195.57 100.64 195.57 100.554V92.4945C195.57 92.1257 195.257 91.8135 194.888 91.8135H186.857V91.785Z" fill="#232323"/>
<path d="M98.2261 60.1125H98.0273V31.2215H98.2261C99.2761 31.2215 100.128 32.0727 100.128 33.123V58.211C100.128 59.261 99.2761 60.1125 98.2261 60.1125Z" fill="#F1F2F2"/>
<path d="M40.0751 91.3307H40.2738V120.222H40.0751C39.0251 120.222 38.1738 119.371 38.1738 118.32V93.2322C38.1738 92.1822 39.0251 91.3307 40.0751 91.3307Z" fill="#F1F2F2"/>
<path d="M33.2637 73.6218V43.6523C33.2637 42.3468 34.3137 41.2968 35.6192 41.2968H86.2212C87.5267 41.2968 88.5767 42.3468 88.5767 43.6523V73.6218C88.5767 74.9273 87.5267 75.9773 86.2212 75.9773H35.6192C34.3137 75.9773 33.2637 74.9273 33.2637 73.6218Z" fill="#2F5373"/>
<path opacity="0.1" d="M40.5019 41.2968H40.0762V75.9773H40.5019V41.2968Z" fill="#D8D8D8"/>
<path d="M97.4609 40.5873L115.284 55.884C115.284 55.884 123.826 78.191 115.199 90.1673L108.189 95.077L110.856 68.9673L98.0002 50.8325L97.4609 40.5873Z" fill="#F3E6DE"/>
<path d="M55.0306 56.9625H37.5768C36.6403 56.9625 35.9023 56.1963 35.9023 55.288V45.5253C35.9023 44.5888 36.6686 43.8508 37.5768 43.8508H55.0306C55.9671 43.8508 56.7051 44.617 56.7051 45.5253V55.2598C56.7051 56.1963 55.9671 56.9625 55.0306 56.9625Z" fill="#F3E6DE"/>
<path d="M82.8154 23.3036H55.4854C51.9376 23.3036 49.0996 20.4372 49.0996 16.9181V13.853H89.2294V16.8897C89.2294 20.4372 86.3629 23.3036 82.8154 23.3036Z" fill="#F3E6DE"/>
<path d="M40.3032 41.5238C40.1897 41.5238 40.0762 41.4385 40.0762 41.2968V35.1383C40.0762 35.0248 40.1614 34.9113 40.3032 34.9113C40.4452 34.9113 40.5302 34.9963 40.5302 35.1383V41.2968C40.5019 41.4103 40.4167 41.5238 40.3032 41.5238Z" fill="#232323"/>
<path d="M92.8056 128.849H45.4959C42.5159 128.849 40.0751 126.409 40.0751 123.429V75.977C40.0751 75.8635 40.1604 75.75 40.3024 75.75C40.4441 75.75 40.5294 75.8352 40.5294 75.977V123.4C40.5294 126.153 42.7714 128.395 45.5241 128.395H92.8341C95.5869 128.395 97.8289 126.153 97.8289 123.4V23.3886C97.8289 20.6357 95.5869 18.3937 92.8341 18.3937H45.4959C42.7429 18.3937 40.5009 20.6357 40.5009 23.3886V29.2917C40.5009 29.4052 40.4159 29.5187 40.2739 29.5187C40.1321 29.5187 40.0469 29.4335 40.0469 29.2917V23.3886C40.0469 20.4087 42.4876 17.968 45.4674 17.968H92.7771C95.7571 17.968 98.1979 20.4087 98.1979 23.3886V123.4C98.2261 126.409 95.8139 128.849 92.8056 128.849Z" fill="#232323"/>
<path d="M14.1641 41.4952V96.8082H28.3259V41.4952H14.1641ZM19.9536 47.512H16.2642V43.8225H19.9536V47.512Z" fill="#FFC7A8"/>
<path d="M86.9029 75.2392H66.3274C66.2139 75.2392 66.1004 75.154 66.1004 75.012C66.1004 74.8702 66.1854 74.785 66.3274 74.785H86.9029C88.2369 74.785 89.3151 73.7067 89.3151 72.3727V42.971C89.3151 41.637 88.2369 40.5585 86.9029 40.5585H44.7016C44.5881 40.5585 44.4746 40.4735 44.4746 40.3315C44.4746 40.1897 44.5596 40.1045 44.7016 40.1045H86.9029C88.4639 40.1045 89.7409 41.3815 89.7409 42.9425V72.3727C89.7409 73.9905 88.4639 75.2392 86.9029 75.2392Z" fill="#232323"/>
<path d="M43.623 47.512V53.188C43.623 53.6137 44.1055 53.8975 44.4745 53.642L48.5895 50.946C48.9018 50.7472 48.93 50.2647 48.618 50.0377L44.5028 47.0577C44.1338 46.8025 43.623 47.0577 43.623 47.512Z" fill="#FFC7A8"/>
<path d="M86.1938 51.3997V55.2312C86.1938 55.7987 85.7395 56.2527 85.172 56.2527H79.6663C79.0985 56.2527 78.6445 55.7987 78.6445 55.2312V51.3997C78.6445 50.8322 79.0985 50.3782 79.6663 50.3782H85.172C85.7395 50.3782 86.1938 50.8322 86.1938 51.3997Z" fill="#F3E6DE"/>
<path d="M81.6816 52.3367V54.4652C81.6816 54.6355 81.8519 54.7207 81.9939 54.6355L83.5264 53.614C83.6399 53.5287 83.6399 53.3585 83.5264 53.2732L81.9939 52.1665C81.8804 52.053 81.6816 52.1665 81.6816 52.3367Z" fill="#FFC7A8"/>
<path d="M76.6567 51.3997V55.2312C76.6567 55.7987 76.2027 56.2527 75.6349 56.2527H70.1292C69.5617 56.2527 69.1074 55.7987 69.1074 55.2312V51.3997C69.1074 50.8322 69.5617 50.3782 70.1292 50.3782H75.6349C76.2027 50.3782 76.6567 50.8322 76.6567 51.3997Z" fill="#F3E6DE"/>
<path d="M72.1738 52.3367V54.4652C72.1738 54.6355 72.3441 54.7207 72.4858 54.6355L74.0183 53.614C74.1321 53.5287 74.1321 53.3585 74.0183 53.2732L72.4858 52.1665C72.3441 52.053 72.1738 52.1665 72.1738 52.3367Z" fill="#FFC7A8"/>
<path d="M67.1213 51.3997V55.2312C67.1213 55.7987 66.6673 56.2527 66.0998 56.2527H60.594C60.0263 56.2527 59.5723 55.7987 59.5723 55.2312V51.3997C59.5723 50.8322 60.0263 50.3782 60.594 50.3782H66.0998C66.6673 50.3782 67.1213 50.8322 67.1213 51.3997Z" fill="#F3E6DE"/>
<path d="M62.6387 52.3367V54.4652C62.6387 54.6355 62.8089 54.7207 62.9509 54.6355L64.4834 53.614C64.5969 53.5287 64.5969 53.3585 64.4834 53.2732L62.9509 52.1665C62.8089 52.053 62.6387 52.1665 62.6387 52.3367Z" fill="#FFC7A8"/>
<path d="M86.1938 59.091V62.9222C86.1938 63.49 85.7395 63.944 85.172 63.944H79.6663C79.0985 63.944 78.6445 63.49 78.6445 62.9222V59.091C78.6445 58.5235 79.0985 58.0692 79.6663 58.0692H85.172C85.7395 58.041 86.1938 58.5235 86.1938 59.091Z" fill="#F3E6DE"/>
<path d="M81.6816 59.9992V62.1277C81.6816 62.2982 81.8519 62.3832 81.9939 62.2982L83.5264 61.2765C83.6399 61.1912 83.6399 61.021 83.5264 60.936L81.9939 59.829C81.8804 59.744 81.6816 59.829 81.6816 59.9992Z" fill="#FFC7A8"/>
<path d="M76.6567 59.091V62.9222C76.6567 63.49 76.2027 63.944 75.6349 63.944H70.1292C69.5617 63.944 69.1074 63.49 69.1074 62.9222V59.091C69.1074 58.5235 69.5617 58.0692 70.1292 58.0692H75.6349C76.2027 58.041 76.6567 58.5235 76.6567 59.091Z" fill="#F3E6DE"/>
<path d="M72.1738 59.9992V62.1277C72.1738 62.2982 72.3441 62.3832 72.4858 62.2982L74.0183 61.2765C74.1321 61.1912 74.1321 61.021 74.0183 60.936L72.4858 59.829C72.3441 59.744 72.1738 59.829 72.1738 59.9992Z" fill="#FFC7A8"/>
<path d="M67.1213 59.091V62.9222C67.1213 63.49 66.6673 63.944 66.0998 63.944H60.594C60.0263 63.944 59.5723 63.49 59.5723 62.9222V59.091C59.5723 58.5235 60.0263 58.0692 60.594 58.0692H66.0998C66.6673 58.041 67.1213 58.5235 67.1213 59.091Z" fill="#F3E6DE"/>
<path d="M62.6387 59.9992V62.1277C62.6387 62.2982 62.8089 62.3832 62.9509 62.2982L64.4834 61.2765C64.5969 61.1912 64.5969 61.021 64.4834 60.936L62.9509 59.829C62.8089 59.744 62.6387 59.829 62.6387 59.9992Z" fill="#FFC7A8"/>
<path d="M86.1938 66.7537V70.5852C86.1938 71.1527 85.7395 71.607 85.172 71.607H79.6663C79.0985 71.607 78.6445 71.1527 78.6445 70.5852V66.7537C78.6445 66.1862 79.0985 65.7322 79.6663 65.7322H85.172C85.7395 65.7322 86.1938 66.1862 86.1938 66.7537Z" fill="#F3E6DE"/>
<path d="M81.6816 67.6903V69.8188C81.6816 69.989 81.8519 70.0743 81.9939 69.989L83.5264 68.9673C83.6399 68.8823 83.6399 68.712 83.5264 68.6268L81.9939 67.52C81.8804 67.4348 81.6816 67.52 81.6816 67.6903Z" fill="#FFC7A8"/>
<path d="M76.6567 66.7537V70.5852C76.6567 71.1527 76.2027 71.607 75.6349 71.607H70.1292C69.5617 71.607 69.1074 71.1527 69.1074 70.5852V66.7537C69.1074 66.1862 69.5617 65.7322 70.1292 65.7322H75.6349C76.2027 65.7322 76.6567 66.1862 76.6567 66.7537Z" fill="#F3E6DE"/>
<path d="M72.1738 67.6903V69.8188C72.1738 69.989 72.3441 70.0743 72.4858 69.989L74.0183 68.9673C74.1321 68.8823 74.1321 68.712 74.0183 68.6268L72.4858 67.52C72.3441 67.4348 72.1738 67.52 72.1738 67.6903Z" fill="#FFC7A8"/>
<path d="M66.0998 65.7322H60.594C60.0263 65.7322 59.5723 66.1862 59.5723 66.7537V70.5852C59.5723 71.1527 60.0263 71.607 60.594 71.607H66.0998C66.6673 71.607 67.1213 71.1527 67.1213 70.5852V66.7537C67.1213 66.1862 66.6673 65.7322 66.0998 65.7322ZM64.482 68.9675L62.9495 69.9892C62.8075 70.0742 62.6373 69.9892 62.6373 69.819V67.6905C62.6373 67.5202 62.836 67.435 62.9778 67.5202L64.5103 68.627C64.6238 68.712 64.6238 68.8825 64.482 68.9675Z" fill="#FFC7A8"/>
<path d="M64.4834 68.9673L62.9509 69.989C62.8089 70.0743 62.6387 69.989 62.6387 69.8188V67.6903C62.6387 67.52 62.8372 67.4348 62.9792 67.52L64.5117 68.6268C64.6252 68.712 64.6252 68.8823 64.4834 68.9673Z" fill="#F3E6DE"/>
<path d="M88.5777 79.2125V79.3545C88.5777 79.7235 88.2655 80.0357 87.8967 80.0357H54.5215C54.6635 79.8652 54.7485 79.6382 54.7485 79.4112V79.1842C54.7485 78.9287 54.6635 78.7017 54.5215 78.5315H87.925C88.2655 78.5315 88.5777 78.8437 88.5777 79.2125Z" fill="#F3E6DE"/>
<path d="M49.2984 80.0357H33.9449C33.5759 80.0357 33.2637 79.7235 33.2637 79.3545V79.2125C33.2637 78.8437 33.5759 78.5315 33.9449 78.5315H49.2984C49.6674 78.5315 49.9797 78.8437 49.9797 79.2125V79.3545C49.9797 79.7517 49.6674 80.0357 49.2984 80.0357Z" fill="#2F5373"/>
<path d="M54.747 79.1842V79.4112C54.747 79.6382 54.6618 79.8655 54.52 80.0357C54.3498 80.2627 54.0375 80.433 53.7253 80.433H49.2695C48.702 80.433 48.248 79.979 48.248 79.4112V79.1842C48.248 78.6167 48.702 78.1625 49.2695 78.1625H53.7253C54.0375 78.1625 54.3213 78.3045 54.52 78.5315C54.6618 78.7302 54.747 78.9572 54.747 79.1842Z" fill="#FFC7A8"/>
<path opacity="0.4" d="M56.5075 58.8643H36.1305C35.9885 58.8643 35.875 58.7508 35.875 58.6088V58.552C35.875 58.4103 35.9885 58.2968 36.1305 58.2968H56.5075C56.6493 58.2968 56.7627 58.4103 56.7627 58.552V58.6088C56.7627 58.7508 56.6493 58.8643 56.5075 58.8643Z" fill="#F1F2F2"/>
<path d="M43.8216 59.006H42.1756C41.9769 59.006 41.8066 58.8355 41.8066 58.637V58.5517C41.8066 58.3532 41.9769 58.1827 42.1756 58.1827H43.8216C44.0204 58.1827 44.1906 58.3532 44.1906 58.5517V58.637C44.1906 58.864 44.0204 59.006 43.8216 59.006Z" fill="#FFC7A8"/>
<path d="M117.071 70.358C111.735 49.5555 103.079 37.0965 99.39 34.372C95.956 31.8462 91.614 31.534 90.9327 32.4137C90.507 32.953 92.7775 35.3085 93.6572 36.2735C101.15 44.5887 105.804 62.7522 100.014 76.9422C96.836 84.7185 89.826 93.0622 85.0297 91.927C83.1282 91.473 59.4592 69.1945 57.2172 71.3797C55.9685 72.6 59.374 76.3462 63.3472 85.4562C65.9582 91.4445 69.903 104.13 69.1085 117.356C68.8247 122.237 67.5192 130.921 61.162 140.996L100.241 140.485C100.241 140.485 118.234 104.982 121.186 82.0222C121.895 76.4315 118.036 74.161 117.071 70.358Z" fill="#FFC7A8"/>
<path d="M104.243 70.131C104.101 70.1025 104.016 70.0175 104.044 69.904C105.009 61.4467 101.461 50.1797 98.5381 45.27C98.4814 45.1565 98.5099 45.043 98.6234 44.9862C98.7369 44.9295 98.8504 44.9577 98.9071 45.0712C101.859 50.0377 105.435 61.4467 104.47 69.9607C104.441 70.0457 104.356 70.131 104.243 70.131Z" fill="#232323"/>
<path d="M19.9531 43.8225H16.2637V47.512H19.9531V43.8225Z" fill="#F3E6DE"/>
<path opacity="0.77" d="M26.6793 52.1097H16.2637V53.4152H26.6793V52.1097Z" fill="#F1F2F2"/>
<path opacity="0.77" d="M26.6793 54.976H16.2637V56.2815H26.6793V54.976Z" fill="#F1F2F2"/>
<path opacity="0.77" d="M26.6793 57.8422H16.2637V59.1477H26.6793V57.8422Z" fill="#F1F2F2"/>
<path opacity="0.77" d="M26.6793 60.7087H16.2637V62.0142H26.6793V60.7087Z" fill="#F1F2F2"/>
<path opacity="0.77" d="M26.6793 63.6035H16.2637V64.909H26.6793V63.6035Z" fill="#F1F2F2"/>
<path opacity="0.77" d="M26.6793 66.47H16.2637V67.7755H26.6793V66.47Z" fill="#F1F2F2"/>
<path opacity="0.77" d="M26.6793 69.3362H16.2637V70.6417H26.6793V69.3362Z" fill="#F1F2F2"/>
<path opacity="0.77" d="M26.6793 75.0975H16.2637V76.403H26.6793V75.0975Z" fill="#F1F2F2"/>
<path opacity="0.77" d="M26.6793 77.9637H16.2637V79.2692H26.6793V77.9637Z" fill="#F1F2F2"/>
<path opacity="0.77" d="M26.6793 80.83H16.2637V82.1355H26.6793V80.83Z" fill="#F1F2F2"/>
<path opacity="0.77" d="M26.6793 83.6968H16.2637V85.0023H26.6793V83.6968Z" fill="#F1F2F2"/>
<path opacity="0.77" d="M26.6793 86.5915H16.2637V87.897H26.6793V86.5915Z" fill="#F1F2F2"/>
<path opacity="0.77" d="M26.6793 89.458H16.2637V90.7635H26.6793V89.458Z" fill="#F1F2F2"/>
<path d="M26.6793 99.8168H16.2637V101.122H26.6793V99.8168Z" fill="#FFC7A8"/>
<path d="M26.6793 102.598H16.2637V103.904H26.6793V102.598Z" fill="#FFC7A8"/>
<path opacity="0.77" d="M146.984 65.8455H136.568V67.151H146.984V65.8455Z" fill="#2F5373"/>
<path opacity="0.77" d="M151.922 68.7123H136.568V70.0178H151.922V68.7123Z" fill="#2F5373"/>
<path opacity="0.77" d="M151.922 71.5782H136.568V72.8838H151.922V71.5782Z" fill="#2F5373"/>
<path d="M173.321 124.877H138.441V126.182H173.321V124.877Z" fill="#2F5373"/>
<path d="M173.321 127.743H138.441V129.048H173.321V127.743Z" fill="#2F5373"/>
<path d="M85.9367 35.337H35.9025C34.3415 35.337 33.0645 34.0598 33.0645 32.499V31.903C33.0645 30.342 34.3415 29.065 35.9025 29.065H85.9367C87.4977 29.065 88.7747 30.342 88.7747 31.903V32.499C88.7747 34.0883 87.526 35.337 85.9367 35.337ZM35.9025 29.519C34.5687 29.519 33.4902 30.5975 33.4902 31.9313V32.5273C33.4902 33.8613 34.5687 34.9398 35.9025 34.9398H85.9367C87.2707 34.9398 88.3489 33.8613 88.3489 32.5273V31.9313C88.3489 30.5975 87.2707 29.519 85.9367 29.519H35.9025Z" fill="#232323"/>
<path opacity="0.2" d="M40.5019 29.15H40.0762V34.9963H40.5019V29.15Z" fill="#232323"/>
<path d="M39.5923 71.2663H37.2083C36.8396 71.2663 36.5273 70.954 36.5273 70.585V68.2013C36.5273 67.8323 36.8396 67.52 37.2083 67.52H39.5923C39.9613 67.52 40.2736 67.8323 40.2736 68.2013V70.585C40.2736 70.954 39.9613 71.2663 39.5923 71.2663Z" fill="#FFC7A8"/>
<path d="M47.823 67.8038H41.4375V68.428H47.823V67.8038Z" fill="#FFC7A8"/>
<path d="M43.6227 69.081H41.4375V69.7055H43.6227V69.081Z" fill="#FFC7A8"/>
<path d="M42.2605 60.1127H35.875V60.7372H42.2605V60.1127Z" fill="#FFC7A8"/>
<path d="M38.0602 61.3615H35.875V61.986H38.0602V61.3615Z" fill="#FFC7A8"/>
<path d="M52.2217 70.3295H41.4375V70.954H52.2217V70.3295Z" fill="#FFC7A8"/>
<path d="M86.4771 43.8225H72.7129V46.2633H86.4771V43.8225Z" fill="#FFC7A8"/>
<path d="M162.167 43.085C160.578 42.1485 158.052 40.7577 156.094 40.6727C150.333 40.4172 136.114 39.4807 132.425 42.943C129.615 45.5825 128.168 49.4705 127.43 52.3085C126.919 54.2385 128.253 56.1682 130.268 56.367C131.375 56.4805 133.645 56.6222 136.483 56.7925L168.524 56.7075C168.524 56.7357 166.481 45.6392 162.167 43.085Z" fill="#3A8652"/>
<path d="M147.467 47.143C145.083 47.455 142.926 45.7523 142.642 43.3968L141.989 38.2883L141.422 33.719L150.021 32.6405L150.163 33.634L151.27 42.29C151.525 44.6738 149.851 46.859 147.467 47.143Z" fill="#FFBF85"/>
<path opacity="0.4" d="M150.135 33.6623C149.397 35.4503 148.545 37.0113 147.921 37.6923C147.211 38.4585 144.657 38.5153 141.989 38.2883L141.422 33.719L150.021 32.6405L150.135 33.6623Z" fill="#232323"/>
<path d="M138.073 20.352C138.073 20.352 133.873 34.9962 135.065 35.7057C136.257 36.4152 146.474 38.118 148.034 36.4152C149.595 34.7407 152.49 27.5322 151.752 25.2617C151.014 22.9913 142.614 19.0465 138.073 20.352Z" fill="#FFBF85"/>
<path d="M135.433 20.6925C134.241 20.0114 133.758 17.3153 134.042 15.6409C134.099 15.3287 134.184 15.0165 134.354 14.7327C135.319 12.9447 137.476 12.5758 139.179 13.2285C143.833 10.4189 147.04 12.8312 148.573 14.9313C149.481 16.1801 150.872 16.9747 152.404 17.1734C152.688 17.2018 152.972 17.2585 153.227 17.3153C153.738 17.4288 154.277 17.5991 154.618 17.9964C154.93 18.4221 154.873 19.16 154.362 19.3303C156.179 19.6141 157.995 20.7777 158.506 22.5372C158.818 23.5589 158.676 24.6374 158.534 25.6875C158.421 26.624 158.279 27.6458 157.683 28.3835C156.803 29.5188 155.185 29.7743 153.766 29.9445C153.539 30.881 152.433 31.477 151.524 31.1648C150.247 29.604 149.935 27.3335 150.73 25.4605C149.481 24.836 148.459 23.8143 147.807 22.594C147.778 22.594 138.64 22.5372 135.433 20.6925Z" fill="#2F5373"/>
<path d="M139.009 32.8678C138.527 32.8678 137.988 32.6975 137.534 32.4138C137.448 32.357 137.42 32.2153 137.477 32.13C137.534 32.0448 137.675 32.0165 137.761 32.0733C138.328 32.4423 139.038 32.584 139.52 32.3855C139.832 32.2435 140.059 31.988 140.145 31.6193C140.173 31.5055 140.286 31.4205 140.4 31.4488C140.513 31.4773 140.599 31.5908 140.57 31.7043C140.457 32.2153 140.145 32.584 139.69 32.7828C139.463 32.8395 139.236 32.8678 139.009 32.8678Z" fill="#232323"/>
<path d="M139.548 29.8595C139.52 29.8595 139.52 29.8595 139.492 29.8595C139.038 29.7742 137.533 29.4052 137.42 28.6957C137.306 28.0715 138.896 25.943 139.378 25.2902C139.463 25.205 139.577 25.1767 139.69 25.2617C139.775 25.347 139.804 25.4605 139.719 25.574C138.782 26.7945 137.789 28.327 137.846 28.639C137.902 28.923 138.782 29.2635 139.605 29.4337C139.719 29.462 139.804 29.5757 139.775 29.6892C139.747 29.7742 139.662 29.8595 139.548 29.8595Z" fill="#232323"/>
<path d="M139.492 76.3177L140.4 78.1342L142.443 78.4465L140.967 79.8655L141.308 81.8805L139.492 80.9155L137.704 81.8805L138.044 79.8655L136.568 78.4465L138.612 78.1342L139.492 76.3177Z" fill="#F3DF88"/>
<path d="M147.693 76.3177L148.601 78.1342L150.616 78.4465L149.169 79.8655L149.509 81.8805L147.693 80.9155L145.877 81.8805L146.217 79.8655L144.77 78.4465L146.785 78.1342L147.693 76.3177Z" fill="#F3DF88"/>
<path d="M155.895 76.3177L156.775 78.1342L158.818 78.4465L157.342 79.8655L157.683 81.8805L155.895 80.9155L154.079 81.8805L154.419 79.8655L152.943 78.4465L154.987 78.1342L155.895 76.3177Z" fill="#F3DF88"/>
<path d="M164.068 76.3177L164.976 78.1342L166.991 78.4465L165.544 79.8655L165.884 81.8805L164.068 80.9155L162.251 81.8805L162.592 79.8655L161.145 78.4465L163.16 78.1342L164.068 76.3177Z" fill="#F3DF88"/>
<path d="M172.27 76.3177L173.15 78.1342L175.193 78.4465L173.717 79.8655L174.058 81.8805L172.27 80.9155L170.453 81.8805L170.794 79.8655L169.318 78.4465L171.362 78.1342L172.27 76.3177Z" fill="#F3DF88"/>
<path d="M148.375 111.537H138.441V118.178H148.375V111.537Z" fill="#FFC7A8"/>
<path d="M148.375 119.456H138.441V120.761H148.375V119.456Z" fill="#F1F2F2"/>
<path d="M160.861 111.537H150.928V118.178H160.861V111.537Z" fill="#F3E6DE"/>
<path d="M160.861 119.456H150.928V120.761H160.861V119.456Z" fill="#F1F2F2"/>
<path d="M173.32 111.537H163.387V118.178H173.32V111.537Z" fill="#FFC7A8"/>
<path d="M173.32 119.456H163.387V120.761H173.32V119.456Z" fill="#F1F2F2"/>
<path d="M148.375 98.3978H138.441V105.039H148.375V98.3978Z" fill="#F3E6DE"/>
<path d="M148.375 106.344H138.441V107.65H148.375V106.344Z" fill="#F1F2F2"/>
<path d="M160.861 98.3978H150.928V105.039H160.861V98.3978Z" fill="#FFC7A8"/>
<path d="M160.861 106.344H150.928V107.65H160.861V106.344Z" fill="#F1F2F2"/>
<path d="M173.32 98.3978H163.387V105.039H173.32V98.3978Z" fill="#F3E6DE"/>
<path d="M173.32 106.344H163.387V107.65H173.32V106.344Z" fill="#F1F2F2"/>
<path d="M148.375 85.286H138.441V91.9268H148.375V85.286Z" fill="#F3E6DE"/>
<path d="M148.375 93.2322H138.441V94.5377H148.375V93.2322Z" fill="#F1F2F2"/>
<path d="M160.861 85.286H150.928V91.9268H160.861V85.286Z" fill="#F3E6DE"/>
<path d="M160.861 93.2322H150.928V94.5377H160.861V93.2322Z" fill="#F1F2F2"/>
<path d="M173.32 85.286H163.387V91.9268H173.32V85.286Z" fill="#FFC7A8"/>
<path d="M173.32 93.2322H163.387V94.5377H173.32V93.2322Z" fill="#F1F2F2"/>
<path d="M148.375 95.4742H138.441V96.127H148.375V95.4742Z" fill="#F1F2F2"/>
<path d="M160.861 95.4742H150.928V96.127H160.861V95.4742Z" fill="#F1F2F2"/>
<path d="M173.32 95.4742H163.387V96.127H173.32V95.4742Z" fill="#F1F2F2"/>
<path d="M148.375 108.586H138.441V109.239H148.375V108.586Z" fill="#F1F2F2"/>
<path d="M160.861 108.586H150.928V109.239H160.861V108.586Z" fill="#F1F2F2"/>
<path d="M173.32 108.586H163.387V109.239H173.32V108.586Z" fill="#F1F2F2"/>
<path d="M148.375 121.839H138.441V122.492H148.375V121.839Z" fill="#F1F2F2"/>
<path d="M160.861 121.839H150.928V122.492H160.861V121.839Z" fill="#F1F2F2"/>
<path d="M173.32 121.839H163.387V122.492H173.32V121.839Z" fill="#F1F2F2"/>
<path d="M65.5602 9H63.8574V9.5676H65.5602V9Z" fill="#FFC7A8"/>
<path d="M113.92 9.5676H110.458V9H113.92V9.5676ZM107.024 9.5676H103.561V9H107.024V9.5676ZM100.099 9.5676H96.6364V9H100.099V9.5676ZM93.2024 9.5676H89.7401V9H93.2024V9.5676ZM86.2776 9.5676H82.8154V9H86.2776V9.5676ZM79.3814 9.5676H75.9189V9H79.3814V9.5676ZM72.4566 9.5676H68.9941V9H72.4566V9.5676Z" fill="#FFC7A8"/>
<path d="M119.086 9H117.383V9.5676H119.086V9Z" fill="#FFC7A8"/>
<path d="M60.7924 139.606C60.8206 139.634 60.8774 139.634 60.9059 139.663C60.9626 139.691 61.0194 139.719 61.0761 139.719C61.1329 139.719 61.1896 139.719 61.2464 139.719C61.3031 139.719 61.3599 139.691 61.3881 139.634C61.4451 139.606 61.4734 139.577 61.5019 139.521C61.5301 139.492 61.5301 139.464 61.5586 139.407C61.5869 139.322 61.5869 139.265 61.5586 139.18C61.5301 139.152 61.5301 139.123 61.5019 139.067C61.4734 139.01 61.4166 138.953 61.3599 138.925C61.3314 138.896 61.2746 138.896 61.2464 138.868C61.1896 138.84 61.1329 138.811 61.0761 138.811C61.0194 138.811 60.9626 138.811 60.9059 138.811C60.8491 138.811 60.7924 138.84 60.7639 138.896C60.7071 138.925 60.6786 138.953 60.6504 139.01C60.6219 139.038 60.6219 139.067 60.5936 139.123C60.5651 139.208 60.5651 139.265 60.5936 139.35C60.6219 139.379 60.6219 139.407 60.6504 139.464C60.6786 139.521 60.7354 139.577 60.7924 139.606Z" fill="#2F5373"/>
<path d="M65.049 137.704C65.5882 137.704 65.5882 136.853 65.049 136.853C64.5097 136.853 64.5097 137.704 65.049 137.704Z" fill="#2F5373"/>
<path d="M71.2658 139.634C71.805 139.634 71.805 138.782 71.2658 138.782C70.7265 138.782 70.7265 139.634 71.2658 139.634Z" fill="#2F5373"/>
<path d="M84.8869 138.84C85.4261 138.84 85.4261 137.988 84.8869 137.988C84.3476 137.988 84.3476 138.84 84.8869 138.84Z" fill="#2F5373"/>
<path d="M87.7267 140.117C88.266 140.117 88.266 139.265 87.7267 139.265C87.1875 139.265 87.1875 140.117 87.7267 140.117Z" fill="#2F5373"/>
<path d="M81.5108 139.038C82.0501 139.038 82.0501 138.187 81.5108 138.187C80.9716 138.187 80.9433 139.038 81.5108 139.038Z" fill="#2F5373"/>
<path d="M69.7326 136.427C70.2718 136.427 70.2718 135.576 69.7326 135.576C69.1933 135.576 69.1933 136.427 69.7326 136.427Z" fill="#2F5373"/>
<path d="M84.633 136.995C85.172 136.995 85.172 136.143 84.633 136.143C84.0937 136.143 84.0937 136.995 84.633 136.995Z" fill="#2F5373"/>
<path d="M89.5702 137.137C90.1094 137.137 90.1094 136.285 89.5702 136.285C89.0027 136.285 89.0027 137.137 89.5702 137.137Z" fill="#2F5373"/>
<path d="M73.535 138.045C74.0742 138.045 74.0742 137.193 73.535 137.193C72.9675 137.193 72.9675 138.045 73.535 138.045Z" fill="#2F5373"/>
<path d="M78.8418 137.279C79.3811 137.279 79.3811 136.427 78.8418 136.427C78.2741 136.427 78.2741 137.279 78.8418 137.279Z" fill="#2F5373"/>
<path d="M77.5939 139.889C78.1331 139.889 78.1331 139.038 77.5939 139.038C77.0546 139.038 77.0546 139.889 77.5939 139.889Z" fill="#2F5373"/>
<path d="M92.408 139.35C92.9473 139.35 92.9473 138.499 92.408 138.499C91.8405 138.499 91.8405 139.35 92.408 139.35Z" fill="#2F5373"/>
<path d="M73.9337 141.025C74.473 141.025 74.473 140.173 73.9337 140.173C73.3945 140.173 73.3945 141.025 73.9337 141.025Z" fill="#2F5373"/>
<path d="M97.3751 136.143C97.9144 136.143 97.9144 135.292 97.3751 135.292C96.8359 135.292 96.8359 136.143 97.3751 136.143Z" fill="#2F5373"/>
<path d="M103.932 140.06C104.471 140.06 104.471 139.208 103.932 139.208C103.364 139.208 103.364 140.06 103.932 140.06Z" fill="#2F5373"/>
<path d="M61.5584 136.342C62.0977 136.342 62.0977 135.491 61.5584 135.491C60.9909 135.491 60.9909 136.342 61.5584 136.342Z" fill="#2F5373"/>
<path d="M97.3751 138.811C97.9144 138.811 97.9144 137.96 97.3751 137.96C96.8359 137.96 96.8359 138.811 97.3751 138.811Z" fill="#2F5373"/>
<path d="M100.922 139.294C101.461 139.294 101.461 138.442 100.922 138.442C100.383 138.442 100.383 139.294 100.922 139.294Z" fill="#2F5373"/>
<path d="M94.7365 140.599C95.2757 140.599 95.2757 139.747 94.7365 139.747C94.1972 139.747 94.1972 140.599 94.7365 140.599Z" fill="#2F5373"/>
<path d="M99.8439 135.916C100.383 135.916 100.383 135.065 99.8439 135.065C99.3046 135.065 99.3046 135.916 99.8439 135.916Z" fill="#2F5373"/>
<path d="M102.994 136.03C103.534 136.03 103.534 135.178 102.994 135.178C102.455 135.178 102.455 136.03 102.994 136.03Z" fill="#2F5373"/>
<path d="M64.6522 140.117C65.1914 140.117 65.1914 139.265 64.6522 139.265C64.0847 139.265 64.0847 140.117 64.6522 140.117Z" fill="#2F5373"/>
<path d="M68.7403 139.35C69.2795 139.35 69.2795 138.499 68.7403 138.499C68.1725 138.499 68.1725 139.35 68.7403 139.35Z" fill="#2F5373"/>
<path d="M95.1603 131.518C95.6993 131.518 95.6993 130.666 95.1603 130.666C94.621 130.666 94.621 131.518 95.1603 131.518Z" fill="#2F5373"/>
<path d="M98.1408 131.716C98.68 131.716 98.68 130.865 98.1408 130.865C97.6015 130.865 97.6015 131.716 98.1408 131.716Z" fill="#2F5373"/>
<path d="M99.3048 126.182C99.8441 126.182 99.8441 125.33 99.3048 125.33C98.7656 125.33 98.7656 126.182 99.3048 126.182Z" fill="#2F5373"/>
<path d="M101.887 130.24C102.426 130.24 102.426 129.389 101.887 129.389C101.319 129.389 101.319 130.24 101.887 130.24Z" fill="#2F5373"/>
<path d="M107.309 122.123C107.848 122.123 107.848 121.272 107.309 121.272C106.769 121.272 106.769 122.123 107.309 122.123Z" fill="#2F5373"/>
<path d="M98.1408 118.519C98.68 118.519 98.68 117.668 98.1408 117.668C97.6015 117.668 97.6015 118.519 98.1408 118.519Z" fill="#2F5373"/>
<path d="M101.973 123.315C102.512 123.315 102.512 122.464 101.973 122.464C101.434 122.464 101.434 123.315 101.973 123.315Z" fill="#2F5373"/>
<path d="M104.328 116.05C104.867 116.05 104.867 115.199 104.328 115.199C103.789 115.199 103.789 116.05 104.328 116.05Z" fill="#2F5373"/>
<path d="M93.5721 135.462C94.1114 135.462 94.1114 134.61 93.5721 134.61C93.0046 134.61 93.0046 135.462 93.5721 135.462Z" fill="#2F5373"/>
<path d="M86.3068 131.829C86.846 131.829 86.846 130.978 86.3068 130.978C85.7675 130.978 85.7675 131.829 86.3068 131.829Z" fill="#2F5373"/>
<path d="M92.8048 128.112C93.3441 128.112 93.3441 127.26 92.8048 127.26C92.2656 127.26 92.2656 128.112 92.8048 128.112Z" fill="#2F5373"/>
<path d="M108.699 116.164C109.239 116.164 109.239 115.312 108.699 115.312C108.16 115.312 108.16 116.164 108.699 116.164Z" fill="#2F5373"/>
<path d="M113.92 117.866C114.459 117.866 114.459 117.015 113.92 117.015C113.381 117.015 113.381 117.866 113.92 117.866Z" fill="#2F5373"/>
<path d="M111.678 109.665C112.217 109.665 112.217 108.813 111.678 108.813C111.139 108.813 111.139 109.665 111.678 109.665Z" fill="#2F5373"/>
<path d="M116.589 98.9935C117.128 98.9935 117.128 98.142 116.589 98.142C116.05 98.142 116.021 98.9935 116.589 98.9935Z" fill="#2F5373"/>
<path d="M109.125 104.982C109.664 104.982 109.664 104.13 109.125 104.13C108.586 104.13 108.586 104.982 109.125 104.982Z" fill="#2F5373"/>
<path d="M102.738 112.644C103.277 112.644 103.277 111.793 102.738 111.793C102.171 111.793 102.171 112.644 102.738 112.644Z" fill="#2F5373"/>
<path d="M116.163 103.052C116.702 103.052 116.702 102.201 116.163 102.201C115.624 102.201 115.595 103.052 116.163 103.052Z" fill="#2F5373"/>
<path d="M116.787 107.422C117.326 107.422 117.326 106.571 116.787 106.571C116.248 106.571 116.248 107.422 116.787 107.422Z" fill="#2F5373"/>
<path d="M118.065 95.276C118.604 95.276 118.604 94.4245 118.065 94.4245C117.525 94.4245 117.525 95.276 118.065 95.276Z" fill="#2F5373"/>
<path d="M119.768 87.0738C120.307 87.0738 120.307 86.2225 119.768 86.2225C119.228 86.2225 119.228 87.0738 119.768 87.0738Z" fill="#2F5373"/>
<path d="M117.865 76.9423C118.405 76.9423 118.405 76.0908 117.865 76.0908C117.326 76.0908 117.326 76.9423 117.865 76.9423Z" fill="#2F5373"/>
<path d="M116.163 81.937C116.702 81.937 116.702 81.0858 116.163 81.0858C115.624 81.0858 115.595 81.937 116.163 81.937Z" fill="#2F5373"/>
<path d="M115.51 88.9753C116.049 88.9753 116.049 88.1238 115.51 88.1238C114.971 88.1238 114.971 88.9753 115.51 88.9753Z" fill="#2F5373"/>
<path d="M112.416 98.9083C112.955 98.9083 112.955 98.057 112.416 98.057C111.877 98.057 111.877 98.9083 112.416 98.9083Z" fill="#2F5373"/>
<path d="M122.436 91.4445C122.975 91.4445 122.975 90.593 122.436 90.593C121.896 90.593 121.896 91.4445 122.436 91.4445Z" fill="#2F5373"/>
<path d="M15.6125 112.645C16.4275 112.645 17.0883 111.984 17.0883 111.169C17.0883 110.353 16.4275 109.693 15.6125 109.693C14.7974 109.693 14.1367 110.353 14.1367 111.169C14.1367 111.984 14.7974 112.645 15.6125 112.645Z" fill="#F3E6DE"/>
<path d="M15.6125 121.357C16.4275 121.357 17.0883 120.696 17.0883 119.881C17.0883 119.066 16.4275 118.406 15.6125 118.406C14.7974 118.406 14.1367 119.066 14.1367 119.881C14.1367 120.696 14.7974 121.357 15.6125 121.357Z" fill="#FFC7A8"/>
<path d="M15.6125 114.489C16.1801 114.489 16.6625 114.943 16.6625 115.539C16.6625 116.107 16.2085 116.589 15.6125 116.589C15.0165 116.589 14.5624 116.135 14.5624 115.539C14.5908 114.972 15.0449 114.489 15.6125 114.489ZM15.6125 114.063C14.7895 114.063 14.1367 114.716 14.1367 115.539C14.1367 116.362 14.7895 117.015 15.6125 117.015C16.4355 117.015 17.0883 116.362 17.0883 115.539C17.0883 114.716 16.4355 114.063 15.6125 114.063Z" fill="#2F5373"/>
<path d="M10.8725 20.6643H5.59375V25.943H10.8725V20.6643Z" fill="#F3E6DE"/>
<path d="M21.4584 20.6643H16.1797V25.943H21.4584V20.6643Z" fill="#F3E6DE"/>
<path d="M16.1791 25.9713H10.9004V31.25H16.1791V25.9713Z" fill="#F3E6DE"/>
<path d="M16.1791 15.3855H10.9004V20.6642H16.1791V15.3855Z" fill="#F3E6DE"/>
<path d="M120.618 23.0764H115.936V27.7592H120.618V23.0764Z" fill="#F3E6DE"/>
<path d="M115.935 27.7593H111.252V32.442H115.935V27.7593Z" fill="#F3E6DE"/>
<path d="M144.4 22.0265C144.4 22.0265 144.06 23.8429 145.11 24.9497C146.16 26.0565 150.985 26.7375 150.985 26.7375L154.05 23.701L148.771 21.0332L144.4 22.0265Z" fill="#2F5373"/>
<path d="M149.054 31.3635C148.941 31.3635 148.856 31.3352 148.799 31.2782C148.231 30.9377 148.004 30.1147 148.061 29.462C148.118 28.866 148.402 28.412 148.827 28.27C148.941 28.2417 149.054 28.2985 149.111 28.3835C149.139 28.497 149.083 28.6107 148.998 28.6675C148.6 28.8092 148.515 29.2917 148.515 29.5187C148.458 30.1147 148.685 30.7392 149.054 30.9377C149.111 30.9662 149.253 30.9095 149.423 30.7675C150.218 30.0865 151.211 27.816 150.785 26.8227C150.7 26.624 150.558 26.482 150.36 26.4252C149.735 26.255 148.629 26.9077 148.288 27.1632C148.203 27.22 148.061 27.22 148.004 27.1065C147.947 27.0212 147.947 26.8795 148.061 26.8227C148.118 26.766 149.537 25.7442 150.502 25.9997C150.814 26.0847 151.069 26.3117 151.211 26.6525C151.722 27.8442 150.672 30.285 149.735 31.0797C149.423 31.3067 149.225 31.3635 149.054 31.3635Z" fill="#232323"/>
<path d="M149.054 31.3635C148.941 31.3635 148.856 31.3352 148.799 31.2782C148.231 30.9377 148.004 30.1147 148.061 29.462C148.118 28.866 148.402 28.412 148.827 28.27C148.941 28.2417 149.054 28.2985 149.111 28.3835C149.139 28.497 149.083 28.6107 148.998 28.6675C148.6 28.8092 148.515 29.2917 148.515 29.5187C148.458 30.1147 148.685 30.7392 149.054 30.9377C149.111 30.9662 149.253 30.9095 149.423 30.7675C150.218 30.0865 151.211 27.816 150.785 26.8227C150.7 26.624 150.558 26.482 150.36 26.4252C149.735 26.255 148.629 26.9077 148.288 27.1632C148.203 27.22 148.061 27.22 148.004 27.1065C147.947 27.0212 147.947 26.8795 148.061 26.8227C148.118 26.766 149.537 25.7442 150.502 25.9997C150.814 26.0847 151.069 26.3117 151.211 26.6525C151.722 27.8442 150.672 30.285 149.735 31.0797C149.423 31.3067 149.225 31.3635 149.054 31.3635Z" fill="#232323"/>
<path d="M8.85791 94.339C8.74438 94.339 8.63086 94.254 8.63086 94.112V92.9768C8.63086 92.8633 8.71601 92.7498 8.85791 92.7498C8.99981 92.7498 9.08496 92.835 9.08496 92.9768V94.112C9.08496 94.254 8.97143 94.339 8.85791 94.339ZM8.85791 92.0688C8.74438 92.0688 8.63086 91.9835 8.63086 91.8415V90.7065C8.63086 90.593 8.71601 90.4793 8.85791 90.4793C8.99981 90.4793 9.08496 90.5645 9.08496 90.7065V91.8415C9.08496 91.9835 8.97143 92.0688 8.85791 92.0688ZM8.85791 89.7983C8.74438 89.7983 8.63086 89.713 8.63086 89.5713V88.436C8.63086 88.3225 8.71601 88.209 8.85791 88.209C8.99981 88.209 9.08496 88.294 9.08496 88.436V89.5713C9.08496 89.713 8.97143 89.7983 8.85791 89.7983ZM8.85791 87.5278C8.74438 87.5278 8.63086 87.4428 8.63086 87.3008V86.1655C8.63086 86.052 8.71601 85.9385 8.85791 85.9385C8.99981 85.9385 9.08496 86.0238 9.08496 86.1655V87.3008C9.08496 87.4428 8.97143 87.5278 8.85791 87.5278ZM8.85791 85.2575C8.74438 85.2575 8.63086 85.1723 8.63086 85.0303V83.8953C8.63086 83.7818 8.71601 83.668 8.85791 83.668C8.99981 83.668 9.08496 83.7533 9.08496 83.8953V85.0303C9.08496 85.1723 8.97143 85.2575 8.85791 85.2575ZM8.85791 82.987C8.74438 82.987 8.63086 82.9018 8.63086 82.76V81.6248C8.63086 81.5113 8.71601 81.3978 8.85791 81.3978C8.99981 81.3978 9.08496 81.4828 9.08496 81.6248V82.76C9.08496 82.9018 8.97143 82.987 8.85791 82.987Z" fill="#2F5373"/>
<path d="M8.85791 81.852C8.74438 81.852 8.63086 81.7667 8.63086 81.6247V53.4432C8.63086 53.3297 8.71601 53.2162 8.85791 53.2162C8.99981 53.2162 9.08496 53.3015 9.08496 53.4432V81.6247C9.08496 81.7667 8.97143 81.852 8.85791 81.852Z" fill="#2F5373"/>
<path d="M8.85802 78.3895H5.79297V44.8442H8.85802C8.97154 44.8442 9.08507 44.9295 9.08507 45.0712C9.08507 45.2132 8.99992 45.2982 8.85802 45.2982H6.21867V77.964H8.85802C8.97154 77.964 9.08507 78.049 9.08507 78.191C9.08507 78.3327 8.97154 78.3895 8.85802 78.3895Z" fill="#2F5373"/>
<path d="M9.19859 45.6673C9.54342 45.6673 9.82297 45.3878 9.82297 45.0428C9.82297 44.698 9.54342 44.4185 9.19859 44.4185C8.85377 44.4185 8.57422 44.698 8.57422 45.0428C8.57422 45.3878 8.85377 45.6673 9.19859 45.6673Z" fill="#F3E6DE"/>
<path d="M8.8568 96.723C9.20162 96.723 9.48115 96.4435 9.48115 96.0987C9.48115 95.754 9.20162 95.4742 8.8568 95.4742C8.51197 95.4742 8.23242 95.754 8.23242 96.0987C8.23242 96.4435 8.51197 96.723 8.8568 96.723Z" fill="#F3E6DE"/>
<path d="M128.934 124.394C128.821 124.394 128.707 124.309 128.707 124.167V123.032C128.707 122.918 128.792 122.805 128.934 122.805C129.076 122.805 129.161 122.89 129.161 123.032V124.167C129.161 124.309 129.076 124.394 128.934 124.394ZM128.934 122.124C128.821 122.124 128.707 122.039 128.707 121.897V120.761C128.707 120.648 128.792 120.534 128.934 120.534C129.076 120.534 129.161 120.62 129.161 120.761V121.897C129.161 122.039 129.076 122.124 128.934 122.124ZM128.934 119.853C128.821 119.853 128.707 119.768 128.707 119.626V118.491C128.707 118.378 128.792 118.264 128.934 118.264C129.076 118.264 129.161 118.349 129.161 118.491V119.626C129.161 119.768 129.076 119.853 128.934 119.853ZM128.934 117.583C128.821 117.583 128.707 117.498 128.707 117.356V116.221C128.707 116.107 128.792 115.994 128.934 115.994C129.076 115.994 129.161 116.079 129.161 116.221V117.356C129.161 117.498 129.076 117.583 128.934 117.583ZM128.934 115.312C128.821 115.312 128.707 115.227 128.707 115.085V113.95C128.707 113.837 128.792 113.723 128.934 113.723C129.076 113.723 129.161 113.808 129.161 113.95V115.085C129.161 115.227 129.076 115.312 128.934 115.312ZM128.934 113.042C128.821 113.042 128.707 112.957 128.707 112.815V111.68C128.707 111.566 128.792 111.453 128.934 111.453C129.076 111.453 129.161 111.538 129.161 111.68V112.815C129.161 112.957 129.076 113.042 128.934 113.042Z" fill="#2F5373"/>
<path d="M128.934 111.907C128.821 111.907 128.707 111.821 128.707 111.679V101.065C128.707 100.952 128.792 100.838 128.934 100.838C129.076 100.838 129.161 100.923 129.161 101.065V111.679C129.161 111.821 129.076 111.907 128.934 111.907Z" fill="#2F5373"/>
<path d="M128.933 126.778C129.278 126.778 129.557 126.498 129.557 126.153C129.557 125.808 129.278 125.529 128.933 125.529C128.588 125.529 128.309 125.808 128.309 126.153C128.309 126.498 128.588 126.778 128.933 126.778Z" fill="#FFC7A8"/>
<path d="M131.687 91.5013C132.032 91.5013 132.311 91.2217 132.311 90.8767C132.311 90.532 132.032 90.2525 131.687 90.2525C131.342 90.2525 131.062 90.532 131.062 90.8767C131.062 91.2217 131.342 91.5013 131.687 91.5013Z" fill="#2F5373"/>
<path d="M8.8568 54.0113C9.20162 54.0113 9.48115 53.7318 9.48115 53.3868C9.48115 53.042 9.20162 52.7625 8.8568 52.7625C8.51197 52.7625 8.23242 53.042 8.23242 53.3868C8.23242 53.7318 8.51197 54.0113 8.8568 54.0113Z" fill="#F3E6DE"/>
<path d="M131.686 104.045C131.572 104.045 131.459 103.96 131.459 103.818V93.204C131.459 93.0905 131.544 92.977 131.686 92.977C131.828 92.977 131.913 93.0622 131.913 93.204V103.818C131.913 103.932 131.799 104.045 131.686 104.045Z" fill="#2F5373"/>
<path d="M35.8754 122.578C35.7619 122.578 35.6484 122.493 35.6484 122.351V111.736C35.6484 111.623 35.7337 111.509 35.8754 111.509C36.0174 111.509 36.1027 111.595 36.1027 111.736V122.351C36.1027 122.464 35.9892 122.578 35.8754 122.578Z" fill="#2F5373"/>
<path d="M35.8754 108.955C35.7619 108.955 35.6484 108.87 35.6484 108.728V107.593C35.6484 107.479 35.7337 107.366 35.8754 107.366C36.0174 107.366 36.1027 107.451 36.1027 107.593V108.728C36.1027 108.841 35.9892 108.955 35.8754 108.955ZM35.8754 106.685C35.7619 106.685 35.6484 106.599 35.6484 106.457V105.322C35.6484 105.209 35.7337 105.095 35.8754 105.095C36.0174 105.095 36.1027 105.18 36.1027 105.322V106.457C36.1027 106.571 35.9892 106.685 35.8754 106.685ZM35.8754 104.414C35.7619 104.414 35.6484 104.329 35.6484 104.187V103.052C35.6484 102.938 35.7337 102.825 35.8754 102.825C36.0174 102.825 36.1027 102.91 36.1027 103.052V104.187C36.1027 104.3 35.9892 104.414 35.8754 104.414ZM35.8754 102.144C35.7619 102.144 35.6484 102.058 35.6484 101.916V100.782C35.6484 100.668 35.7337 100.554 35.8754 100.554C36.0174 100.554 36.1027 100.64 36.1027 100.782V101.916C36.1027 102.03 35.9892 102.144 35.8754 102.144ZM35.8754 99.8733C35.7619 99.8733 35.6484 99.788 35.6484 99.6462V98.511C35.6484 98.3975 35.7337 98.284 35.8754 98.284C36.0174 98.284 36.1027 98.369 36.1027 98.511V99.6462C36.1027 99.7597 35.9892 99.8733 35.8754 99.8733Z" fill="#2F5373"/>
<path d="M8.06252 135.036H2.5V140.599H8.06252V135.036Z" fill="#F3E6DE"/>
<path d="M16.5762 135.036H11.0137V140.599H16.5762V135.036Z" fill="#FFC7A8"/>
<path d="M187.073 119.535L185.527 121.08L187.073 122.626L188.618 121.08L187.073 119.535Z" fill="#FFC7A8"/>
<path d="M189.702 116.88L188.156 118.425L189.702 119.97L191.247 118.425L189.702 116.88Z" fill="#FFC7A8"/>
<path d="M189.901 122.372L188.355 123.917L189.901 125.462L191.446 123.917L189.901 122.372Z" fill="#FFC7A8"/>
<path d="M192.549 119.736L191.004 121.281L192.549 122.826L194.094 121.281L192.549 119.736Z" fill="#FFC7A8"/>
</svg>
