<svg width="200" height="150" viewBox="0 0 200 150" fill="none" xmlns="http://www.w3.org/2000/svg">
<path d="M107.642 85.2913H92.4844V107.647H107.642V85.2913Z" fill="#C9E3F2"/>
<path d="M107.642 85.2915H92.4844V107.648H107.642V85.2915Z" fill="black" fill-opacity="0.3"/>
<path d="M107.642 85.2915H92.4844V92.9433H107.642V85.2915Z" fill="black" fill-opacity="0.3"/>
<path d="M107.642 104.497H92.4844V107.432H107.642V104.497Z" fill="black" fill-opacity="0.3"/>
<path d="M184.169 69.1927V87.8483C184.169 89.7783 182.599 91.3483 180.669 91.3483H177.707" stroke="#4F96B3" stroke-width="0.5" stroke-miterlimit="10" stroke-linecap="round"/>
<path d="M101.973 33.8547H180.668C182.598 33.8547 184.168 35.425 184.168 37.3547V46.2562" stroke="#4F96B3" stroke-width="0.5" stroke-miterlimit="10" stroke-linecap="round"/>
<path d="M88.2412 91.3482H19.459C17.5291 91.3482 15.959 89.7782 15.959 87.8482V37.3547C15.959 35.425 17.5291 33.8547 19.459 33.8547H77.176" stroke="#4F96B3" stroke-width="0.5" stroke-miterlimit="10" stroke-linecap="round"/>
<path d="M164.208 91.3483H112.984" stroke="#4F96B3" stroke-width="0.5" stroke-miterlimit="10" stroke-linecap="round"/>
<path d="M122.899 108.564H77.2305C77.2305 107.085 78.43 105.885 79.9095 105.885H120.22C121.7 105.885 122.899 107.085 122.899 108.564Z" fill="#C9E3F2"/>
<path d="M180.669 88.8482H19.459C18.9067 88.8482 18.459 88.4005 18.459 87.8482V37.3547C18.459 36.8025 18.9067 36.3547 19.459 36.3547H180.669C181.222 36.3547 181.669 36.8025 181.669 37.3547V87.8482C181.669 88.4005 181.222 88.8482 180.669 88.8482Z" fill="#4F96B3"/>
<path d="M85.3809 133.37H157.053" stroke="#4F96B3" stroke-width="0.5" stroke-miterlimit="10" stroke-linecap="round"/>
<path d="M6.53711 133.37H23.4494" stroke="#464C4C" stroke-width="0.5" stroke-miterlimit="10" stroke-linecap="round"/>
<path opacity="0.8" d="M160.062 59.223H120.816C120.261 59.223 119.811 58.773 119.811 58.2175V31.138C119.811 30.5825 120.261 30.1323 120.816 30.1323H160.062C160.618 30.1323 161.068 30.5825 161.068 31.138V58.2175C161.068 58.773 160.618 59.223 160.062 59.223Z" fill="#C9E3F2"/>
<path d="M98.706 58.1808H69.9195C69.3653 58.1808 68.916 57.7315 68.916 57.1773V51.0033C68.916 50.449 69.3653 49.9998 69.9195 49.9998H98.706C99.2603 49.9998 99.7095 50.449 99.7095 51.0033V57.1773C99.7095 57.7315 99.2603 58.1808 98.706 58.1808Z" fill="#C9E3F2"/>
<path opacity="0.4" d="M98.706 69.6842H69.9195C69.3653 69.6842 68.916 69.235 68.916 68.6807V62.5067C68.916 61.9525 69.3653 61.5032 69.9195 61.5032H98.706C99.2603 61.5032 99.7095 61.9525 99.7095 62.5067V68.6807C99.7095 69.235 99.2603 69.6842 98.706 69.6842Z" fill="#C9E3F2"/>
<path d="M69.1437 39.8127H21.5156V40.8162H69.1437V39.8127Z" fill="#464C4C"/>
<path d="M66.488 43.21H24.1719V58.1808H66.488V43.21Z" fill="black"/>
<path d="M65.7655 75.462H21.5156V76.4655H65.7655V75.462Z" fill="black"/>
<path d="M65.7655 77.8558H21.5156V78.8593H65.7655V77.8558Z" fill="black"/>
<path d="M139.449 73.0067H110.622C110.077 73.0067 109.635 72.5647 109.635 72.0192V65.8132C109.635 65.268 110.077 64.8257 110.622 64.8257H139.449C139.995 64.8257 140.437 65.268 140.437 65.8132V72.0192C140.437 72.5647 139.995 73.0067 139.449 73.0067Z" fill="#C9E3F2"/>
<path opacity="0.4" d="M160.306 73.0692H146.383C145.962 73.0692 145.621 72.7282 145.621 72.3077V65.525C145.621 65.1045 145.962 64.7637 146.383 64.7637H160.306C160.727 64.7637 161.068 65.1045 161.068 65.525V72.3077C161.068 72.7282 160.727 73.0692 160.306 73.0692Z" fill="#C9E3F2"/>
<path d="M159.535 86.1097H141.938C141.163 86.1097 140.535 85.4818 140.535 84.707V77.0875C140.535 76.313 141.163 75.685 141.938 75.685H159.535C160.31 75.685 160.938 76.313 160.938 77.0875V84.707C160.938 85.4818 160.31 86.1097 159.535 86.1097Z" stroke="#4F96B3" stroke-width="0.5" stroke-miterlimit="10"/>
<path d="M190.195 66.6588H167.247C166.237 66.6588 165.418 66.0308 165.418 65.2563V57.6365C165.418 56.862 166.237 56.234 167.247 56.234H190.195C191.205 56.234 192.024 56.862 192.024 57.6365V65.2563C192.024 66.0308 191.205 66.6588 190.195 66.6588Z" stroke="#4F96B3" stroke-width="0.5" stroke-miterlimit="10"/>
<path d="M119.812 75.7073H109.635V76.7108H119.812V75.7073Z" fill="#C9E3F2"/>
<path d="M119.812 78.1008H109.635V79.1043H119.812V78.1008Z" fill="#C9E3F2"/>
<path d="M114.741 58.692H104.564V59.6955H114.741V58.692Z" fill="#C9E3F2"/>
<path d="M114.741 61.0858H104.564V62.0893H114.741V61.0858Z" fill="#C9E3F2"/>
<path d="M114.741 52.5557H104.564V53.5592H114.741V52.5557Z" fill="#C9E3F2"/>
<path d="M114.741 54.9495H104.564V55.953H114.741V54.9495Z" fill="#C9E3F2"/>
<path d="M114.741 46.4197H104.564V47.4232H114.741V46.4197Z" fill="#C9E3F2"/>
<path d="M114.741 48.8132H104.564V49.8167H114.741V48.8132Z" fill="#C9E3F2"/>
<path d="M114.741 40.2835H104.564V41.287H114.741V40.2835Z" fill="#C9E3F2"/>
<path d="M114.741 42.677H104.564V43.6808H114.741V42.677Z" fill="#C9E3F2"/>
<path d="M60.0364 126.744H49.8594V127.748H60.0364V126.744Z" fill="#C9E3F2"/>
<path d="M60.0364 129.138H49.8594V130.141H60.0364V129.138Z" fill="#C9E3F2"/>
<path d="M186.13 50.3027H165.418V51.3062H186.13V50.3027Z" fill="#C9E3F2"/>
<path d="M192.025 52.6965H171.312V53.7H192.025V52.6965Z" fill="#C9E3F2"/>
<path d="M78.3443 18.6695H19.2832C18.7309 18.6695 18.2832 18.2218 18.2832 17.6695V15.5C18.2832 14.9477 18.7309 14.5 19.2832 14.5H78.3443C78.8968 14.5 79.3443 14.9477 79.3443 15.5V17.6695C79.3443 18.2218 78.8968 18.6695 78.3443 18.6695Z" fill="black"/>
<path opacity="0.4" d="M69.53 73.0068H99.0528C99.4035 73.0068 99.688 73.2913 99.688 73.6423V80.4273C99.688 80.778 99.4035 81.0625 99.0528 81.0625H69.53C69.179 81.0625 68.8945 80.778 68.8945 80.4273V73.6423C68.8945 73.2913 69.179 73.0068 69.53 73.0068Z" fill="#C9E3F2"/>
<path d="M28.4258 24.1597H57.9425C58.4948 24.1597 58.9425 24.6074 58.9425 25.1597V121.304C58.9425 121.856 58.4948 122.304 57.9425 122.304H28.4258C27.8735 122.304 27.4258 121.856 27.4258 121.304V25.1597C27.4258 24.6074 27.8735 24.1597 28.4258 24.1597Z" fill="#C9E3F2"/>
<path d="M34.9277 32.3745H51.4415C51.9937 32.3745 52.4415 32.8223 52.4415 33.3745V36.1618C52.4415 36.714 51.9937 37.1618 51.4415 37.1618H34.9277C34.3755 37.1618 33.9277 36.714 33.9277 36.1618V33.3745C33.9277 32.8223 34.3755 32.3745 34.9277 32.3745Z" fill="black"/>
<path d="M51.6891 45.3743H37.7773V47.1388H51.6891V45.3743Z" fill="black"/>
<path d="M36.4442 45.3743H34.6797V47.1388H36.4442V45.3743Z" fill="black"/>
<path d="M51.6891 49.873H37.7773V51.6377H51.6891V49.873Z" fill="black"/>
<path d="M36.4442 49.873H34.6797V51.6377H36.4442V49.873Z" fill="black"/>
<path d="M51.6891 54.3718H37.7773V56.1365H51.6891V54.3718Z" fill="black"/>
<path d="M36.4442 54.3718H34.6797V56.1365H36.4442V54.3718Z" fill="black"/>
<path d="M51.6891 58.8707H37.7773V60.6352H51.6891V58.8707Z" fill="black"/>
<path d="M36.4442 58.8707H34.6797V60.6352H36.4442V58.8707Z" fill="black"/>
<path d="M51.6891 63.3698H37.7773V65.1342H51.6891V63.3698Z" fill="black"/>
<path d="M36.4442 63.3698H34.6797V65.1342H36.4442V63.3698Z" fill="black"/>
<path d="M51.6891 72.3675H37.7773V74.132H51.6891V72.3675Z" fill="black"/>
<path d="M36.4442 72.3675H34.6797V74.132H36.4442V72.3675Z" fill="black"/>
<path d="M51.6891 76.8663H37.7773V78.631H51.6891V76.8663Z" fill="black"/>
<path d="M36.4442 76.8663H34.6797V78.631H36.4442V76.8663Z" fill="black"/>
<path d="M51.6891 81.3652H37.7773V83.1297H51.6891V81.3652Z" fill="black"/>
<path d="M36.4442 81.3652H34.6797V83.1297H36.4442V81.3652Z" fill="black"/>
<path d="M66.29 114.008H21.0854C19.6349 114.008 18.459 112.832 18.459 111.381V96.6933C18.459 95.2428 19.6349 94.067 21.0854 94.067H66.29C67.7405 94.067 68.9165 95.2428 68.9165 96.6933V111.381C68.9165 112.832 67.7405 114.008 66.29 114.008Z" stroke="#4F96B3" stroke-width="0.5" stroke-miterlimit="10"/>
<path d="M66.29 114.008H21.0854C19.6349 114.008 18.459 112.832 18.459 111.381V96.6933C18.459 95.2428 19.6349 94.067 21.0854 94.067H66.29C67.7405 94.067 68.9165 95.2428 68.9165 96.6933V111.381C68.9165 112.832 67.7405 114.008 66.29 114.008Z" stroke="black" stroke-opacity="0.21" stroke-width="0.5" stroke-miterlimit="10"/>
<path d="M24.4492 96.806H40.9628C41.5153 96.806 41.9628 97.2535 41.9628 97.806V98.5223C41.9628 99.0745 41.5153 99.5223 40.9628 99.5223H24.4492C23.8969 99.5223 23.4492 99.0745 23.4492 98.5223V97.806C23.4492 97.2535 23.8969 96.806 24.4492 96.806Z" fill="#4F96B3"/>
<path d="M63.9249 102.261H26.5469V104.026H63.9249V102.261Z" fill="#4F96B3"/>
<path d="M25.2138 102.261H23.4492V104.026H25.2138V102.261Z" fill="#4F96B3"/>
<path d="M63.9249 106.765H26.5469V108.53H63.9249V106.765Z" fill="#4F96B3"/>
<path d="M25.2138 106.765H23.4492V108.53H25.2138V106.765Z" fill="#4F96B3"/>
<path d="M98.5698 47.2163H80.1836C79.6313 47.2163 79.1836 46.7685 79.1836 46.2163V22.4498C79.1836 21.8976 79.6313 21.4498 80.1836 21.4498H98.5698C99.1223 21.4498 99.5698 21.8976 99.5698 22.4498V46.2163C99.5698 46.7685 99.1223 47.2163 98.5698 47.2163Z" stroke="#FFE458" stroke-width="0.5" stroke-miterlimit="10" stroke-linecap="round"/>
<path d="M97.5698 45.9522H81.1836C80.6313 45.9522 80.1836 45.5045 80.1836 44.9522V23.7137C80.1836 23.1614 80.6313 22.7137 81.1836 22.7137H97.5698C98.1223 22.7137 98.5698 23.1614 98.5698 23.7137V44.9522C98.5698 45.5045 98.1223 45.9522 97.5698 45.9522Z" fill="#C9E3F2"/>
<path d="M140.324 25.9932H119.699V27.349H140.324V25.9932Z" fill="#C9E3F2"/>
<path d="M176.426 68.9165H166.113V70.034H176.426V68.9165Z" fill="#C9E3F2"/>
<path d="M176.426 72.2917H166.113V73.4095H176.426V72.2917Z" fill="#C9E3F2"/>
<path d="M176.426 75.6675H166.113V76.7852H176.426V75.6675Z" fill="#C9E3F2"/>
<path d="M176.426 79.043H166.113V80.1607H176.426V79.043Z" fill="#C9E3F2"/>
<path d="M176.426 82.4185H166.113V83.5363H176.426V82.4185Z" fill="#C9E3F2"/>
<path d="M176.426 85.7943H166.113V86.9118H176.426V85.7943Z" fill="#C9E3F2"/>
<path d="M176.426 89.1697H166.113V90.2875H176.426V89.1697Z" fill="#C9E3F2"/>
<path d="M176.426 92.5452H166.113V93.663H176.426V92.5452Z" fill="#C9E3F2"/>
<path d="M176.426 95.921H166.113V97.0385H176.426V95.921Z" fill="#C9E3F2"/>
<path d="M130.125 91.588H119.812V92.9438H130.125V91.588Z" fill="black"/>
<path d="M130.125 95.6827H119.812V97.0385H130.125V95.6827Z" fill="black"/>
<path d="M99.6818 93.6445H79.0918V95.4655H99.6818V93.6445Z" fill="black"/>
<path d="M99.6818 97.2557H79.0918V99.0767H99.6818V97.2557Z" fill="black"/>
<path d="M140.401 20.3604H119.811V21.6339H140.401V20.3604Z" fill="#C9E3F2"/>
<path d="M140.401 22.8861H119.811V24.1597H140.401V22.8861Z" fill="#C9E3F2"/>
<path d="M181.67 28.9562H171.254V30.5382H181.67V28.9562Z" fill="#C9E3F2"/>
<path d="M181.67 22.6282H160.838V24.2102H181.67V22.6282Z" fill="#C9E3F2"/>
<path d="M181.67 25.7922H160.838V27.3742H181.67V25.7922Z" fill="#C9E3F2"/>
<path d="M111.668 116.717H131.934" stroke="#4F96B3" stroke-width="0.5" stroke-miterlimit="10" stroke-linecap="round"/>
<path d="M117.979 118.705H138.245" stroke="#4F96B3" stroke-width="0.5" stroke-miterlimit="10" stroke-linecap="round"/>
<path d="M89.3779 38.3345C91.8519 38.3345 93.8574 36.329 93.8574 33.855C93.8574 31.381 91.8519 29.3752 89.3779 29.3752C86.9039 29.3752 84.8984 31.381 84.8984 33.855C84.8984 36.329 86.9039 38.3345 89.3779 38.3345Z" stroke="#FFE458" stroke-width="0.5" stroke-miterlimit="10" stroke-linecap="round" stroke-dasharray="2.01 2.01"/>
<path d="M187.909 134.886C188.746 134.886 189.425 134.207 189.425 133.37C189.425 132.533 188.746 131.854 187.909 131.854C187.071 131.854 186.393 132.533 186.393 133.37C186.393 134.207 187.071 134.886 187.909 134.886Z" fill="#C9E3F2"/>
<path d="M193.612 134.886C194.449 134.886 195.128 134.207 195.128 133.37C195.128 132.533 194.449 131.854 193.612 131.854C192.774 131.854 192.096 132.533 192.096 133.37C192.096 134.207 192.774 134.886 193.612 134.886Z" fill="#C9E3F2"/>
<path d="M122.607 32.8563C122.924 32.8563 123.181 32.5993 123.181 32.2823C123.181 31.9653 122.924 31.7083 122.607 31.7083C122.29 31.7083 122.033 31.9653 122.033 32.2823C122.033 32.5993 122.29 32.8563 122.607 32.8563Z" fill="#FFC905"/>
<path d="M124.969 32.8563C125.286 32.8563 125.543 32.5993 125.543 32.2823C125.543 31.9653 125.286 31.7083 124.969 31.7083C124.652 31.7083 124.395 31.9653 124.395 32.2823C124.395 32.5993 124.652 32.8563 124.969 32.8563Z" fill="#FFC905"/>
<path d="M127.33 32.8563C127.647 32.8563 127.904 32.5993 127.904 32.2823C127.904 31.9653 127.647 31.7083 127.33 31.7083C127.013 31.7083 126.756 31.9653 126.756 32.2823C126.756 32.5993 127.013 32.8563 127.33 32.8563Z" fill="#FFC905"/>
<path d="M32.0974 28.086C32.4142 28.086 32.6712 27.8613 32.6712 27.584C32.6712 27.3068 32.4142 27.082 32.0974 27.082C31.7804 27.082 31.5234 27.3068 31.5234 27.584C31.5234 27.8613 31.7804 28.086 32.0974 28.086Z" fill="black"/>
<path d="M34.4607 28.086C34.7777 28.086 35.0347 27.8613 35.0347 27.584C35.0347 27.3068 34.7777 27.082 34.4607 27.082C34.1437 27.082 33.8867 27.3068 33.8867 27.584C33.8867 27.8613 34.1437 28.086 34.4607 28.086Z" fill="black" fill-opacity="0.37"/>
<path d="M36.822 28.086C37.139 28.086 37.396 27.8613 37.396 27.584C37.396 27.3068 37.139 27.082 36.822 27.082C36.505 27.082 36.248 27.3068 36.248 27.584C36.248 27.8613 36.505 28.086 36.822 28.086Z" fill="black" fill-opacity="0.37"/>
<path d="M97.517 131.19H93.1562V135.55H97.517V131.19Z" fill="#C9E3F2"/>
</svg>
