<svg width="200" height="150" viewBox="0 0 200 150" fill="none" xmlns="http://www.w3.org/2000/svg">
<path d="M197.094 34.6285C196.808 37.223 196.408 39.809 195.827 42.3647C195.252 44.9232 194.522 47.4487 193.652 49.9193C191.9 54.86 189.559 59.583 186.72 63.8713C181.065 72.4778 173.61 79.5143 165.062 84.736C161.121 87.121 156.932 89.1068 152.539 90.616L137.193 74.882C139.727 74.389 142.236 73.604 144.665 72.5547C147.788 71.2107 150.765 69.44 153.522 67.3717C156.282 65.3008 158.796 62.899 161.002 60.2855C163.214 57.6748 165.097 54.8322 166.601 51.8745C167.348 50.393 168.02 48.892 168.554 47.358C169.096 45.8268 169.578 44.2842 169.92 42.709C170.614 39.5638 170.953 36.3472 170.881 33.0947C170.818 29.8447 170.396 26.5648 169.622 23.3479C169.242 21.7396 168.771 20.1505 168.234 18.6082C167.964 17.8371 167.681 17.077 167.372 16.3416C167.064 15.6008 166.747 14.9123 166.403 14.2128L193.952 3.75C194.357 5.02523 194.734 6.33343 195.059 7.6057C195.384 8.88643 195.676 10.1587 195.94 11.434C196.458 13.9815 196.849 16.5317 197.108 19.1039C197.617 24.2375 197.65 29.4428 197.094 34.6285Z" fill="#529FA4"/>
<path d="M142.635 78.9845C141.913 79.1277 141.192 79.246 140.467 79.3397C138.837 79.5517 137.21 79.64 135.593 79.5875C133.976 79.5352 132.368 79.3315 130.757 79.0037C127.537 78.3537 124.315 77.1145 121.09 75.4125C117.862 73.7105 114.662 71.532 111.412 69.1302C108.157 66.7205 104.86 64.0767 101.297 61.4355C99.512 60.1162 97.6695 58.789 95.6892 57.522C93.7227 56.2552 91.616 55.0462 89.3495 53.983C88.212 53.4542 87.0305 52.9695 85.8132 52.5317C84.5822 52.1102 83.3208 51.7357 82.0208 51.4437C80.7155 51.163 79.3853 50.9452 78.0358 50.8352C76.6862 50.7332 75.3285 50.6947 73.9845 50.7855C72.6405 50.8682 71.3047 51.0252 70.0133 51.287C69.3743 51.4025 68.694 51.5732 68.0247 51.7412C67.3555 51.934 66.6917 52.1322 66.039 52.3775C64.7335 52.854 63.4668 53.4405 62.2715 54.1152C61.0735 54.7927 59.9552 55.564 58.9142 56.3872C57.8732 57.2135 56.9092 58.0922 56.0225 59.001C55.1385 59.9152 54.3233 60.8545 53.566 61.8072C52.0485 63.7132 50.7705 65.6685 49.5973 67.6075C49.1483 68.3592 48.716 69.1085 48.2945 69.8547C45.2375 67.131 41.9272 64.6687 38.2752 62.6637C36.3035 61.5925 34.249 60.637 32.0705 59.8905C29.892 59.1497 27.5895 58.6155 25.1742 58.4695C22.7672 58.3262 20.2334 58.6045 17.8291 59.461C16.6256 59.8877 15.502 60.4525 14.4554 61.0995C13.4061 61.7495 12.4339 62.4792 11.5223 63.2697C9.7212 64.8645 8.16515 66.6765 6.87075 68.6595C6.2208 69.6482 5.6204 70.6727 5.09987 71.7412C4.57937 72.81 4.10565 73.9087 3.7311 75.0545C3.35105 76.1972 3.04535 77.376 2.82227 78.585C2.6102 79.7997 2.49729 81.0472 2.50005 82.3195C2.5028 83.592 2.62397 84.8892 2.9214 86.1807C3.2161 87.467 3.66225 88.7585 4.26815 89.954C5.4772 92.3555 7.2205 94.3632 9.16487 95.966C11.1147 97.5745 13.2684 98.8192 15.5185 99.7692C17.7713 100.717 20.1261 101.378 22.5524 101.738C24.9815 102.091 27.4713 102.168 30.0408 101.799C31.3158 101.614 32.5938 101.331 33.8385 100.92C35.0833 100.507 36.2925 99.9897 37.4408 99.3782C38.5892 98.7697 39.6772 98.0675 40.6908 97.3072C41.7012 96.5442 42.6432 95.7237 43.5218 94.87C45.2845 93.1625 46.7855 91.331 48.1515 89.4857C49.5148 87.6405 50.7402 85.7705 51.8997 83.9252C52.2192 83.4185 52.533 82.9117 52.8442 82.405C53.062 82.708 53.2712 83.0165 53.4777 83.3247C54.5822 84.9827 55.579 86.7015 56.3667 88.4667C57.16 90.2265 57.7465 92.047 57.9668 93.7902C58.0742 94.6577 58.088 95.5005 57.9863 96.2772L57.9475 96.5665L57.8898 96.8417C57.8595 97.0317 57.8018 97.2052 57.752 97.3815C57.7327 97.4725 57.6998 97.5552 57.6613 97.6377L57.5592 97.8885L57.4658 98.1417L57.3307 98.384L57.1985 98.6265C57.16 98.7062 57.1157 98.7887 57.0552 98.8632C56.945 99.0175 56.835 99.1745 56.7303 99.3315C56.4715 99.629 56.24 99.94 55.926 100.226C55.648 100.524 55.2983 100.794 54.976 101.077L54.4362 101.48C54.2627 101.617 54.07 101.747 53.8742 101.873C53.1197 102.394 52.2715 102.87 51.4095 103.336C50.531 103.793 49.633 104.236 48.694 104.669C46.8322 105.534 44.8823 106.387 42.8995 107.321C41.9108 107.784 40.911 108.29 39.9113 108.825C38.9142 109.381 37.9145 109.954 36.9258 110.631C36.4272 110.951 35.9427 111.328 35.4552 111.692C35.21 111.871 34.976 112.083 34.7363 112.281C34.4995 112.485 34.2545 112.672 34.0285 112.901L33.34 113.567C33.1087 113.785 32.8995 114.044 32.6818 114.283C32.2358 114.757 31.8417 115.302 31.4425 115.839C30.6908 116.952 30.002 118.158 29.5532 119.461C29.2887 120.102 29.1345 120.766 28.9555 121.43C28.7875 122.094 28.6803 122.768 28.6085 123.443C28.314 126.156 28.6747 128.866 29.4128 131.32L37.2122 128.577C36.5457 127.054 36.185 125.509 36.2043 123.999C36.207 123.622 36.2262 123.245 36.287 122.876C36.3585 122.515 36.3887 122.135 36.51 121.788C36.678 121.066 37.0058 120.4 37.3693 119.722C38.1543 118.398 39.333 117.147 40.8008 116.024C42.255 114.889 43.9487 113.881 45.736 112.909C47.5208 111.926 49.4128 111.014 51.335 110.003C53.2547 108.99 55.2237 107.921 57.1545 106.525C57.6365 106.194 58.11 105.79 58.581 105.41C59.0438 104.985 59.5092 104.586 59.9442 104.099C60.3932 103.65 60.7952 103.11 61.1948 102.587L61.7455 101.733C61.839 101.592 61.919 101.441 61.996 101.284L62.2275 100.821L62.4533 100.359L62.6377 99.8712L62.8167 99.381C62.8773 99.2185 62.9325 99.0535 62.971 98.8852C63.0592 98.552 63.15 98.2162 63.2023 97.883L63.2905 97.3815L63.3455 96.886C63.4832 95.5585 63.4173 94.275 63.2327 93.0522C62.858 90.6037 62.0457 88.3922 61.0928 86.3102C60.1287 84.2282 58.972 82.295 57.7135 80.4525C57.0745 79.5242 56.408 78.621 55.7168 77.7367C56.6533 76.2305 57.5895 74.7735 58.559 73.3937C60.798 70.1852 63.2077 67.3622 65.8187 65.6107C66.4688 65.17 67.127 64.7845 67.796 64.4705C68.4652 64.1565 69.1455 63.9032 69.8425 63.705C70.1868 63.603 70.5447 63.5315 70.8972 63.4515C71.258 63.3937 71.605 63.325 72.0153 63.2862C72.803 63.179 73.577 63.1512 74.3453 63.1652C77.4023 63.2202 80.3408 64.173 83.3538 65.8725C86.3613 67.5662 89.3605 69.9347 92.3928 72.5647C98.4655 77.8442 104.689 84.187 112.786 89.4167C116.824 92.0195 121.371 94.3135 126.337 95.7925C131.288 97.3017 136.595 97.949 141.754 97.77C146.923 97.602 151.999 96.66 156.813 95.1095C157.204 94.9827 157.592 94.8535 157.981 94.7185L142.635 78.9845ZM43.398 78.9237C41.4398 82.5042 39.421 85.8862 37.025 88.519C34.6345 91.1712 31.9135 92.9502 28.6775 93.5782C27.0772 93.9142 25.2928 93.972 23.5328 93.8177C21.7675 93.658 19.9938 93.267 18.3139 92.6695C16.6366 92.0717 15.0475 91.2592 13.676 90.2512C12.3017 89.246 11.1643 88.0397 10.3877 86.704C8.83715 84.0987 8.72147 80.436 9.746 76.9465C10.754 73.4515 12.7754 70.0915 15.4221 67.591C16.7523 66.3625 18.234 65.3215 19.7955 64.7102C21.3543 64.0795 23.1004 63.8397 24.9071 63.9005C26.7165 63.9692 28.5783 64.3412 30.4125 64.9195C31.3267 65.2112 32.2385 65.553 33.1418 65.9357C34.0395 66.324 34.9265 66.7592 35.8022 67.222C36.6753 67.6955 37.5373 68.1967 38.3855 68.7255C39.2283 69.2625 40.0627 69.819 40.878 70.4082C42.5082 71.587 44.0838 72.8537 45.568 74.2255C45.6453 74.2942 45.7222 74.366 45.7967 74.4375C44.987 75.9632 44.1992 77.4642 43.398 78.9237Z" fill="#529FA4"/>
<path fill-rule="evenodd" clip-rule="evenodd" d="M76.533 63.771C76.558 63.6993 76.6365 63.6613 76.7083 63.6863C80.8955 65.1383 86.9503 67.774 92.9116 72.7333C96.9611 76.1023 99.4163 79.2535 101.428 82.1413C101.882 82.7925 102.313 83.429 102.733 84.051C104.181 86.1918 105.511 88.16 107.269 89.952C112.588 95.375 122.984 100.358 145.451 97.0853C145.526 97.0743 145.596 97.1265 145.607 97.2018C145.618 97.277 145.566 97.3468 145.491 97.3578C122.972 100.638 112.475 95.6525 107.072 90.1448C105.296 88.3333 103.947 86.338 102.496 84.193C102.078 83.5738 101.651 82.942 101.202 82.2988C99.1988 79.423 96.7595 76.293 92.7353 72.945C86.8078 68.0135 80.7858 65.3918 76.618 63.9463C76.5463 63.9215 76.508 63.843 76.533 63.771Z" fill="#191919"/>
<path d="M46.5489 128.025H43.8264C43.6321 128.025 43.4746 127.868 43.4746 127.674C43.4746 127.479 43.6321 127.322 43.8264 127.322H46.5489C46.7429 127.322 46.9004 127.479 46.9004 127.674C46.9004 127.868 46.7429 128.025 46.5489 128.025Z" fill="#231F20"/>
<path d="M54.3904 128.025H51.6679C51.4737 128.025 51.3164 127.868 51.3164 127.674C51.3164 127.479 51.4737 127.322 51.6679 127.322H54.3904C54.5847 127.322 54.7419 127.479 54.7419 127.674C54.7419 127.868 54.5847 128.025 54.3904 128.025Z" fill="#231F20"/>
<path d="M45.501 127.793H44.877V129.182H45.501V127.793Z" fill="#231F20"/>
<path d="M53.3408 127.793H52.7168V129.182H53.3408V127.793Z" fill="#231F20"/>
<path d="M118.711 140.138C118.711 140.138 113.287 141.655 111.137 142.898C108.988 144.142 95.5247 147.625 92.0585 145.934C89.3387 144.608 86.4495 136.284 91.1722 135.884C95.8952 135.484 101.84 137.326 102.937 137.145C104.035 136.964 105.689 135.315 109.029 135.689C112.368 136.063 117.474 133.887 117.474 133.887L118.711 140.138Z" fill="#2249B3"/>
<path d="M65.7825 137.121H7.68359V141.762H65.7825V137.121Z" fill="#529FA4"/>
<path d="M127.923 121.088C127.923 121.088 108.237 122.559 99.5506 122.592L82.5031 86.195C81.4753 84.0008 82.2755 81.3875 84.3548 80.143C86.505 78.8563 89.4665 77.219 92.8223 75.7398C96.978 73.9083 101.735 72.3193 106.306 71.9393C107.675 71.8235 109.027 71.818 110.341 71.9448C115.128 72.412 118.319 72.7713 120.438 73.0388C122.787 73.3348 124.552 75.322 124.567 77.6893C124.638 88.643 125.091 118.45 127.923 121.088Z" fill="#2249B3"/>
<path d="M106.078 106.422L107.883 106.217C107.883 106.217 109.257 104.899 110.52 104.846C111.783 104.793 112.681 105.159 112.102 106.422C111.523 107.685 110.821 107.264 111.187 108.475C111.552 109.685 106.078 107.977 106.078 107.977V106.422Z" fill="#896756"/>
<path d="M84.0122 122.214L83.0645 116.688C87.4857 116.827 91.5312 120.308 102.775 120.765C118.954 121.423 125.663 119.336 125.663 119.336L145.472 113.678L121.396 131.504L94.7104 126.032L84.0122 122.214Z" fill="#529FA4"/>
<path opacity="0.33" d="M84.0122 122.214L83.0645 116.688C87.4857 116.827 91.5312 120.308 102.775 120.765C118.954 121.423 125.663 119.336 125.663 119.336L145.472 113.678L121.396 131.504L94.7104 126.032L84.0122 122.214Z" fill="#231F20"/>
<path d="M123.864 117.312L122.577 114.493L128.393 105.369L120.552 90.2905L116.111 73.9417C117.395 73.358 120.641 72.4462 123.529 74.768C129.198 79.3252 137.872 102.375 137.872 102.375C138.906 104.606 138.497 107.239 136.836 109.052L128.587 118.058C127.2 119.573 124.717 119.18 123.864 117.312Z" fill="#2249B3"/>
<path d="M87.7115 123.245C85.8355 123.245 83.9965 122.628 82.484 121.46C80.5022 119.93 79.293 117.618 79.1662 115.118C79.1662 115.118 78.6452 92.5525 80.6062 85.3697C81.4802 82.1687 85.2237 78.8435 86.754 79.11L89.4475 83.9632L90.8 110.689L100.766 108.614L103.181 120.208L89.4597 123.065C88.8792 123.186 88.2935 123.245 87.7115 123.245Z" fill="#2249B3"/>
<path d="M126.507 113.962C126.507 113.962 125.026 111.598 124.558 111.494C124.09 111.39 122.711 110.789 122.215 110.515C121.786 110.278 120.478 109.895 120.556 110.622C120.634 111.35 121.203 111.728 121.611 112.001C121.749 112.094 122.491 112.308 122.842 112.917C123.112 113.387 123.005 114.374 122.983 114.532C122.931 114.896 124.592 114.533 124.799 115.156C125.007 115.78 126.507 113.962 126.507 113.962Z" fill="#896756"/>
<path d="M104.225 82.538L105.171 90.1825C105.305 90.6003 105.117 91.0538 104.727 91.2545C104.238 91.506 103.64 91.2628 103.465 90.7415L100.994 83.363C100.994 83.363 97.3445 83.7653 96.353 82.8013C94.3095 80.8238 93.1143 76.8058 92.8223 75.7398C96.9783 73.9083 101.735 72.3193 106.306 71.9393C106.474 72.9088 109.289 81.373 104.225 82.538Z" fill="#B5CDFB"/>
<path d="M122.5 116.847L108.378 110.204C107.589 109.833 107.25 108.892 107.621 108.103C107.993 107.314 108.933 106.975 109.722 107.346L123.845 113.989C124.634 114.36 124.973 115.301 124.601 116.09C124.23 116.879 123.289 117.218 122.5 116.847Z" fill="#191919"/>
<path d="M121.984 112.877L119.853 111.874C119.68 111.793 119.606 111.587 119.687 111.414L119.755 111.27C119.836 111.097 120.042 111.023 120.215 111.104L122.346 112.107C122.519 112.188 122.593 112.394 122.512 112.567L122.444 112.711C122.363 112.884 122.157 112.958 121.984 112.877Z" fill="#191919"/>
<path d="M116.998 113.408L114.866 112.405C114.694 112.324 114.62 112.118 114.701 111.945L114.769 111.801C114.85 111.629 115.056 111.554 115.228 111.636L117.36 112.638C117.533 112.72 117.607 112.925 117.526 113.098L117.458 113.242C117.377 113.415 117.171 113.489 116.998 113.408Z" fill="#529FA4"/>
<path d="M113.559 107.801L111.427 106.798C111.254 106.717 111.18 106.511 111.261 106.338L111.329 106.194C111.41 106.021 111.616 105.947 111.789 106.028L113.921 107.031C114.093 107.112 114.167 107.318 114.086 107.491L114.019 107.635C113.937 107.808 113.731 107.882 113.559 107.801Z" fill="#191919"/>
<path d="M111.588 108.224L112.221 106.878C112.29 106.732 112.463 106.67 112.609 106.738L112.851 106.852C112.997 106.921 113.059 107.094 112.991 107.24L112.358 108.586C112.29 108.731 112.116 108.794 111.97 108.725L111.728 108.611C111.582 108.543 111.52 108.369 111.588 108.224Z" fill="#191919"/>
<path d="M120.043 113.235L120.676 111.889C120.745 111.744 120.918 111.681 121.064 111.75L121.306 111.864C121.452 111.932 121.514 112.106 121.446 112.251L120.813 113.597C120.744 113.743 120.571 113.805 120.425 113.737L120.183 113.623C120.037 113.554 119.975 113.381 120.043 113.235Z" fill="#191919"/>
<path d="M120.036 113.252L120.669 111.906C120.737 111.761 120.911 111.698 121.056 111.767L121.299 111.881C121.444 111.949 121.507 112.123 121.438 112.268L120.805 113.614C120.737 113.759 120.563 113.822 120.418 113.753L120.175 113.639C120.03 113.571 119.967 113.397 120.036 113.252Z" fill="#191919"/>
<path d="M106.08 106.422C106.08 106.422 99.0025 111.762 100.91 114.632C101.626 115.71 102.709 116.993 102.927 117.011C103.35 117.045 105.913 117.835 107.138 117.872C107.585 117.886 107.997 117.636 108.194 117.235L108.553 116.503L109.101 116.42C109.732 116.325 110.252 115.877 110.441 115.268L110.659 114.562C110.659 114.562 113.922 115.265 114.291 114.37C114.659 113.475 111.606 112.159 109.975 111.422C108.343 110.685 114.676 112.843 114.799 111.317C114.922 109.791 109.448 107.738 109.448 107.738L106.08 106.422Z" fill="#9C7761"/>
<path d="M67.1665 138.433H6.29883L7.24348 134.459H66.2218L67.1665 138.433Z" fill="#0E0F25"/>
<path d="M68.6127 144.511H4.85352L5.79817 140.537H67.6682L68.6127 144.511Z" fill="#0E0F25"/>
<path d="M9.74432 136.781C10.0551 136.781 10.307 136.529 10.307 136.218C10.307 135.907 10.0551 135.655 9.74432 135.655C9.43354 135.655 9.18164 135.907 9.18164 136.218C9.18164 136.529 9.43354 136.781 9.74432 136.781Z" fill="#B5CDFB"/>
<path d="M12.3029 136.781C12.6137 136.781 12.8656 136.529 12.8656 136.218C12.8656 135.907 12.6137 135.655 12.3029 135.655C11.9922 135.655 11.7402 135.907 11.7402 136.218C11.7402 136.529 11.9922 136.781 12.3029 136.781Z" fill="#529FA4"/>
<path d="M112.863 143.869C127.667 138.606 140.915 133.021 150.323 126.641C153.712 125.082 155.262 121.123 153.833 117.677C152.23 113.816 147.602 112.237 143.975 114.315L108.592 134.583L112.863 143.869Z" fill="#529FA4"/>
<path d="M125.184 143.266C125.184 143.266 130.965 141.868 133.225 142.898C135.485 143.927 149.222 146.089 152.508 144.07C155.087 142.487 157.156 133.923 152.417 133.982C147.677 134.041 141.939 136.451 140.829 136.377C139.719 136.303 137.913 134.822 134.625 135.518C131.337 136.213 126.045 134.542 126.045 134.542L125.184 143.266Z" fill="#2249B3"/>
<path d="M126.429 113.871L124.435 114.499C124.435 114.499 124.092 114.958 123.498 114.881C122.904 114.804 120.608 114.364 120.42 115.257C120.231 116.149 121.054 116.239 122.006 116.583C122.958 116.927 124.588 117.363 124.98 117.115C125.372 116.867 126.241 115.893 126.241 115.893L126.429 113.871Z" fill="#9C7761"/>
<path d="M126.351 113.928C126.351 113.928 126.294 117.833 125.98 119.143C125.667 120.454 123.6 121.252 123.6 121.252C123.6 121.252 120.965 121.423 120.024 120.483C119.084 119.542 119.682 118.773 119.682 118.773C119.682 118.773 118.841 117.761 119.169 117.191C119.169 117.191 117.83 116.308 118.371 115.595C118.913 114.883 120.551 116.094 120.551 116.094C120.551 116.094 123.752 117.576 124.855 116.906C125.958 116.237 126.351 113.928 126.351 113.928Z" fill="#9C7761"/>
<path d="M97.0905 72.429L97.78 76.9555C98.0233 78.5535 99.5163 79.652 101.114 79.4085C102.713 79.165 103.811 77.6723 103.568 76.074L102.963 72.101C102.93 71.8898 102.733 71.7448 102.522 71.777L100.404 72.0995C99.43 72.2478 98.4738 72.2025 97.5695 71.988L97.5638 71.9865C97.2945 71.9268 97.049 72.1563 97.0905 72.429Z" fill="#9C7761"/>
<path d="M97.6953 72.68C98.1066 72.91 102.684 75.4513 103.393 74.7913L103.03 72.4108L100.53 72.7915C99.5558 72.94 98.5996 72.8945 97.6953 72.68Z" fill="#121430"/>
<path d="M92.5964 70.9712C94.4537 72.5452 98.8094 73.3777 102.186 72.6615C105.728 71.9102 109.574 68.3377 109.107 64.0482L108.019 54.0642C107.551 49.7747 103.695 46.6765 99.4054 47.1437L94.3422 47.6955C90.0524 48.163 86.9542 52.0192 87.4217 56.3087C87.4217 56.3087 89.6307 68.4582 92.5964 70.9712Z" fill="#9C7761"/>
<path d="M85.3873 63.049C85.5666 64.6922 88.3666 65.395 89.8203 65.2365C91.2738 65.078 90.8303 64.1185 90.6511 62.4755C90.4721 60.8322 89.1486 59.6287 87.6951 59.787C86.2416 59.9455 85.2083 61.406 85.3873 63.049Z" fill="#9C7761"/>
<path d="M93.9185 51.369C93.9185 51.369 90.492 57.3695 91.0245 59.9627C91.557 62.556 89.9422 62.7622 89.9422 62.7622C89.9422 62.7622 88.1602 59.7912 87.5392 59.812C86.918 59.8327 84.852 52.6575 87.6648 51.81C90.4773 50.9625 93.9185 51.369 93.9185 51.369Z" fill="#121430"/>
<path fill-rule="evenodd" clip-rule="evenodd" d="M101.58 58.2025C101.69 58.1443 101.827 58.1863 101.885 58.2963C103.094 60.5805 103.598 62.261 103.83 63.2648C103.882 63.4895 103.942 63.7708 103.943 64.0475C103.943 64.3248 103.885 64.6268 103.671 64.8665C103.488 65.0725 103.242 65.1748 102.996 65.2195C102.751 65.264 102.491 65.2543 102.257 65.224C101.788 65.1633 101.378 65.0138 101.302 64.9853C101.186 64.9415 101.127 64.8115 101.171 64.695C101.214 64.5785 101.344 64.5195 101.461 64.5633C101.526 64.5875 101.898 64.7228 102.315 64.777C102.524 64.804 102.733 64.8093 102.916 64.776C103.098 64.7428 103.239 64.6745 103.334 64.567C103.445 64.4428 103.492 64.2685 103.492 64.0485C103.491 63.8278 103.443 63.5905 103.391 63.3663L103.611 63.3155L103.391 63.3663C103.167 62.398 102.676 60.7548 101.487 58.5073C101.428 58.3973 101.47 58.2608 101.58 58.2025Z" fill="#121430"/>
<path d="M86.226 54.9037C83.4752 53.144 83.1782 49.7625 84.5737 48.2587C85.6905 47.0555 88.0885 46.8417 90.099 48.1367C89.8042 45.4835 90.838 43.1067 92.6987 42.1572C93.6892 41.6517 95.8327 41.0817 96.9885 42.4172C97.8932 43.4627 97.8695 45.3027 96.7285 46.7067C97.5772 42.5085 100.194 39.3205 103.488 38.6475C105.579 38.2202 109 38.5915 109.857 40.7272C110.625 42.6392 109.221 45.6735 105.957 47.2267C108.436 44.7047 111.004 43.7207 112.002 44.497C113.007 45.2785 112.672 48.0405 111.406 49.8065C110.941 50.4547 110.414 50.8802 109.857 51.2565C106.377 53.609 102.234 53.695 101.479 53.702C97.6625 53.7377 96.8777 52.6045 94.501 53.337C92.569 53.9327 91.261 55.245 90.489 56.196C89.068 55.7652 87.647 55.3345 86.226 54.9037Z" fill="#121430"/>
<path fill-rule="evenodd" clip-rule="evenodd" d="M98.8565 59.578C98.5053 59.547 97.9138 59.5465 97.029 59.6997C96.3845 59.8112 95.9813 60.0252 95.7515 60.1887C95.6353 60.2715 95.56 60.3437 95.5183 60.3882C95.4975 60.4105 95.485 60.4257 95.4803 60.432C95.4798 60.4325 95.4793 60.433 95.479 60.4335C95.2695 60.736 94.8555 60.817 94.5468 60.613C94.234 60.4065 94.148 59.9852 94.3548 59.6725L94.921 60.0467C94.3548 59.6725 94.355 59.6722 94.3553 59.6717L94.3558 59.6712L94.3565 59.6697L94.3588 59.6665L94.3635 59.6595C94.367 59.6545 94.371 59.6487 94.3758 59.6422C94.385 59.6292 94.3968 59.6135 94.4108 59.5955C94.4393 59.5592 94.4775 59.5132 94.527 59.4605C94.626 59.3547 94.769 59.2215 94.9643 59.0825C95.3578 58.8025 95.9505 58.5085 96.7975 58.362L96.9133 59.0307L96.7975 58.362C97.7828 58.1912 98.4928 58.183 98.9753 58.2255C99.2165 58.2465 99.4005 58.2805 99.533 58.3127C99.5993 58.3287 99.6523 58.3445 99.6933 58.3577C99.7135 58.3645 99.731 58.3707 99.7453 58.376C99.7525 58.3787 99.7588 58.3812 99.7645 58.3835L99.7725 58.3867L99.776 58.3882L99.7778 58.3887L99.7785 58.3892C99.779 58.3892 99.7793 58.3895 99.5235 58.9977L99.7793 58.3895C100.125 58.5347 100.287 58.9327 100.142 59.2782C99.999 59.6185 99.6113 59.7812 99.2695 59.6477C99.2693 59.6477 99.2693 59.6475 99.269 59.6475C99.2625 59.6455 99.2438 59.6395 99.212 59.6317C99.1485 59.6162 99.0323 59.5932 98.8565 59.578Z" fill="#121430"/>
<path fill-rule="evenodd" clip-rule="evenodd" d="M109.698 57.3202C109.698 57.3205 109.698 57.3207 109.234 57.8157L109.698 57.3207C109.972 57.5775 109.985 58.007 109.729 58.2805C109.475 58.55 109.054 58.567 108.78 58.321C108.78 58.3207 108.779 58.3202 108.779 58.3197C108.772 58.3147 108.757 58.3027 108.731 58.286C108.681 58.2522 108.591 58.1992 108.459 58.1457C108.197 58.0397 107.755 57.9247 107.102 57.965C106.206 58.0202 105.631 58.1575 105.296 58.2685C105.129 58.3242 105.021 58.3735 104.963 58.403C104.934 58.418 104.917 58.428 104.911 58.4315C104.911 58.4317 104.911 58.4317 104.911 58.4317C104.609 58.6407 104.194 58.572 103.976 58.274C103.755 57.9712 103.821 57.5465 104.124 57.3255L104.521 57.8682C104.124 57.3255 104.124 57.3252 104.125 57.325L104.125 57.3245L104.127 57.3232L104.13 57.321L104.137 57.3162C104.142 57.3127 104.148 57.3087 104.154 57.3045C104.167 57.296 104.182 57.286 104.2 57.2747C104.237 57.2522 104.285 57.2247 104.346 57.1937C104.467 57.1317 104.639 57.0565 104.868 56.98C105.328 56.8275 106.021 56.6715 107.019 56.61C107.877 56.557 108.521 56.706 108.969 56.8875C109.191 56.9777 109.361 57.0742 109.482 57.1542C109.542 57.1942 109.59 57.23 109.626 57.2587C109.644 57.2732 109.659 57.2857 109.671 57.2962C109.677 57.3015 109.682 57.306 109.687 57.3102L109.693 57.316L109.696 57.3185L109.697 57.3197L109.698 57.3202Z" fill="#121430"/>
<path d="M98.0496 61.4685C98.0878 61.7955 97.8528 62.093 97.5223 62.1317C97.4213 62.1435 97.3276 62.1305 97.2378 62.0932C97.0376 62.0175 96.8861 61.8337 96.8596 61.6077C96.8293 61.3482 96.9688 61.1097 97.1886 61.002C97.2466 60.9715 97.3123 60.95 97.3831 60.9417C97.7136 60.903 98.0111 61.1382 98.0496 61.4685Z" fill="#121430"/>
<path d="M107.198 59.842C107.236 60.169 107.001 60.4665 106.674 60.5047C106.344 60.5435 106.046 60.3082 106.008 59.9812C105.97 59.651 106.205 59.3535 106.535 59.3147C106.862 59.2765 107.16 59.5117 107.198 59.842Z" fill="#121430"/>
<path d="M102.304 69.9248C99.9087 70.135 99.2982 67.833 99.1992 67.7303L104.174 66.8563C104.462 68.7908 103.491 69.8195 102.304 69.9248Z" fill="white"/>
<path d="M130.297 144.356C116.296 141.705 102.34 138.669 86.7885 131.504C83.463 130.289 80.5405 123.593 81.7553 120.268C83.0233 116.798 86.954 115.115 90.34 116.592L133.092 132.691L130.297 144.356Z" fill="#529FA4"/>
<path fill-rule="evenodd" clip-rule="evenodd" d="M107.277 85.219L105.674 85.6935L105.596 85.4295L107.199 84.955L107.277 85.219Z" fill="#B5CDFB"/>
<path fill-rule="evenodd" clip-rule="evenodd" d="M107.719 88.6497L106.115 89.1243L106.037 88.8603L107.64 88.3855L107.719 88.6497Z" fill="#B5CDFB"/>
<path d="M54.2606 132.199H43.9571C42.9723 132.199 42.1738 131.401 42.1738 130.416C42.1738 129.431 42.9723 128.633 43.9571 128.633H54.2606C55.2456 128.633 56.0438 129.431 56.0438 130.416C56.0438 131.401 55.2456 132.199 54.2606 132.199Z" fill="#2249B3"/>
<path d="M46.6155 131.594L42.7005 134.237C42.1075 134.638 41.3019 134.482 40.9017 133.888C40.5012 133.295 40.6575 132.49 41.2505 132.09L45.1652 129.446C45.7582 129.046 46.5637 129.202 46.9642 129.795C47.3647 130.388 47.2085 131.194 46.6155 131.594Z" fill="#2249B3"/>
<path d="M51.602 131.594L55.5168 134.237C56.11 134.638 56.9153 134.482 57.3158 133.888C57.7163 133.295 57.56 132.49 56.967 132.09L53.0523 129.446C52.459 129.046 51.6538 129.202 51.2533 129.795C50.8528 130.388 51.009 131.194 51.602 131.594Z" fill="#2249B3"/>
<path d="M44.0265 129.182C43.5793 129.182 43.2168 129.544 43.2168 129.992V131.949C43.2168 132.397 43.5793 132.759 44.0265 132.759C44.4738 132.759 44.8363 132.397 44.8363 131.949V129.992C44.8363 129.544 44.4738 129.182 44.0265 129.182Z" fill="#B5CDFB"/>
<path d="M54.1906 129.182C53.7434 129.182 53.3809 129.544 53.3809 129.992V131.949C53.3809 132.397 53.7434 132.759 54.1906 132.759C54.6379 132.759 55.0004 132.397 55.0004 131.949V129.992C55.0004 129.544 54.6379 129.182 54.1906 129.182Z" fill="#B5CDFB"/>
<path d="M15.2352 88.5175H3.12695V100.626H15.2352V88.5175Z" fill="#2249B3"/>
<path d="M170.469 29.8498L173.659 36.86L166.649 40.0495L163.459 33.0395L170.469 29.8498ZM171.562 26.9318L160.541 31.9465L165.556 42.9675L176.577 37.9528L171.562 26.9318Z" fill="#B5CDFB"/>
<path d="M146.06 69.8093C148.415 69.8093 150.331 71.7253 150.331 74.0803C150.331 76.4355 148.415 78.3515 146.06 78.3515C143.705 78.3515 141.789 76.4355 141.789 74.0803C141.789 71.7253 143.705 69.8093 146.06 69.8093ZM146.06 67.606C142.484 67.606 139.586 70.5048 139.586 74.0803C139.586 77.656 142.484 80.5548 146.06 80.5548C149.636 80.5548 152.534 77.656 152.534 74.0803C152.534 70.5048 149.636 67.606 146.06 67.606Z" fill="#2249B3"/>
<path d="M47.4276 25.7678L47.5496 33.4375L47.6719 41.107L40.9686 37.378L34.2656 33.649L40.8466 29.7085L47.4276 25.7678Z" fill="#2249B3"/>
<path d="M77.127 69.7772L79.813 73.6872L82.4993 77.597L77.77 77.9682L73.041 78.3397L75.084 74.0585L77.127 69.7772Z" fill="#B5CDFB"/>
<path d="M181.335 74.4792L183.462 77.6935L185.59 80.9075L181.742 81.143L177.895 81.3782L179.615 77.9287L181.335 74.4792ZM181.066 70.081L177.643 76.9457L174.221 83.8105L181.877 83.342L189.533 82.8737L185.299 76.4772L181.066 70.081Z" fill="#2249B3"/>
<path fill-rule="evenodd" clip-rule="evenodd" d="M120.968 127.341C120.992 127.269 121.07 127.23 121.142 127.254L132.344 130.998C132.787 131.147 133.029 131.623 132.887 132.068L130.214 140.431C130.191 140.503 130.113 140.543 130.041 140.52C129.968 140.497 129.928 140.42 129.951 140.347L132.624 131.984C132.721 131.683 132.557 131.36 132.257 131.26L121.055 127.515C120.983 127.491 120.944 127.413 120.968 127.341Z" fill="#191919"/>
<path fill-rule="evenodd" clip-rule="evenodd" d="M54.0072 61.3572C54.0642 61.4077 54.0695 61.4947 54.0192 61.5517C53.383 62.273 52.4472 63.632 51.3567 65.3477C50.268 67.061 49.03 69.122 47.7897 71.2415C47.7512 71.307 47.667 71.3292 47.6015 71.2907C47.5357 71.2522 47.5137 71.168 47.552 71.1025C48.793 68.9815 50.033 66.9172 51.1242 65.2C52.214 63.4855 53.1602 62.109 53.8127 61.3695C53.863 61.3125 53.9502 61.307 54.0072 61.3572Z" fill="#191919"/>
<path fill-rule="evenodd" clip-rule="evenodd" d="M43.32 78.789C43.3865 78.8262 43.4103 78.91 43.373 78.9765C42.5445 80.4572 41.841 81.729 41.3448 82.6302C41.0965 83.081 40.9003 83.4392 40.766 83.6847C40.6988 83.8075 40.6473 83.902 40.6123 83.9657L40.5595 84.0627C40.5595 84.0627 40.5595 84.0627 40.4385 83.997C40.3175 83.9312 40.3175 83.9312 40.3175 83.9312L40.3705 83.834C40.4055 83.77 40.457 83.6752 40.5243 83.5525C40.6588 83.3067 40.8553 82.9485 41.1035 82.4975C41.6 81.5955 42.3038 80.3232 43.1328 78.842C43.1698 78.7755 43.2538 78.752 43.32 78.789ZM40.3728 84.118C40.3058 84.0817 40.2813 83.998 40.3175 83.9312L40.4385 83.997L40.5595 84.0627C40.5233 84.1295 40.4395 84.1542 40.3728 84.118Z" fill="#191919"/>
<path fill-rule="evenodd" clip-rule="evenodd" d="M65.1821 68.4595C65.2196 68.5255 65.1963 68.6097 65.1303 68.6472C61.2496 70.8497 58.3888 73.9368 56.4973 76.4763C55.5518 77.7458 54.8496 78.877 54.3838 79.6905C54.1508 80.0972 53.9773 80.4242 53.8618 80.6495C53.8043 80.762 53.7613 80.849 53.7328 80.9078C53.7183 80.9373 53.7078 80.9595 53.7008 80.9743L53.6928 80.991L53.691 80.995L53.6905 80.996L53.5655 80.9382C53.4405 80.8805 53.4405 80.8805 53.4405 80.8802L53.4408 80.88L53.4413 80.8788L53.4436 80.874L53.4518 80.8562C53.4593 80.8407 53.4703 80.8175 53.4851 80.7875C53.5143 80.727 53.5583 80.6383 53.6168 80.524C53.7338 80.2953 53.9095 79.9642 54.1448 79.5538C54.615 78.7323 55.3233 77.5915 56.2766 76.3118C58.1821 73.7535 61.0698 70.6353 64.9943 68.4078C65.0603 68.3703 65.1446 68.3933 65.1821 68.4595ZM53.5075 81.0632C53.4385 81.0312 53.4085 80.9493 53.4405 80.8802L53.5655 80.9382L53.6905 80.996C53.6585 81.065 53.5768 81.0952 53.5075 81.0632Z" fill="#191919"/>
<path d="M48.6461 89.5043C51.0011 89.5043 52.9171 91.4203 52.9171 93.7753C52.9171 96.1303 51.0011 98.0463 48.6461 98.0463C46.2909 98.0463 44.3751 96.1303 44.3751 93.7753C44.3751 91.4203 46.2909 89.5043 48.6461 89.5043ZM48.6461 87.301C45.0704 87.301 42.1719 90.1995 42.1719 93.7753C42.1719 97.351 45.0704 100.25 48.6461 100.25C52.2216 100.25 55.1204 97.351 55.1204 93.7753C55.1204 90.1995 52.2216 87.301 48.6461 87.301Z" fill="#B5CDFB"/>
<path fill-rule="evenodd" clip-rule="evenodd" d="M164.033 100.286L128.699 67.0618L128.888 66.861L164.222 100.086L164.033 100.286Z" fill="#2249B3"/>
</svg>
