<svg width="200" height="150" viewBox="0 0 200 150" fill="none" xmlns="http://www.w3.org/2000/svg">
<path fill-rule="evenodd" clip-rule="evenodd" d="M99.5 113C120.211 113 137 96.2107 137 75.5C137 54.7893 120.211 38 99.5 38C78.7893 38 62 54.7893 62 75.5C62 96.2107 78.7893 113 99.5 113Z" fill="#9EE1EC"/>
<path fill-rule="evenodd" clip-rule="evenodd" d="M101.333 73.6667H110.667C111.403 73.6667 112 74.2636 112 75C112 75.7364 111.403 76.3333 110.667 76.3333H101.333V85.6667C101.333 86.403 100.736 87 100 87C99.2636 87 98.6667 86.403 98.6667 85.6667V76.3333H89.3333C88.597 76.3333 88 75.7364 88 75C88 74.2636 88.597 73.6667 89.3333 73.6667H98.6667V64.3333C98.6667 63.597 99.2636 63 100 63C100.736 63 101.333 63.597 101.333 64.3333V73.6667Z" fill="white"/>
</svg>
