<svg width="200" height="150" viewBox="0 0 200 150" fill="none" xmlns="http://www.w3.org/2000/svg">
<path opacity="0.3" d="M179.675 38.744C179.675 64.7685 119.413 130.076 93.3878 130.076C67.3633 130.076 9.22461 91.584 9.22461 65.5595C9.22461 39.5348 46.5653 15.7953 74.2245 11.6052C101.884 7.4151 179.675 12.7194 179.675 38.744Z" fill="#E27430"/>
<g opacity="0.2">
<path opacity="0.2" d="M12.084 87.1962H71.2902V93.8337H12.084V87.1962Z" fill="#FFC7A8"/>
<path opacity="0.2" d="M12.084 97.8337H71.2902V104.471H12.084V97.8337Z" fill="#FFC7A8"/>
<path opacity="0.2" d="M12.084 108.471H71.2902V115.109H12.084V108.471Z" fill="#FFC7A8"/>
<path opacity="0.2" d="M13.4141 120.609H22.8802V130.076H13.4141V120.609Z" fill="#FFC7A8"/>
<path opacity="0.2" d="M28.8809 120.609H38.3471V130.076H28.8809V120.609Z" fill="#FFC7A8"/>
<path opacity="0.2" d="M44.3477 120.609H53.8137V130.076H44.3477V120.609Z" fill="#FFC7A8"/>
<path opacity="0.2" d="M59.8145 120.609H69.2807V130.076H59.8145V120.609Z" fill="#FFC7A8"/>
</g>
<path opacity="0.2" d="M69.2793 48.6015H184.054V55.239H69.2793V48.6015Z" fill="#FFC7A8"/>
<path fill-rule="evenodd" clip-rule="evenodd" d="M108.185 91.1805C108.219 91.12 108.295 91.0983 108.355 91.1315C122.975 99.2078 134.961 99.9325 146.459 98.9588C149.88 98.669 153.252 98.2298 156.639 97.7885C158.952 97.487 161.273 97.1848 163.622 96.9285C169.401 96.2978 175.329 95.9495 181.669 96.5938C181.738 96.6008 181.788 96.6623 181.781 96.7308C181.774 96.7995 181.713 96.8495 181.644 96.8425C175.328 96.2008 169.42 96.5473 163.649 97.177C161.312 97.432 158.995 97.7338 156.682 98.035C153.288 98.4773 149.903 98.918 146.48 99.208C134.948 100.185 122.909 99.457 108.234 91.3505C108.174 91.317 108.152 91.241 108.185 91.1805Z" fill="#FFC7A8"/>
<path opacity="0.2" d="M124.848 61.239H184.054V67.8765H124.848V61.239Z" fill="#FFC7A8"/>
<path opacity="0.2" d="M115.715 73.8765H184.054V80.514H115.715V73.8765Z" fill="#FFC7A8"/>
<path fill-rule="evenodd" clip-rule="evenodd" d="M182.097 23.3514C179.345 21.9824 176.044 21.2349 173.846 20.9672L173.876 20.719C176.093 20.989 179.423 21.7422 182.208 23.1276C184.986 24.5093 187.268 26.5447 187.291 29.3962C187.336 34.964 186.2 39.5745 185.623 41.1917L185.387 41.1077C185.955 39.5172 187.086 34.936 187.041 29.3982C187.019 26.697 184.857 24.7241 182.097 23.3514Z" fill="#FFC7A8"/>
<path fill-rule="evenodd" clip-rule="evenodd" d="M45.729 11.9054C30.585 18.8818 20.5636 28.5655 17.4524 32.5253L17.2559 32.3708C20.3913 28.3803 30.444 18.6714 45.6242 11.6783L45.729 11.9054Z" fill="#FFC7A8"/>
<path d="M157.451 50.1348C164.64 49.7078 170.122 43.5341 169.695 36.3453C169.268 29.1564 163.094 23.6748 155.905 24.1017C148.716 24.5286 143.235 30.7024 143.662 37.8912C144.089 45.08 150.262 50.5617 157.451 50.1348Z" fill="#FFC7A8"/>
<path d="M49.619 27.0774L34.9141 32.4545L40.2911 47.1594L54.996 41.7823L49.619 27.0774Z" fill="#FFC7A8"/>
<path d="M49.619 27.0774L34.9141 32.4545L40.2911 47.1594L54.996 41.7823L49.619 27.0774Z" fill="black" fill-opacity="0.21"/>
<path d="M90.8359 72.7382L93.3649 81.5007C94.4299 83.1955 94.2524 75.0662 94.4299 72.2485L90.8359 72.7382Z" fill="#F1F2F2"/>
<path d="M119.751 69.91L117.183 81.6698C116.886 75.3433 117.928 75.7898 115.955 71.1008L119.751 69.91Z" fill="#F1F2F2"/>
<path d="M27.1661 62.1877C26.3681 64.2135 29.8809 77.0395 32.4886 80.5607C33.4131 79.849 40.1781 78.7697 41.1734 76.5602C42.4174 73.7985 40.4356 60.7485 40.1544 59.1122C39.8734 57.476 36.3874 65.121 36.3874 65.121C36.3874 65.121 35.8789 55.6005 35.1564 53.8735C34.8251 53.0817 28.8166 57.9977 27.1661 62.1877Z" fill="#E27430"/>
<path d="M29.2841 65.591C28.7013 63.2385 28.2403 61.1413 27.9336 59.1873" stroke="#005B9D" stroke-width="0.445363" stroke-linecap="round"/>
<path d="M31.2485 64.333C30.9757 63.1128 29.953 58.1965 29.752 56.8218" stroke="#005B9D" stroke-width="0.445363" stroke-linecap="round"/>
<path d="M33.6222 63.3403C33.136 60.8625 32.367 55.9295 32.2188 54.2703" stroke="#005B9D" stroke-width="0.445363" stroke-linecap="round"/>
<path d="M167.706 68.6722C169.265 70.1925 171.323 83.3307 170.389 87.6117C169.254 87.342 162.641 89.1325 160.827 87.5257C158.56 85.5175 155.402 75.564 155.023 74.097C154.608 72.4895 160.5 75.13 160.5 75.13C160.5 75.13 157.058 66.2387 157.009 64.3675C156.986 63.5095 164.482 65.5282 167.706 68.6722Z" fill="#E27430"/>
<path d="M167.17 72.645C166.737 70.2602 166.297 68.1585 165.775 66.2507" stroke="#005B9D" stroke-width="0.445363" stroke-linecap="round"/>
<path d="M164.865 72.3032C164.613 71.0785 163.529 66.1752 163.148 64.8392" stroke="#005B9D" stroke-width="0.445363" stroke-linecap="round"/>
<path d="M162.294 72.3712C161.721 69.912 160.399 65.0977 159.854 63.5235" stroke="#005B9D" stroke-width="0.445363" stroke-linecap="round"/>
<path fill-rule="evenodd" clip-rule="evenodd" d="M71.9314 99.8632C85.1861 104.628 98.8141 104.778 103.133 104.113C113.318 102.546 120.74 103.847 127.502 105.031C128.536 105.212 129.556 105.391 130.567 105.556C137.365 106.666 145.502 107.591 159.249 105.735C159.272 105.212 159.278 104.612 159.26 103.934C159.13 99.0332 157.857 92.1652 155.992 85.01L174.093 80.2935C176.075 87.8977 177.772 96.396 177.958 103.439C178.049 106.866 177.818 110.825 176.51 114.359C175.101 118.164 171.839 122.718 165.676 123.695C147.484 126.579 136.526 125.482 127.552 124.017C126.315 123.815 125.159 123.616 124.062 123.428C117.433 122.29 112.973 121.525 105.978 122.601C98.5346 123.746 81.7551 123.272 65.6031 117.465C49.2224 111.576 31.6009 99.4112 26.8184 75.993L45.1454 72.2502C48.1214 86.8222 58.9054 95.18 71.9314 99.8632Z" fill="#FFC7A8"/>
<path d="M72.9082 111.758L144.062 116.191C144.062 116.191 144.43 129.297 138.058 138.324C131.686 147.351 95.8612 143.452 86.3615 141.952C76.8615 140.452 76.397 133.196 72.9082 111.758Z" fill="#FFC7A8"/>
<path d="M90.4364 43.138C90.5054 43.1355 90.5592 43.0775 90.5567 43.0085C90.5542 42.9395 90.4962 42.8858 90.4272 42.8883L90.4364 43.138ZM69.9134 46.8343C73.2842 45.7323 82.1119 43.4493 90.4364 43.138L90.4272 42.8883C82.0719 43.2005 73.2202 45.4903 69.8359 46.5965L69.9134 46.8343Z" fill="#FFC7A8"/>
<path fill-rule="evenodd" clip-rule="evenodd" d="M105.215 131.324C116.733 132.228 126.062 131.028 138.507 125.717C139.109 125.46 139.808 125.584 140.277 126.039C127.126 131.804 116.756 133.596 107.078 133.084C97.4171 132.572 88.4031 129.76 85.6734 128.32C85.3681 128.159 85.2511 127.781 85.4121 127.476C85.5731 127.171 85.9514 127.054 86.2566 127.215C88.7879 128.55 95.6849 130.819 105.215 131.324Z" fill="#E27430"/>
<path fill-rule="evenodd" clip-rule="evenodd" d="M92.8514 118.181C104.026 121.115 113.42 121.59 126.611 118.573C127.248 118.428 127.914 118.674 128.295 119.205C114.329 122.543 103.806 122.466 94.3729 120.243C84.9562 118.025 76.5847 113.657 74.1539 111.755C73.8822 111.543 73.8342 111.15 74.0467 110.878C74.2594 110.606 74.6522 110.558 74.9242 110.771C77.1782 112.534 83.5627 115.992 92.8514 118.181Z" fill="#E27430"/>
<path d="M146.472 111.285C145.646 111.546 144.845 111.342 144.683 110.828C144.52 110.315 144.85 109.916 145.675 109.655C146.501 109.394 147.588 109.16 147.75 109.673C147.913 110.187 147.298 111.024 146.472 111.285Z" fill="black" fill-opacity="0.42"/>
<path d="M50.1355 97.031C50.4843 97.824 51.74 99.5753 50.947 99.924C50.1543 100.273 47.9505 99.231 47.6018 98.4382C47.253 97.6452 46.1943 95.5307 46.9873 95.182C47.78 94.8332 49.7868 96.238 50.1355 97.031Z" fill="black" fill-opacity="0.42"/>
<path d="M93.8262 135.396C93.8262 136.263 93.124 136.574 92.2577 136.574C91.3917 136.574 90.6895 136.263 90.6895 135.396C90.6895 134.53 91.3917 133.828 92.2577 133.828C93.124 133.828 93.8262 134.53 93.8262 135.396Z" fill="black" fill-opacity="0.42"/>
<path d="M101.846 15.7876H98.1552C93.7278 15.7876 90.1387 19.3767 90.1387 23.8041V27.4952C90.1387 31.9226 93.7278 35.5117 98.1552 35.5117H101.846C106.274 35.5117 109.863 31.9226 109.863 27.4952V23.8041C109.863 19.3767 106.274 15.7876 101.846 15.7876Z" fill="#FFC7A8"/>
<path d="M101.846 15.7876H98.1552C93.7278 15.7876 90.1387 19.3767 90.1387 23.8041V27.4952C90.1387 31.9226 93.7278 35.5117 98.1552 35.5117H101.846C106.274 35.5117 109.863 31.9226 109.863 27.4952V23.8041C109.863 19.3767 106.274 15.7876 101.846 15.7876Z" fill="white" fill-opacity="0.22"/>
<path d="M34.0804 67.9475C34.0804 67.9475 33.0417 68.9747 30.0219 70.4597C24.1153 73.3647 15.9766 70.7942 16.0473 64.212C16.1313 56.3997 23.1483 49.1402 34.0804 43.1667C53.0662 32.7922 70.6639 26.1237 99.7859 25.3712C149.917 24.0761 169.797 44.6795 184.847 59.5032C194.369 68.8817 190.49 77.4645 158.515 72.5895" stroke="#FFE458" stroke-width="0.890723" stroke-dasharray="1.11 2.01"/>
<path d="M101.721 23.928H98.2773V27.3714H101.721V23.928Z" fill="#E27430"/>
<path d="M158.646 36.4882L155.664 34.7665L153.942 37.7485L156.924 39.4702L158.646 36.4882Z" fill="#E27430"/>
<path d="M36.3758 67.6295C36.3758 69.0363 35.2352 70.1768 33.8285 70.1768C32.4217 70.1768 31.2812 69.0363 31.2812 67.6295C31.2812 66.2228 32.4217 65.0823 33.8285 65.0823C35.2352 65.0823 36.3758 66.2228 36.3758 67.6295Z" fill="#F1F2F2"/>
<path d="M158.211 74.4565C159.618 74.4565 160.758 73.316 160.758 71.9093C160.758 70.5025 159.618 69.3621 158.211 69.3621C156.804 69.3621 155.664 70.5025 155.664 71.9093C155.664 73.316 156.804 74.4565 158.211 74.4565Z" fill="#F1F2F2"/>
<path d="M98.9615 104.904C100.707 99.7448 98.6573 97.1075 97.7793 89.6615C101.527 87.4075 111.957 83.941 112.765 91.1908C113.647 99.1048 115.732 101.628 114.582 106.615C113.261 112.342 95.9008 113.953 98.9615 104.904Z" fill="#D08E0D"/>
<path d="M94.755 89.1286C95.8947 88.7977 96.2912 86.7135 95.6407 84.4735C94.9903 82.2335 93.5391 80.6859 92.3995 81.0169C91.2598 81.3478 90.8632 83.432 91.5137 85.672C92.1642 87.912 93.6154 89.4596 94.755 89.1286Z" fill="#D08E0D"/>
<path fill-rule="evenodd" clip-rule="evenodd" d="M94.4143 89.173C93.8958 87.9255 93.5628 86.2808 93.2431 84.6998C92.9663 83.3323 92.6993 82.0128 92.3301 81.039C92.3526 81.0308 92.3751 81.0235 92.3981 81.0168C92.6826 80.9343 92.9866 80.9688 93.2926 81.1018L94.3031 81.8925C94.4656 82.0783 94.6226 82.2888 94.7713 82.5208L95.8468 87.62C95.6756 88.4083 95.3001 88.97 94.7536 89.1285C94.6431 89.1608 94.5298 89.175 94.4143 89.173Z" fill="#B87B05"/>
<path d="M115.724 89.1286C114.584 88.7977 114.187 86.7135 114.838 84.4735C115.488 82.2335 116.939 80.6859 118.079 81.0169C119.219 81.3478 119.615 83.432 118.965 85.672C118.314 87.912 116.863 89.4596 115.724 89.1286Z" fill="#D08E0D"/>
<path d="M99.2579 97.636C99.1464 97.0687 99.0171 96.4797 98.8804 95.8547C98.7626 95.3172 98.6391 94.7532 98.5156 94.154C99.6774 94.4602 101.068 95.293 102.472 96.1337C104.457 97.322 106.468 98.5265 107.897 98.2832C107.778 98.3312 107.645 98.39 107.499 98.4545C106.062 99.09 103.334 100.296 99.2579 97.636Z" fill="#B87B05"/>
<path d="M104.633 71.3925C98.8316 71.3925 92.3516 65.8312 92.3516 72.1495C93.0196 77.7747 94.2841 89.8582 95.0703 91.2345C95.8568 92.6105 98.9426 95.097 100.253 96.413C102.014 97.7418 104.159 98.4605 106.365 98.4605C108.232 98.4605 109.831 97.8262 111.629 96.6517C113.887 95.176 114.875 92.9085 115.588 91.2728L115.604 91.2345C116.755 88.5935 116.444 86.3855 117.078 82.1533C117.078 78.9343 118.577 72.0002 116.313 70.7947C114.133 69.6342 107.479 71.3925 104.633 71.3925Z" fill="#F5B73C"/>
<path d="M103.973 92.6402C103.88 92.54 103.723 92.534 103.622 92.627C103.522 92.7202 103.516 92.877 103.609 92.9775L103.973 92.6402ZM107.965 92.8835C108.067 92.7912 108.074 92.6345 107.982 92.5332C107.89 92.4317 107.733 92.4242 107.632 92.5165L107.965 92.8835ZM103.609 92.9775C104.186 93.5995 104.988 93.842 105.78 93.7982C106.57 93.7545 107.368 93.4262 107.965 92.8835L107.632 92.5165C107.12 92.982 106.43 93.2657 105.753 93.3032C105.077 93.3405 104.43 93.1335 103.973 92.6402L103.609 92.9775Z" fill="#D08E0D"/>
<path d="M99.035 79.2385H101.459L95.9822 86.2415L94.5332 84.5718L99.035 79.2385Z" fill="white" fill-opacity="0.392"/>
<path d="M102.417 81.4772L103.055 82.1405L98.4158 87.8607L97.5293 87.224L102.417 81.4772Z" fill="white" fill-opacity="0.392"/>
<path d="M111.83 78.9092L113.943 79.561L108.601 86.1932L107.328 84.2425L111.83 78.9092Z" fill="white" fill-opacity="0.392"/>
<path d="M115.211 81.1483L115.85 81.8113L111.21 87.5315L110.324 86.8948L115.211 81.1483Z" fill="white" fill-opacity="0.392"/>
<path d="M98.9023 87.5779C101.309 87.5779 103.26 85.6271 103.26 83.2205C103.26 80.814 101.309 78.8631 98.9023 78.8631C96.4958 78.8631 94.5449 80.814 94.5449 83.2205C94.5449 85.6271 96.4958 87.5779 98.9023 87.5779Z" stroke="#005B9D" stroke-width="0.991615"/>
<path d="M111.6 87.5779C114.006 87.5779 115.957 85.6271 115.957 83.2205C115.957 80.814 114.006 78.8631 111.6 78.8631C109.193 78.8631 107.242 80.814 107.242 83.2205C107.242 85.6271 109.193 87.5779 111.6 87.5779Z" stroke="#005B9D" stroke-width="0.991615"/>
<path d="M107.263 88.1095L105.304 82.7955L103.637 88.1095C103.637 88.1095 104.348 88.9355 105.479 88.9045C106.61 88.8738 107.263 88.1095 107.263 88.1095Z" fill="#D08E0D"/>
<path d="M116.396 77.3053C116.564 77.6068 116.456 77.9875 116.155 78.1555C115.853 78.3238 115.473 78.2155 115.305 77.9143L116.396 77.3053ZM110.353 76.5855C110.034 76.7188 109.668 76.5688 109.535 76.2503C109.402 75.9318 109.552 75.5658 109.87 75.4325L110.353 76.5855ZM115.305 77.9143C115.061 77.4775 114.508 76.8498 113.68 76.4815C112.874 76.1238 111.77 75.9925 110.353 76.5855L109.87 75.4325C111.596 74.71 113.059 74.8383 114.187 75.3393C115.291 75.8298 116.036 76.6603 116.396 77.3053L115.305 77.9143Z" fill="#FBFBF6"/>
<path d="M45.9868 34.9001L42.7383 36.088L43.9262 39.3366L47.1747 38.1487L45.9868 34.9001Z" fill="#E27430"/>
<path d="M117.128 81.2243C117.046 81.3253 116.514 74.582 116.133 71.746L116.705 71.0495C116.954 71.0495 117.357 72.3778 117.576 73.4128C117.849 74.7063 117.328 80.978 117.128 81.2243Z" fill="#9C9238"/>
<path d="M93.7963 81.6955C94.4031 81.3815 94.4196 76.1402 94.3188 73.2527C94.1208 73.6707 93.0628 73.9952 92.5586 74.1052L93.4491 81.6955C93.4491 81.6955 93.5903 81.802 93.7963 81.6955Z" fill="#9C9238"/>
<path d="M104.546 60.2423C98.9906 65.0183 90.8413 64.7793 90.8413 64.7793C88.4753 65.7325 87.3298 68.4233 88.2831 70.7895C89.2363 73.1558 91.6853 76.0273 94.2933 73.348C103.855 74.207 124.75 73.797 122.39 64.7793C119.439 53.5068 110.101 55.4663 104.546 60.2423Z" fill="#F1F2F2"/>
<path d="M93.6121 78.32C93.4879 78.5667 93.5874 78.8672 93.8341 78.9915C94.0806 79.1155 94.3814 79.016 94.5054 78.7695L93.6121 78.32ZM100.7 76.7C100.971 76.7512 101.233 76.5732 101.284 76.3017C101.335 76.0305 101.157 75.7687 100.886 75.7175L100.7 76.7ZM94.5054 78.7695C94.9571 77.8715 96.8566 75.9712 100.7 76.7L100.886 75.7175C96.6089 74.9065 94.2664 77.0192 93.6121 78.32L94.5054 78.7695Z" fill="#FBFBF6"/>
</svg>
