<svg width="200" height="150" viewBox="0 0 200 150" fill="none" xmlns="http://www.w3.org/2000/svg">
<g clip-path="url(#clip0)">
<path d="M0 105.262C0 104.986 0.223857 104.762 0.5 104.762H103.043C104.424 104.762 105.543 105.882 105.543 107.262V117.065C105.543 118.446 104.424 119.565 103.043 119.565H0V105.262Z" fill="#3913B8"/>
<path d="M16.2963 97.9667L-0.287109 101.937H200.318V97.9667H16.2963Z" fill="#9F8AFF"/>
<path d="M200 125.039H124.322V150H200V125.039Z" fill="#3913B8"/>
<path d="M-0.419902 122.265H200.436M200.436 102.062H-0.419922H200.436Z" stroke="#005B9D" stroke-width="0.5"/>
<path d="M107.551 107.262C107.551 105.882 108.67 104.762 110.051 104.762H200V119.565H110.051C108.67 119.565 107.551 118.446 107.551 117.065V107.262Z" fill="#3913B8"/>
<path d="M166.511 111.286H158.131C157.568 111.286 157.111 111.742 157.111 112.305C157.111 112.869 157.568 113.325 158.131 113.325H166.511C167.074 113.325 167.53 112.869 167.53 112.305C167.53 111.742 167.074 111.286 166.511 111.286Z" fill="black" fill-opacity="0.27"/>
<path d="M166.59 111.286H157.927C157.442 111.286 157.049 111.679 157.049 112.164C157.049 112.649 157.442 113.042 157.927 113.042H166.59C167.075 113.042 167.468 112.649 167.468 112.164C167.468 111.679 167.075 111.286 166.59 111.286Z" fill="#9F8AFF"/>
<path d="M166.59 136.641H157.927C157.442 136.641 157.049 137.034 157.049 137.519C157.049 138.005 157.442 138.398 157.927 138.398H166.59C167.075 138.398 167.468 138.005 167.468 137.519C167.468 137.034 167.075 136.641 166.59 136.641Z" fill="#9F8AFF"/>
<path d="M57.3465 125.039H0V150H57.3465V125.039Z" fill="#3913B8"/>
<path d="M33.0036 136.641H24.3413C23.8562 136.641 23.4629 137.034 23.4629 137.519C23.4629 138.005 23.8562 138.398 24.3413 138.398H33.0036C33.4887 138.398 33.882 138.005 33.882 137.519C33.882 137.034 33.4887 136.641 33.0036 136.641Z" fill="#9F8AFF"/>
<path d="M34.3023 100.145C34.3023 100.433 29.281 100.424 25.4325 100.424C21.5838 100.424 20.8574 100.433 20.8574 100.145C20.8574 99.8567 21.5838 99.623 25.4325 99.623C29.2813 99.623 34.3023 99.8567 34.3023 100.145Z" fill="black" fill-opacity="0.5"/>
<path fill-rule="evenodd" clip-rule="evenodd" d="M22.8771 87.9142C22.0471 87.9142 21.3697 88.5885 21.4452 89.4147C21.8636 93.991 24.177 99.952 30.2615 99.952C36.6903 99.952 38.8735 93.9912 39.2615 89.4152C39.3318 88.5882 38.654 87.9142 37.824 87.9142H22.8771Z" fill="#3913B8"/>
<path d="M23.2405 58.4675C22.695 53.8367 28.9663 51.5377 31.5586 49.9017C30.5771 51.5377 25.7323 54.138 26.5626 57.637C27.4738 61.476 33.9606 58.285 35.7738 61.7895C38.1431 66.3687 29.3656 69.114 28.0691 74.1042C26.8368 78.8475 31.5586 86.5075 31.5586 86.5075C31.5586 86.5075 23.0215 78.1472 22.6365 74.8512C22.091 70.183 30.6153 69.8175 29.8091 65.187C29.1796 61.5717 23.6697 62.112 23.2405 58.4675Z" fill="#B5CDFB"/>
<path d="M30.9001 75.2155C30.6851 73.3908 34.2036 71.2058 35.2248 70.5613C34.8381 71.2058 32.3841 73.8368 32.7113 75.2155C33.0706 76.7285 35.8078 76.409 36.5223 77.79C37.2028 79.1048 33.4951 84.7098 33.4951 84.7098C33.4951 84.7098 34.0818 82.3338 33.4951 78.9638C33.2468 77.5393 31.0691 76.6518 30.9001 75.2155Z" fill="#B5CDFB"/>
<path d="M23.4674 68.707C23.6824 66.8822 20.164 64.6972 19.1425 64.0525C19.5293 64.6972 21.9833 67.3282 21.656 68.707C21.297 70.22 18.5595 69.9002 17.845 71.2812C17.1647 72.5962 22.7021 78.964 22.7021 78.964C22.7021 78.964 20.2856 75.8252 20.8725 72.4552C21.1205 71.0307 23.2983 70.1432 23.4674 68.707Z" fill="#B5CDFB"/>
<path d="M135.155 88.634H113.49V97.8584H135.155V88.634Z" fill="#3913B8"/>
<path d="M113.49 88.634H135.155V89.713L113.49 91.508V88.634Z" fill="black" fill-opacity="0.5"/>
<path d="M158.486 97.8583H90.1562V100.313H158.486V97.8583Z" fill="#3913B8"/>
<path d="M175.357 35.2397H73.2871C71.6303 35.2397 70.2871 36.5829 70.2871 38.2397V85.634C70.2871 87.2909 71.6303 88.634 73.2871 88.634H175.357C177.013 88.634 178.357 87.2909 178.357 85.634V38.2397C178.357 36.5829 177.013 35.2397 175.357 35.2397Z" fill="#3913B8"/>
<path d="M171.767 37.7872H76.877C75.2201 37.7872 73.877 39.1304 73.877 40.7872V83.0865C73.877 84.7433 75.2201 86.0865 76.877 86.0865H171.767C173.424 86.0865 174.767 84.7433 174.767 83.0865V40.7872C174.767 39.1304 173.424 37.7872 171.767 37.7872Z" fill="white"/>
<path d="M141.691 42.6175H83.0207C81.7548 42.6175 80.7285 43.6437 80.7285 44.9097V71.0513C80.7285 72.3172 81.7548 73.3435 83.0207 73.3435H141.691C142.957 73.3435 143.984 72.3172 143.984 71.0513V44.9097C143.984 43.6437 142.957 42.6175 141.691 42.6175Z" fill="#B5CDFB"/>
<path d="M143.984 68.6432V71.0512C143.984 72.3172 142.957 73.3435 141.691 73.3435H83.0208C81.7548 73.3435 80.7285 72.3172 80.7285 71.0512V68.6432H143.984Z" fill="black" fill-opacity="0.14"/>
<path d="M115.905 53.7828H105.874C105.149 53.7828 104.561 54.3709 104.561 55.0964V61.0768C104.561 61.8023 105.149 62.3905 105.874 62.3905H115.905C116.631 62.3905 117.219 61.8023 117.219 61.0768V55.0964C117.219 54.3709 116.631 53.7828 115.905 53.7828Z" fill="#3913B8"/>
<path d="M112.993 57.8083C113.208 57.932 113.208 58.2413 112.993 58.365L110.08 60.047C109.866 60.1708 109.598 60.0163 109.598 59.7688V56.4043C109.598 56.157 109.866 56.0023 110.08 56.126L112.993 57.8083Z" fill="#B5CDFB"/>
<path d="M143.984 75.541H80.7285V77.2074H143.984V75.541Z" fill="black" fill-opacity="0.14"/>
<path d="M143.984 79.1603H80.7285V86.0866H143.984V79.1603Z" fill="black" fill-opacity="0.14"/>
<path d="M157.27 42.6175H150.291C149.748 42.6175 149.309 43.0573 149.309 43.5998V48.2868C149.309 48.8293 149.748 49.2691 150.291 49.2691H157.27C157.813 49.2691 158.252 48.8293 158.252 48.2868V43.5998C158.252 43.0573 157.813 42.6175 157.27 42.6175Z" fill="#B5CDFB"/>
<path d="M168.122 42.6175H161.143C160.6 42.6175 160.16 43.0573 160.16 43.5998V48.2868C160.16 48.8293 160.6 49.2691 161.143 49.2691H168.122C168.664 49.2691 169.104 48.8293 169.104 48.2868V43.5998C169.104 43.0573 168.664 42.6175 168.122 42.6175Z" fill="#B5CDFB"/>
<path d="M157.27 51.176H150.291C149.748 51.176 149.309 51.6158 149.309 52.1584V56.8453C149.309 57.3878 149.748 57.8277 150.291 57.8277H157.27C157.813 57.8277 158.252 57.3878 158.252 56.8453V52.1584C158.252 51.6158 157.813 51.176 157.27 51.176Z" fill="#B5CDFB"/>
<path d="M168.122 51.176H161.143C160.6 51.176 160.16 51.6158 160.16 52.1584V56.8453C160.16 57.3878 160.6 57.8277 161.143 57.8277H168.122C168.664 57.8277 169.104 57.3878 169.104 56.8453V52.1584C169.104 51.6158 168.664 51.176 168.122 51.176Z" fill="#B5CDFB"/>
<path d="M157.27 59.7343H150.291C149.748 59.7343 149.309 60.1741 149.309 60.7166V65.4035C149.309 65.9461 149.748 66.3859 150.291 66.3859H157.27C157.813 66.3859 158.252 65.9461 158.252 65.4035V60.7166C158.252 60.1741 157.813 59.7343 157.27 59.7343Z" fill="#B5CDFB"/>
<path d="M168.122 59.7343H161.143C160.6 59.7343 160.16 60.1741 160.16 60.7166V65.4035C160.16 65.9461 160.6 66.3859 161.143 66.3859H168.122C168.664 66.3859 169.104 65.9461 169.104 65.4035V60.7166C169.104 60.1741 168.664 59.7343 168.122 59.7343Z" fill="#B5CDFB"/>
<path d="M157.27 68.2925H150.291C149.748 68.2925 149.309 68.7323 149.309 69.2748V73.9618C149.309 74.5043 149.748 74.9441 150.291 74.9441H157.27C157.813 74.9441 158.252 74.5043 158.252 73.9618V69.2748C158.252 68.7323 157.813 68.2925 157.27 68.2925Z" fill="#B5CDFB"/>
<path d="M168.122 68.2925H161.143C160.6 68.2925 160.16 68.7323 160.16 69.2748V73.9618C160.16 74.5043 160.6 74.9441 161.143 74.9441H168.122C168.664 74.9441 169.104 74.5043 169.104 73.9618V69.2748C169.104 68.7323 168.664 68.2925 168.122 68.2925Z" fill="#B5CDFB"/>
<path d="M157.27 76.851H150.291C149.748 76.851 149.309 77.2908 149.309 77.8334V82.5203C149.309 83.0628 149.748 83.5026 150.291 83.5026H157.27C157.813 83.5026 158.252 83.0628 158.252 82.5203V77.8334C158.252 77.2908 157.813 76.851 157.27 76.851Z" fill="#B5CDFB"/>
<path d="M168.122 76.851H161.143C160.6 76.851 160.16 77.2908 160.16 77.8334V82.5203C160.16 83.0628 160.6 83.5026 161.143 83.5026H168.122C168.664 83.5026 169.104 83.0628 169.104 82.5203V77.8334C169.104 77.2908 168.664 76.851 168.122 76.851Z" fill="#B5CDFB"/>
<path d="M155.174 45.759C155.316 45.841 155.316 46.0458 155.174 46.1275L153.245 47.2413C153.103 47.323 152.926 47.2208 152.926 47.0568V44.8298C152.926 44.666 153.103 44.5635 153.245 44.6455L155.174 45.759Z" fill="#3913B8"/>
<path d="M166.023 45.759C166.165 45.841 166.165 46.0458 166.023 46.1275L164.094 47.2413C163.953 47.323 163.775 47.2208 163.775 47.0568V44.8298C163.775 44.666 163.953 44.5635 164.094 44.6455L166.023 45.759Z" fill="#3913B8"/>
<path d="M155.174 54.3175C155.316 54.3992 155.316 54.604 155.174 54.686L153.245 55.7995C153.103 55.8815 152.926 55.779 152.926 55.6152V53.3882C152.926 53.2242 153.103 53.122 153.245 53.2037L155.174 54.3175Z" fill="#3913B8"/>
<path d="M166.023 54.3175C166.165 54.3992 166.165 54.604 166.023 54.686L164.094 55.7995C163.953 55.8815 163.775 55.779 163.775 55.6152V53.3882C163.775 53.2242 163.953 53.122 164.094 53.2037L166.023 54.3175Z" fill="#3913B8"/>
<path d="M155.174 62.8758C155.316 62.9578 155.316 63.1625 155.174 63.2445L153.245 64.358C153.103 64.4398 152.926 64.3375 152.926 64.1738V61.9465C152.926 61.7828 153.103 61.6805 153.245 61.7623L155.174 62.8758Z" fill="#3913B8"/>
<path d="M166.023 62.8758C166.165 62.9578 166.165 63.1625 166.023 63.2445L164.094 64.358C163.953 64.4398 163.775 64.3375 163.775 64.1738V61.9465C163.775 61.7828 163.953 61.6805 164.094 61.7623L166.023 62.8758Z" fill="#3913B8"/>
<path d="M155.174 71.4343C155.316 71.5163 155.316 71.721 155.174 71.803L153.245 72.9165C153.103 72.9983 152.926 72.896 152.926 72.7323V70.505C152.926 70.3413 153.103 70.239 153.245 70.3208L155.174 71.4343Z" fill="#3913B8"/>
<path d="M166.023 71.4343C166.165 71.5163 166.165 71.721 166.023 71.803L164.094 72.9165C163.953 72.9983 163.775 72.896 163.775 72.7323V70.505C163.775 70.3413 163.953 70.239 164.094 70.3208L166.023 71.4343Z" fill="#3913B8"/>
<path d="M155.174 79.9927C155.316 80.0745 155.316 80.2792 155.174 80.3612L153.245 81.4747C153.103 81.5567 152.926 81.4542 152.926 81.2905V79.0635C152.926 78.8995 153.103 78.7972 153.245 78.8792L155.174 79.9927Z" fill="#3913B8"/>
<path d="M166.023 79.9925C166.165 80.0742 166.165 80.279 166.023 80.361L164.094 81.4745C163.953 81.5565 163.775 81.454 163.775 81.2902V79.0632C163.775 78.8992 163.953 78.797 164.094 78.879L166.023 79.9925Z" fill="#3913B8"/>
<g opacity="0.65">
<path opacity="0.65" d="M82.1465 68.6432H142.744" stroke="black" stroke-opacity="0.3" stroke-width="0.5" stroke-linecap="round"/>
<path opacity="0.65" d="M82.207 68.6432H100.196" stroke="#005B9D" stroke-width="0.75" stroke-linecap="round"/>
</g>
<path d="M25.5905 88.7347C26.4868 91.229 27.4863 94.01 29.9725 96.2042C31.3265 97.3992 32.921 98.0447 34.3068 98.606C34.4258 98.654 34.543 98.7015 34.6585 98.7487C33.481 99.4997 32.0323 99.952 30.2615 99.952C24.177 99.952 21.8636 93.991 21.4452 89.4147C21.3697 88.5885 22.0471 87.9142 22.8771 87.9142H25.2935C25.3925 88.1835 25.491 88.4575 25.5905 88.7347Z" fill="black" fill-opacity="0.2"/>
<g opacity="0.7">
<path opacity="0.7" d="M41.5211 39.3686C45.7402 38.1867 48.2023 33.8083 47.0203 29.5892C45.8384 25.3701 41.46 22.908 37.2409 24.0899C33.0218 25.2718 30.5597 29.6502 31.7416 33.8693C32.9236 38.0884 37.302 40.5505 41.5211 39.3686Z" fill="#9F8AFF"/>
<path opacity="0.7" fill-rule="evenodd" clip-rule="evenodd" d="M35.7129 34.225C35.7129 34.225 37.8054 37.128 40.6684 36.326C43.8044 35.4475 43.8111 31.9565 43.8111 31.9565C43.8111 31.9565 42.0909 34.4617 40.2876 34.9667C38.4841 35.472 35.7129 34.225 35.7129 34.225Z" fill="black"/>
<path opacity="0.7" d="M36.7326 31.5408C37.1737 31.4172 37.4311 30.9594 37.3076 30.5183C37.184 30.0771 36.7262 29.8197 36.2851 29.9433C35.8439 30.0669 35.5865 30.5247 35.7101 30.9658C35.8337 31.4069 36.2914 31.6644 36.7326 31.5408Z" fill="black"/>
<path opacity="0.7" d="M41.5451 30.1923C41.9862 30.0687 42.2436 29.6109 42.1201 29.1698C41.9965 28.7286 41.5387 28.4712 41.0976 28.5948C40.6564 28.7184 40.399 29.1761 40.5226 29.6173C40.6462 30.0584 41.104 30.3158 41.5451 30.1923Z" fill="black"/>
</g>
<g opacity="0.7">
<path opacity="0.7" d="M19.9661 16.3165C21.4268 16.8081 23.0094 16.0225 23.501 14.5619C23.9926 13.1012 23.207 11.5186 21.7463 11.027C20.2857 10.5354 18.703 11.3209 18.2114 12.7816C17.7198 14.2423 18.5054 15.8249 19.9661 16.3165Z" fill="#9F8AFF"/>
<path opacity="0.7" fill-rule="evenodd" clip-rule="evenodd" d="M19.2969 13.6713C19.2969 13.6713 19.3306 14.9295 20.3217 15.2631C21.4074 15.6285 22.1005 14.6148 22.1005 14.6148C22.1005 14.6148 21.1044 15.0027 20.4801 14.7925C19.8557 14.5824 19.2969 13.6713 19.2969 13.6713Z" fill="black"/>
<path opacity="0.7" d="M20.1236 13.0925C20.2763 13.1439 20.4418 13.0618 20.4932 12.9091C20.5446 12.7564 20.4625 12.5909 20.3097 12.5395C20.157 12.4881 19.9915 12.5702 19.9401 12.7229C19.8887 12.8757 19.9709 13.0411 20.1236 13.0925Z" fill="black"/>
<path opacity="0.7" d="M21.7916 13.6534C21.9443 13.7048 22.1098 13.6227 22.1612 13.47C22.2126 13.3173 22.1304 13.1518 21.9777 13.1004C21.825 13.049 21.6595 13.1311 21.6081 13.2839C21.5567 13.4366 21.6388 13.602 21.7916 13.6534Z" fill="black"/>
</g>
<g opacity="0.6">
<path opacity="0.6" d="M76.4982 15.7472C79.2376 15.9832 81.6497 13.9538 81.8856 11.2143C82.1216 8.47491 80.0922 6.06289 77.3527 5.82692C74.6133 5.59095 72.2013 7.6204 71.9653 10.3598C71.7294 13.0992 73.7588 15.5113 76.4982 15.7472Z" fill="#9F8AFF"/>
<path opacity="0.6" fill-rule="evenodd" clip-rule="evenodd" d="M74.2188 11.4446C74.2188 11.4446 74.808 13.6116 76.6667 13.7717C78.703 13.9471 79.4767 11.8975 79.4767 11.8975C79.4767 11.8975 77.9137 12.99 76.7427 12.8891C75.572 12.7883 74.2188 11.4446 74.2188 11.4446Z" fill="black"/>
<path opacity="0.6" d="M75.4097 10.0921C75.6962 10.1168 75.9483 9.90463 75.973 9.61821C75.9977 9.33179 75.7855 9.0796 75.4991 9.05493C75.2127 9.03025 74.9605 9.24244 74.9358 9.52887C74.9111 9.81529 75.1233 10.0675 75.4097 10.0921Z" fill="black"/>
<path opacity="0.6" d="M78.5347 10.3613C78.8212 10.386 79.0734 10.1738 79.098 9.88738C79.1227 9.60095 78.9105 9.34876 78.6241 9.32409C78.3377 9.29942 78.0855 9.51161 78.0608 9.79803C78.0361 10.0845 78.2483 10.3366 78.5347 10.3613Z" fill="black"/>
</g>
<g opacity="0.5">
<path opacity="0.5" d="M10.3806 52.9806C12.4303 52.4738 13.6811 50.4013 13.1743 48.3516C12.6675 46.3019 10.595 45.0511 8.54532 45.5579C6.49561 46.0647 5.24483 48.1371 5.75163 50.1869C6.25843 52.2366 8.3309 53.4874 10.3806 52.9806Z" fill="#9F8AFF"/>
<path opacity="0.5" fill-rule="evenodd" clip-rule="evenodd" d="M7.66016 50.417C7.66016 50.417 8.62503 51.8462 10.0159 51.5025C11.5394 51.1257 11.5944 49.4442 11.5944 49.4442C11.5944 49.4442 10.7287 50.6255 9.85261 50.842C8.97648 51.0587 7.66016 50.417 7.66016 50.417Z" fill="black"/>
<path opacity="0.5" d="M8.18931 49.1391C8.40362 49.0861 8.53439 48.8694 8.4814 48.6551C8.42841 48.4408 8.21173 48.31 7.99742 48.363C7.78311 48.416 7.65233 48.6327 7.70532 48.847C7.75831 49.0613 7.975 49.192 8.18931 49.1391Z" fill="black"/>
<path opacity="0.5" d="M10.5292 48.5608C10.7435 48.5078 10.8742 48.2911 10.8212 48.0768C10.7683 47.8625 10.5516 47.7317 10.3373 47.7847C10.123 47.8377 9.99217 48.0543 10.0452 48.2687C10.0982 48.483 10.3148 48.6137 10.5292 48.5608Z" fill="black"/>
</g>
<path d="M98.5493 30.9865C100.541 31.6863 102.724 30.6387 103.423 28.6466C104.123 26.6545 103.076 24.4723 101.084 23.7725C99.0915 23.0727 96.9093 24.1203 96.2094 26.1124C95.5096 28.1045 96.5572 30.2867 98.5493 30.9865Z" fill="#9F8AFF"/>
<path fill-rule="evenodd" clip-rule="evenodd" d="M97.6797 27.3508C97.6797 27.3508 97.7029 29.075 99.0547 29.55C100.535 30.0703 101.503 28.694 101.503 28.694C101.503 28.694 100.132 29.2073 99.2802 28.9083C98.4287 28.609 97.6797 27.3508 97.6797 27.3508Z" fill="black"/>
<path d="M98.8231 26.5729C99.0314 26.6461 99.2595 26.5365 99.3327 26.3283C99.4059 26.12 99.2964 25.8918 99.0881 25.8186C98.8798 25.7455 98.6516 25.855 98.5785 26.0633C98.5053 26.2716 98.6148 26.4997 98.8231 26.5729Z" fill="black"/>
<path d="M101.097 27.3714C101.305 27.4445 101.533 27.335 101.606 27.1267C101.679 26.9184 101.57 26.6903 101.362 26.6171C101.153 26.5439 100.925 26.6535 100.852 26.8618C100.779 27.07 100.888 27.2982 101.097 27.3714Z" fill="black"/>
<path d="M133.066 14.4268C135.173 14.288 136.768 12.4674 136.629 10.3606C136.49 8.2537 134.67 6.65831 132.563 6.79717C130.456 6.93602 128.861 8.75654 128.999 10.8634C129.138 12.9703 130.959 14.5657 133.066 14.4268Z" fill="#9F8AFF"/>
<path fill-rule="evenodd" clip-rule="evenodd" d="M130.838 11.4251C130.838 11.4251 131.537 13.0017 132.966 12.9074C134.532 12.8042 134.882 11.1586 134.882 11.1586C134.882 11.1586 133.822 12.1693 132.921 12.2287C132.021 12.288 130.838 11.4251 130.838 11.4251Z" fill="black"/>
<path d="M131.584 10.2603C131.805 10.2457 131.971 10.0554 131.957 9.83512C131.942 9.61483 131.752 9.44803 131.532 9.46254C131.311 9.47706 131.145 9.66741 131.159 9.88769C131.174 10.108 131.364 10.2748 131.584 10.2603Z" fill="black"/>
<path d="M133.987 10.1018C134.207 10.0873 134.374 9.89696 134.359 9.67667C134.345 9.45638 134.154 9.28958 133.934 9.3041C133.714 9.31861 133.547 9.50896 133.561 9.72924C133.576 9.94953 133.766 10.1163 133.987 10.1018Z" fill="black"/>
<path d="M96.3874 63.0302C98.3916 63.6945 100.555 62.6083 101.219 60.604C101.883 58.5998 100.797 56.4366 98.793 55.7723C96.7888 55.108 94.6255 56.1942 93.9613 58.1984C93.297 60.2026 94.3832 62.3659 96.3874 63.0302Z" fill="#9F8AFF"/>
<path fill-rule="evenodd" clip-rule="evenodd" d="M95.4531 59.4105C95.4531 59.4105 95.5071 61.1343 96.8671 61.585C98.3569 62.0788 99.2999 60.6855 99.2999 60.6855C99.2999 60.6855 97.9376 61.2233 97.0811 60.9393C96.2244 60.6553 95.4531 59.4105 95.4531 59.4105Z" fill="black"/>
<path d="M96.583 58.6124C96.7925 58.6819 97.0187 58.5683 97.0882 58.3587C97.1576 58.1492 97.0441 57.923 96.8345 57.8535C96.625 57.7841 96.3988 57.8977 96.3293 58.1072C96.2599 58.3168 96.3734 58.5429 96.583 58.6124Z" fill="black"/>
<path d="M98.8681 59.3705C99.0777 59.4399 99.3039 59.3263 99.3733 59.1168C99.4428 58.9072 99.3292 58.6811 99.1197 58.6116C98.9101 58.5421 98.6839 58.6557 98.6145 58.8653C98.545 59.0748 98.6586 59.301 98.8681 59.3705Z" fill="black"/>
<path d="M176.826 100.273C176.857 100.424 173.799 100.424 169.95 100.424C166.101 100.424 165.375 100.433 165.375 100.145C165.375 99.8567 166.101 99.623 169.95 99.623C173.799 99.623 176.726 99.7815 176.826 100.273Z" fill="black" fill-opacity="0.37"/>
<path fill-rule="evenodd" clip-rule="evenodd" d="M167.952 100.217C167.475 100.212 167.056 99.8703 167.034 99.394C166.928 97.0533 168.472 95.7208 170.744 95.7208C173.783 95.7208 176.918 97.5025 176.918 99.7475C176.918 100.077 176.625 100.311 176.296 100.307L167.952 100.217Z" fill="#B5CDFB"/>
<path d="M90.9873 55.5472C91.2816 55.1645 90.3738 52.3707 89.8833 51.0215L89.2578 56.32C89.7116 56.2217 90.6928 55.93 90.9873 55.5472Z" fill="#3913B8"/>
<path d="M87.8455 63.4075C90.2288 60.939 91.1345 49.8037 90.425 44.9095L73.615 46.399C72.5865 51.5767 72.1223 53.5937 75.1013 57.3387C78.825 62.02 84.8665 66.4927 87.8455 63.4075Z" fill="#3913B8"/>
<path d="M84.9581 70.5383C82.5721 68.8863 83.1226 63.579 83.6961 61.1317C80.3006 57.7362 76.0868 61.2465 74.4043 63.426L75.4368 73.9798C79.6045 73.5208 87.3441 72.19 84.9581 70.5383Z" fill="#3913B8"/>
<path d="M82.1039 62.4285C82.1039 62.4285 85.3984 58.8252 84.6454 57.6777C84.3049 57.1587 83.6009 53.8772 85.1751 52.2105C87.7914 52.4855 90.3624 50.6787 90.9066 49.1257C89.8669 49.4245 81.4896 51.7242 81.3176 52.4127C81.1024 53.2732 80.7439 54.349 80.5646 54.7435C80.3854 55.1377 78.8076 63.2415 78.5926 63.7435C78.4204 64.145 78.2339 67.0422 78.1621 68.4407C79.3694 69.1457 84.2841 69.087 83.2671 68.8502C79.8701 68.0592 82.1039 62.4285 82.1039 62.4285Z" fill="black" fill-opacity="0.36"/>
<path d="M113.903 102.376C113.903 121.952 93.0958 133.278 77.6793 133.278C62.2625 133.278 46.873 127.662 46.873 108.086C46.873 88.5098 63.6853 73.3298 79.102 73.3298C94.5188 73.3298 108.697 83.116 113.903 102.376Z" fill="#3913B8"/>
<path d="M122.686 108.429C121.945 101.592 105.646 81.461 94.3008 76.9962L94.9928 84.2167C99.717 97.1917 108.593 116.184 112.441 118.589C117.252 121.596 123.313 114.204 122.686 108.429Z" fill="#3913B8"/>
<path d="M65.5396 69.0227L85.9916 68.4717C87.0456 69.5312 88.8793 73.42 88.6778 74.1975C88.3438 75.4857 64.5558 79.8457 62.0176 75.712C60.8216 73.764 64.1638 69.0227 65.5396 69.0227Z" fill="#B5CDFB"/>
<path d="M68.0421 75.7912C77.7044 75.282 87.0596 75.865 86.3799 77.7997C85.1769 81.224 82.6459 84.6222 73.2989 86.8432L79.6244 87.9797C79.6244 87.9797 82.1031 88.1595 83.2476 88.242C98.5481 89.3455 102.817 89.6535 107.295 92.2365C113.1 95.586 120.806 101.213 118.215 117.871C118.204 117.937 118.194 118.002 118.182 118.067C116.394 119.351 114.323 119.765 112.442 118.589C111.786 118.179 110.984 117.287 110.081 116.024C107.961 119.52 105.088 122.527 101.792 125.005C94.6836 123.946 87.2451 121.164 83.8651 119.9C82.8356 119.515 82.1826 119.271 82.0304 119.259C81.0679 119.185 59.9126 107.198 49.4554 101.213L47.9219 99.7095C51.7976 85.1803 62.9501 77.71 68.0421 75.7912Z" fill="black" fill-opacity="0.36"/>
<path d="M42.9061 114.813C40.1626 102.334 49.6631 90.518 62.4396 90.518H97.5836C108.089 90.518 116.804 98.6458 117.535 109.126L120.365 149.676H50.5709L42.9061 114.813Z" fill="#B5CDFB"/>
<path d="M38.0224 113.993C35.8622 101.746 45.2829 90.518 57.7184 90.518H89.0794C99.4777 90.518 108.141 98.486 109.01 108.848L112.458 150H44.3744L38.0224 113.993Z" fill="#9F8AFF"/>
<path d="M80.8542 60.0433C79.6317 66.7875 79.0587 69.949 85.9557 76.1563C84.1487 79.015 83.8382 82.802 75.5712 84.8108C69.3657 86.3188 63.3864 82.694 63.3864 82.694C63.3864 82.694 64.3114 81.34 64.6864 80.3698C65.0854 79.338 65.3009 77.6045 65.3009 77.6045C65.3009 77.6045 61.4217 82.318 60.2904 81.5085C59.1592 80.699 57.9992 79.661 56.7852 78.3498C73.0527 67.7083 50.5114 43.3035 70.7012 40.9418C73.3104 35.7195 80.8844 34.8875 84.9774 34.8875C88.0752 34.8875 92.2072 37.1483 92.6222 41.7955C93.0372 46.4428 92.4769 50.6625 86.5174 51.0143C82.9172 51.2268 82.0497 53.4438 80.8844 59.8765L80.8542 60.0433Z" fill="#9F8AFF"/>
<path d="M69.1948 90.518C64.2933 92.6403 59.5108 97.1838 63.4965 104.408C66.5495 109.942 64.7898 115.676 63.4965 121.059C62.1555 126.64 60.9263 131.756 64.8828 135.614C69.73 140.34 78.9855 146.16 85.654 150H44.3743L38.0225 113.993C35.862 101.746 45.2828 90.518 57.7183 90.518H69.1948Z" fill="black" fill-opacity="0.06"/>
<path d="M83.2408 60.019C85.77 56.5938 78.0238 53.5445 89.0988 49.0423L78.4258 48.6693L80.2358 69.9928C79.7425 64.1818 81.1988 62.784 83.2408 60.019Z" fill="#9F8AFF"/>
<path d="M83.5568 54.1743C83.775 51.9443 85.3717 51.5545 85.929 51.667C87.0997 51.9035 85.6965 54.1108 85.6362 55.3683C85.5495 57.178 85.992 57.9148 85.1222 57.9133C84.2522 57.9115 83.2838 56.9618 83.5568 54.1743Z" fill="#3913B8"/>
<path d="M83.5568 54.1743C83.775 51.9443 85.3717 51.5545 85.929 51.667C87.0997 51.9035 85.6965 54.1108 85.6362 55.3683C85.5495 57.178 85.992 57.9148 85.1222 57.9133C84.2522 57.9115 83.2838 56.9618 83.5568 54.1743Z" fill="white" fill-opacity="0.28"/>
</g>
<defs>
<clipPath id="clip0">
<rect width="200" height="150" fill="white"/>
</clipPath>
</defs>
</svg>
