<svg width="300" height="400" viewBox="0 0 300 400" fill="none" xmlns="http://www.w3.org/2000/svg">
<g filter="url(#filter0_dd)">
<rect x="20" y="20" width="240" height="360" rx="10" fill="url(#paint0_linear)"/>
<g clip-path="url(#clip0)">
<path d="M93.783 145.351H84.6445V151.339H93.783V145.351Z" fill="#F1F2F2"/>
<path d="M110.64 145.351H101.502V151.339H110.64V145.351Z" fill="#F1F2F2"/>
<path d="M99.913 145.351H95.3438V151.339H99.913V145.351Z" fill="#F1F2F2"/>
<path d="M109.734 164.649H108.598C106.64 164.649 105.051 163.06 105.051 161.102V159.967C105.051 158.008 106.64 156.419 108.598 156.419H109.734C111.692 156.419 113.281 158.008 113.281 159.967V161.102C113.253 163.06 111.692 164.649 109.734 164.649Z" fill="#F1F2F2"/>
<path d="M133.686 125.002H84.6445V126.364H133.686V125.002Z" fill="#F1F2F2"/>
<path d="M133.686 127.953H84.6445V129.316H133.686V127.953Z" fill="#F1F2F2"/>
<path d="M133.686 130.877H84.6445V132.239H133.686V130.877Z" fill="#F1F2F2"/>
<path d="M133.686 133.828H84.6445V135.191H133.686V133.828Z" fill="#F1F2F2"/>
<path d="M133.686 136.78H84.6445V138.142H133.686V136.78Z" fill="#F1F2F2"/>
<path d="M133.686 139.703H84.6445V141.065H133.686V139.703Z" fill="#F1F2F2"/>
<path opacity="0.2" d="M52.4606 92.1095C52.5174 98.495 71.0496 98.8072 72.7523 107.86C74.7958 118.645 49.9064 125.853 50.0199 142.257C50.0483 148.33 53.5107 155.482 58.761 157.299C68.8928 160.789 76.2716 140.214 91.8238 140.384C110.214 140.611 115.408 164.167 131.187 163.429C148.953 162.634 153.239 130.479 169.415 130.281C185.223 130.082 190.701 160.42 205.912 159.484C217.435 158.774 227.425 140.526 228.191 125.229C228.361 121.937 229.099 106.526 219.478 99.2327C209.204 91.485 195.128 98.7505 191.665 92.592C188.175 86.4617 200.577 76.8125 197.228 71.0797C194.333 66.1415 184.173 71.5622 168.678 68.866C148.159 65.3185 142.199 51.6676 132.493 55.4422C123.723 58.8478 126.703 70.7107 115.976 76.6422C107.972 81.0695 103.006 76.245 87.8791 77.0962C70.5103 78.0612 52.4038 85.7807 52.4606 92.1095Z" stroke="#F25C5C" stroke-width="0.5"/>
<path d="M168.934 173.164H56.804C56.7189 173.164 56.6621 173.107 56.6621 173.022C56.6621 172.937 56.7189 172.88 56.804 172.88H168.934C169.019 172.88 169.076 172.937 169.076 173.022C169.076 173.107 169.019 173.164 168.934 173.164Z" fill="#2F5373"/>
<path d="M84.5589 63.8714H74.8529C74.3136 63.8714 73.8594 63.4173 73.8594 62.8781C73.8594 62.3388 74.3136 61.8848 74.8529 61.8848H84.5589C85.0981 61.8848 85.5521 62.3388 85.5521 62.8781C85.5521 63.4173 85.0981 63.8714 84.5589 63.8714Z" fill="#F3E6DE"/>
<path d="M141.943 63.8714H132.237C131.698 63.8714 131.244 63.4173 131.244 62.8781C131.244 62.3388 131.698 61.8848 132.237 61.8848H141.943C142.483 61.8848 142.937 62.3388 142.937 62.8781C142.965 63.4173 142.511 63.8714 141.943 63.8714Z" fill="#F3E6DE"/>
<path d="M169.615 102.327H167.912V102.894H169.615V102.327Z" stroke="#F25C5C" stroke-width="0.5"/>
<path d="M218.004 102.894H214.541V102.327H218.004V102.894ZM211.079 102.894H207.617V102.327H211.079V102.894ZM204.183 102.894H200.72V102.327H204.183V102.894ZM197.258 102.894H193.796V102.327H197.258V102.894ZM190.362 102.894H186.899V102.327H190.362V102.894ZM183.437 102.894H179.974V102.327H183.437V102.894ZM176.54 102.894H173.078V102.327H176.54V102.894Z" stroke="#F25C5C" stroke-width="0.5"/>
<path d="M223.141 102.327H221.438V102.894H223.141V102.327Z" stroke="#F25C5C" stroke-width="0.5"/>
<path d="M208.042 61.6576V93.273C208.042 93.8123 207.929 94.3233 207.702 94.7773C207.134 95.9125 205.971 96.7355 204.608 96.7355H172.964C171.035 96.7355 169.502 95.1745 169.502 93.273V61.6576C169.502 59.7277 171.063 58.1952 172.964 58.1952H204.58C206.51 58.1668 208.042 59.7277 208.042 61.6576Z" fill="#F1F2F2"/>
<path opacity="0.16" d="M199.102 63.701C198.562 61.9415 196.774 60.7779 194.958 60.4941C195.441 60.3238 195.526 59.5859 195.213 59.1602C194.901 58.7345 194.362 58.5642 193.823 58.4791C193.539 58.4223 193.255 58.3656 193 58.3372C191.467 58.1385 190.077 57.3155 189.169 56.0951C187.636 53.995 184.457 51.5827 179.775 54.3923C178.072 53.7396 175.915 54.1369 174.95 55.8965C174.808 56.1803 174.695 56.4925 174.638 56.8046C174.354 58.5075 174.837 61.1752 176.028 61.8563C176.795 62.3104 177.902 62.651 179.15 62.9064C178.214 66.227 175.432 76.6425 176.426 77.2385C177.05 77.6072 180.144 78.26 183.18 78.544L183.351 79.821L184.003 84.9295C184.315 87.3132 186.472 88.9877 188.856 88.6755C191.24 88.3635 192.915 86.2065 192.603 83.8225L191.496 75.1667L191.382 74.372C191.666 73.7192 191.921 73.0382 192.177 72.357C193.057 72.6125 194.107 72.0165 194.334 71.1082C195.781 70.938 197.37 70.6825 198.25 69.5472C198.846 68.781 198.988 67.7877 199.102 66.8512C199.3 65.8295 199.414 64.7227 199.102 63.701Z" fill="#232323"/>
<path opacity="0.16" d="M208.042 91.4285V93.2732C208.042 93.8125 207.929 94.3232 207.702 94.7775C207.134 95.9125 205.97 96.7355 204.608 96.7355L197.258 80.871C199.244 80.9562 201.799 82.063 203.246 83.255C205.062 84.7592 206.935 88.562 208.042 91.4285Z" fill="#232323"/>
<path d="M209.573 99.6868H180.029C177.986 99.6868 176.34 98.0408 176.34 95.9973V66.482C176.34 64.4385 177.986 62.7925 180.029 62.7925H209.573C211.617 62.7925 213.263 64.4385 213.263 66.482V96.0258C213.263 98.0408 211.617 99.6868 209.573 99.6868ZM180.029 63.2182C178.241 63.2182 176.766 64.6656 176.766 66.482V96.0258C176.766 97.8138 178.213 99.2895 180.029 99.2895H209.573C211.361 99.2895 212.837 97.842 212.837 96.0258V66.482C212.837 64.694 211.389 63.2182 209.573 63.2182H180.029Z" fill="#232323"/>
<path d="M236.392 69.4052H228.843C228.247 69.4052 227.736 68.9227 227.736 68.2985V60.7777C227.736 60.1817 228.219 59.6709 228.843 59.6709H236.392C236.988 59.6709 237.499 60.1533 237.499 60.7777V68.2985C237.499 68.9227 237.017 69.4052 236.392 69.4052ZM228.872 60.0966C228.503 60.0966 228.19 60.4088 228.19 60.7777V68.2985C228.19 68.6675 228.503 68.9795 228.872 68.9795H236.421C236.79 68.9795 237.102 68.6675 237.102 68.2985V60.7777C237.102 60.4088 236.79 60.0966 236.421 60.0966H228.872Z" fill="#232323"/>
<path d="M236.392 83.2262H228.843C228.247 83.2262 227.736 82.7439 227.736 82.1194V74.5987C227.736 74.0027 228.219 73.4919 228.843 73.4919H236.392C236.988 73.4919 237.499 73.9744 237.499 74.5987V82.1479C237.499 82.7439 237.017 83.2262 236.392 83.2262ZM228.872 73.9177C228.503 73.9177 228.19 74.2297 228.19 74.5987V82.1479C228.19 82.5167 228.503 82.8289 228.872 82.8289H236.421C236.79 82.8289 237.102 82.5167 237.102 82.1479V74.5987C237.102 74.2297 236.79 73.9177 236.421 73.9177H228.872Z" fill="#232323"/>
<path d="M236.392 97.0478H228.843C228.247 97.0478 227.736 96.5653 227.736 95.9408V88.3918C227.736 87.7958 228.219 87.285 228.843 87.285H236.392C236.988 87.285 237.499 87.7675 237.499 88.3918V95.9408C237.499 96.5653 237.017 97.0478 236.392 97.0478ZM228.872 87.739C228.503 87.739 228.19 88.0513 228.19 88.42V95.9693C228.19 96.3383 228.503 96.6503 228.872 96.6503H236.421C236.79 96.6503 237.102 96.3383 237.102 95.9693V88.42C237.102 88.0513 236.79 87.739 236.421 87.739H228.872Z" fill="#232323"/>
<path d="M235.798 59.0748V67.1348C235.798 67.2768 235.77 67.3903 235.713 67.532C235.571 67.816 235.259 68.043 234.918 68.043H226.858C226.376 68.043 225.979 67.6458 225.979 67.1633V59.0748C225.979 58.5924 226.376 58.195 226.858 58.195H234.918C235.401 58.1667 235.798 58.564 235.798 59.0748Z" fill="#F1F2F2"/>
<path d="M235.798 72.8962V80.956C235.798 81.098 235.77 81.2115 235.713 81.3535C235.571 81.6372 235.259 81.8642 234.918 81.8642H226.858C226.376 81.8642 225.979 81.467 225.979 80.9845V72.8962C225.979 72.4137 226.376 72.0162 226.858 72.0162H234.918C235.401 72.0162 235.798 72.4137 235.798 72.8962Z" fill="#F1F2F2"/>
<path d="M235.798 86.717V94.777C235.798 94.919 235.77 95.0325 235.713 95.1745C235.571 95.4582 235.259 95.6852 234.918 95.6852H226.858C226.376 95.6852 225.979 95.288 225.979 94.8055V86.7455C225.979 86.263 226.376 85.8657 226.858 85.8657H234.918C235.401 85.8372 235.798 86.2347 235.798 86.717Z" fill="#F1F2F2"/>
<path d="M236.394 114.927H228.845C228.362 114.927 227.965 114.53 227.965 114.047V106.498C227.965 106.016 228.362 105.619 228.845 105.619H236.394C236.876 105.619 237.274 106.016 237.274 106.498V114.047C237.302 114.53 236.905 114.927 236.394 114.927Z" stroke="#F25C5C" stroke-width="0.5"/>
<path d="M236.394 128.777H228.845C228.362 128.777 227.965 128.38 227.965 127.897V120.348C227.965 119.865 228.362 119.468 228.845 119.468H236.394C236.876 119.468 237.274 119.865 237.274 120.348V127.897C237.302 128.38 236.905 128.777 236.394 128.777Z" stroke="#F25C5C" stroke-width="0.5"/>
<path d="M236.394 142.598H228.845C228.362 142.598 227.965 142.201 227.965 141.718V134.169C227.965 133.687 228.362 133.289 228.845 133.289H236.394C236.876 133.289 237.274 133.687 237.274 134.169V141.718C237.302 142.201 236.905 142.598 236.394 142.598Z" stroke="#F25C5C" stroke-width="0.5"/>
<path d="M234.917 113.962H226.857C226.261 113.962 225.75 113.48 225.75 112.855V104.795C225.75 104.199 226.232 103.689 226.857 103.689H234.917C235.513 103.689 236.023 104.171 236.023 104.795V112.855C236.023 113.026 235.995 113.196 235.91 113.338C235.711 113.735 235.342 113.962 234.917 113.962ZM226.857 104.143C226.488 104.143 226.176 104.455 226.176 104.824V112.884C226.176 113.253 226.488 113.565 226.857 113.565H234.917C235.172 113.565 235.399 113.423 235.513 113.196C235.57 113.111 235.57 112.997 235.57 112.912V104.852C235.57 104.483 235.257 104.171 234.888 104.171H226.857V104.143Z" fill="#232323"/>
<path d="M234.917 127.812H226.857C226.261 127.812 225.75 127.329 225.75 126.705V118.645C225.75 118.049 226.232 117.538 226.857 117.538H234.917C235.513 117.538 236.023 118.021 236.023 118.645V126.705C236.023 126.875 235.995 127.046 235.91 127.187C235.711 127.556 235.342 127.812 234.917 127.812ZM226.857 117.964C226.488 117.964 226.176 118.276 226.176 118.645V126.705C226.176 127.074 226.488 127.386 226.857 127.386H234.917C235.172 127.386 235.399 127.244 235.513 127.017C235.57 126.932 235.57 126.819 235.57 126.733V118.673C235.57 118.304 235.257 117.992 234.888 117.992H226.857V117.964Z" fill="#232323"/>
<path d="M234.917 141.633H226.857C226.261 141.633 225.75 141.151 225.75 140.526V132.466C225.75 131.87 226.232 131.359 226.857 131.359H234.917C235.513 131.359 236.023 131.842 236.023 132.466V140.526C236.023 140.697 235.995 140.867 235.91 141.009C235.711 141.378 235.342 141.633 234.917 141.633ZM226.857 131.785C226.488 131.785 226.176 132.097 226.176 132.466V140.526C226.176 140.895 226.488 141.207 226.857 141.207H234.917C235.172 141.207 235.399 141.065 235.513 140.838C235.57 140.753 235.57 140.64 235.57 140.554V132.494C235.57 132.126 235.257 131.813 234.888 131.813H226.857V131.785Z" fill="#232323"/>
<path d="M138.226 100.113H138.027V71.2216H138.226C139.276 71.2216 140.128 72.0728 140.128 73.1231V98.2111C140.128 99.2611 139.276 100.113 138.226 100.113Z" fill="#F1F2F2"/>
<path d="M80.0751 131.331H80.2738V160.222H80.0751C79.0251 160.222 78.1738 159.371 78.1738 158.32V133.232C78.1738 132.182 79.0251 131.331 80.0751 131.331Z" fill="#F1F2F2"/>
<path d="M73.2637 113.622V83.6523C73.2637 82.3468 74.3137 81.2968 75.6192 81.2968H126.221C127.527 81.2968 128.577 82.3468 128.577 83.6523V113.622C128.577 114.927 127.527 115.977 126.221 115.977H75.6192C74.3137 115.977 73.2637 114.927 73.2637 113.622Z" fill="#2F5373"/>
<path opacity="0.1" d="M80.5019 81.2968H80.0762V115.977H80.5019V81.2968Z" fill="#D8D8D8"/>
<path d="M137.461 80.5873L155.284 95.884C155.284 95.884 163.826 118.191 155.199 130.167L148.189 135.077L150.856 108.967L138 90.8325L137.461 80.5873Z" fill="#F3E6DE"/>
<path d="M95.0306 96.9625H77.5768C76.6403 96.9625 75.9023 96.1962 75.9023 95.288V85.5252C75.9023 84.5887 76.6686 83.8507 77.5768 83.8507H95.0306C95.9671 83.8507 96.7051 84.617 96.7051 85.5252V95.2597C96.7051 96.1962 95.9671 96.9625 95.0306 96.9625Z" fill="#F3E6DE"/>
<path d="M122.815 63.3036H95.4854C91.9376 63.3036 89.0996 60.4372 89.0996 56.9181V53.853H129.229V56.8897C129.229 60.4372 126.363 63.3036 122.815 63.3036Z" fill="#F3E6DE"/>
<path d="M80.3032 81.5238C80.1897 81.5238 80.0762 81.4385 80.0762 81.2968V75.1383C80.0762 75.0248 80.1614 74.9113 80.3032 74.9113C80.4452 74.9113 80.5302 74.9963 80.5302 75.1383V81.2968C80.5019 81.4103 80.4167 81.5238 80.3032 81.5238Z" fill="#232323"/>
<path d="M132.806 168.849H85.4959C82.5159 168.849 80.0751 166.409 80.0751 163.429V115.977C80.0751 115.863 80.1604 115.75 80.3024 115.75C80.4441 115.75 80.5294 115.835 80.5294 115.977V163.4C80.5294 166.153 82.7714 168.395 85.5241 168.395H132.834C135.587 168.395 137.829 166.153 137.829 163.4V63.3886C137.829 60.6357 135.587 58.3937 132.834 58.3937H85.4959C82.7429 58.3937 80.5009 60.6357 80.5009 63.3886V69.2917C80.5009 69.4052 80.4159 69.5187 80.2739 69.5187C80.1321 69.5187 80.0469 69.4335 80.0469 69.2917V63.3886C80.0469 60.4087 82.4876 57.968 85.4674 57.968H132.777C135.757 57.968 138.198 60.4087 138.198 63.3886V163.4C138.226 166.409 135.814 168.849 132.806 168.849Z" fill="#232323"/>
<path d="M54.1641 81.4952V136.808H68.3259V81.4952H54.1641ZM59.9536 87.512H56.2642V83.8225H59.9536V87.512Z" stroke="#F25C5C" stroke-width="0.5"/>
<path d="M126.903 115.239H106.327C106.214 115.239 106.1 115.154 106.1 115.012C106.1 114.87 106.185 114.785 106.327 114.785H126.903C128.237 114.785 129.315 113.707 129.315 112.373V82.971C129.315 81.637 128.237 80.5585 126.903 80.5585H84.7016C84.5881 80.5585 84.4746 80.4735 84.4746 80.3315C84.4746 80.1897 84.5596 80.1045 84.7016 80.1045H126.903C128.464 80.1045 129.741 81.3815 129.741 82.9425V112.373C129.741 113.99 128.464 115.239 126.903 115.239Z" fill="#232323"/>
<path d="M83.623 87.512V93.188C83.623 93.6138 84.1055 93.8975 84.4745 93.642L88.5895 90.946C88.9018 90.7473 88.93 90.2648 88.618 90.0378L84.5028 87.0578C84.1338 86.8025 83.623 87.0578 83.623 87.512Z" stroke="#F25C5C" stroke-width="0.5"/>
<path d="M126.194 91.3998V95.2313C126.194 95.7988 125.74 96.2528 125.172 96.2528H119.666C119.099 96.2528 118.645 95.7988 118.645 95.2313V91.3998C118.645 90.8323 119.099 90.3783 119.666 90.3783H125.172C125.74 90.3783 126.194 90.8323 126.194 91.3998Z" fill="#F3E6DE"/>
<path d="M121.682 92.3368V94.4653C121.682 94.6355 121.852 94.7208 121.994 94.6355L123.526 93.614C123.64 93.5288 123.64 93.3585 123.526 93.2733L121.994 92.1665C121.88 92.053 121.682 92.1665 121.682 92.3368Z" stroke="#F25C5C" stroke-width="0.5"/>
<path d="M116.657 91.3998V95.2313C116.657 95.7988 116.203 96.2528 115.635 96.2528H110.129C109.562 96.2528 109.107 95.7988 109.107 95.2313V91.3998C109.107 90.8323 109.562 90.3783 110.129 90.3783H115.635C116.203 90.3783 116.657 90.8323 116.657 91.3998Z" fill="#F3E6DE"/>
<path d="M112.174 92.3368V94.4653C112.174 94.6355 112.344 94.7208 112.486 94.6355L114.018 93.614C114.132 93.5288 114.132 93.3585 114.018 93.2733L112.486 92.1665C112.344 92.053 112.174 92.1665 112.174 92.3368Z" stroke="#F25C5C" stroke-width="0.5"/>
<path d="M107.121 91.3998V95.2313C107.121 95.7988 106.667 96.2528 106.1 96.2528H100.594C100.026 96.2528 99.5723 95.7988 99.5723 95.2313V91.3998C99.5723 90.8323 100.026 90.3783 100.594 90.3783H106.1C106.667 90.3783 107.121 90.8323 107.121 91.3998Z" fill="#F3E6DE"/>
<path d="M102.639 92.3368V94.4653C102.639 94.6355 102.809 94.7208 102.951 94.6355L104.483 93.614C104.597 93.5288 104.597 93.3585 104.483 93.2733L102.951 92.1665C102.809 92.053 102.639 92.1665 102.639 92.3368Z" stroke="#F25C5C" stroke-width="0.5"/>
<path d="M126.194 99.091V102.922C126.194 103.49 125.74 103.944 125.172 103.944H119.666C119.099 103.944 118.645 103.49 118.645 102.922V99.091C118.645 98.5235 119.099 98.0693 119.666 98.0693H125.172C125.74 98.041 126.194 98.5235 126.194 99.091Z" fill="#F3E6DE"/>
<path d="M121.682 99.9992V102.128C121.682 102.298 121.852 102.383 121.994 102.298L123.526 101.276C123.64 101.191 123.64 101.021 123.526 100.936L121.994 99.829C121.88 99.744 121.682 99.829 121.682 99.9992Z" stroke="#F25C5C" stroke-width="0.5"/>
<path d="M116.657 99.091V102.922C116.657 103.49 116.203 103.944 115.635 103.944H110.129C109.562 103.944 109.107 103.49 109.107 102.922V99.091C109.107 98.5235 109.562 98.0693 110.129 98.0693H115.635C116.203 98.041 116.657 98.5235 116.657 99.091Z" fill="#F3E6DE"/>
<path d="M112.174 99.9992V102.128C112.174 102.298 112.344 102.383 112.486 102.298L114.018 101.276C114.132 101.191 114.132 101.021 114.018 100.936L112.486 99.829C112.344 99.744 112.174 99.829 112.174 99.9992Z" stroke="#F25C5C" stroke-width="0.5"/>
<path d="M107.121 99.091V102.922C107.121 103.49 106.667 103.944 106.1 103.944H100.594C100.026 103.944 99.5723 103.49 99.5723 102.922V99.091C99.5723 98.5235 100.026 98.0693 100.594 98.0693H106.1C106.667 98.041 107.121 98.5235 107.121 99.091Z" fill="#F3E6DE"/>
<path d="M102.639 99.9992V102.128C102.639 102.298 102.809 102.383 102.951 102.298L104.483 101.276C104.597 101.191 104.597 101.021 104.483 100.936L102.951 99.829C102.809 99.744 102.639 99.829 102.639 99.9992Z" stroke="#F25C5C" stroke-width="0.5"/>
<path d="M126.194 106.754V110.585C126.194 111.153 125.74 111.607 125.172 111.607H119.666C119.099 111.607 118.645 111.153 118.645 110.585V106.754C118.645 106.186 119.099 105.732 119.666 105.732H125.172C125.74 105.732 126.194 106.186 126.194 106.754Z" fill="#F3E6DE"/>
<path d="M121.682 107.69V109.819C121.682 109.989 121.852 110.074 121.994 109.989L123.526 108.967C123.64 108.882 123.64 108.712 123.526 108.627L121.994 107.52C121.88 107.435 121.682 107.52 121.682 107.69Z" stroke="#F25C5C" stroke-width="0.5"/>
<path d="M116.657 106.754V110.585C116.657 111.153 116.203 111.607 115.635 111.607H110.129C109.562 111.607 109.107 111.153 109.107 110.585V106.754C109.107 106.186 109.562 105.732 110.129 105.732H115.635C116.203 105.732 116.657 106.186 116.657 106.754Z" fill="#F3E6DE"/>
<path d="M112.174 107.69V109.819C112.174 109.989 112.344 110.074 112.486 109.989L114.018 108.967C114.132 108.882 114.132 108.712 114.018 108.627L112.486 107.52C112.344 107.435 112.174 107.52 112.174 107.69Z" stroke="#F25C5C" stroke-width="0.5"/>
<path d="M106.1 105.732H100.594C100.026 105.732 99.5723 106.186 99.5723 106.754V110.585C99.5723 111.153 100.026 111.607 100.594 111.607H106.1C106.667 111.607 107.121 111.153 107.121 110.585V106.754C107.121 106.186 106.667 105.732 106.1 105.732ZM104.482 108.968L102.95 109.989C102.808 110.074 102.637 109.989 102.637 109.819V107.691C102.637 107.52 102.836 107.435 102.978 107.52L104.51 108.627C104.624 108.712 104.624 108.883 104.482 108.968Z" stroke="#F25C5C" stroke-width="0.5"/>
<path d="M104.483 108.967L102.951 109.989C102.809 110.074 102.639 109.989 102.639 109.819V107.69C102.639 107.52 102.837 107.435 102.979 107.52L104.512 108.627C104.625 108.712 104.625 108.882 104.483 108.967Z" fill="#F3E6DE"/>
<path d="M128.578 119.212V119.354C128.578 119.723 128.265 120.036 127.897 120.036H94.5215C94.6635 119.865 94.7485 119.638 94.7485 119.411V119.184C94.7485 118.929 94.6635 118.702 94.5215 118.531H127.925C128.265 118.531 128.578 118.844 128.578 119.212Z" fill="#F3E6DE"/>
<path d="M89.2984 120.036H73.9449C73.5759 120.036 73.2637 119.723 73.2637 119.354V119.212C73.2637 118.844 73.5759 118.531 73.9449 118.531H89.2984C89.6674 118.531 89.9797 118.844 89.9797 119.212V119.354C89.9797 119.752 89.6674 120.036 89.2984 120.036Z" fill="#2F5373"/>
<path d="M94.747 119.184V119.411C94.747 119.638 94.6618 119.865 94.52 120.036C94.3498 120.263 94.0375 120.433 93.7253 120.433H89.2695C88.702 120.433 88.248 119.979 88.248 119.411V119.184C88.248 118.617 88.702 118.162 89.2695 118.162H93.7253C94.0375 118.162 94.3213 118.304 94.52 118.531C94.6618 118.73 94.747 118.957 94.747 119.184Z" stroke="#F25C5C" stroke-width="0.5"/>
<path opacity="0.4" d="M96.5075 98.8643H76.1305C75.9885 98.8643 75.875 98.7508 75.875 98.6088V98.552C75.875 98.4103 75.9885 98.2968 76.1305 98.2968H96.5075C96.6493 98.2968 96.7627 98.4103 96.7627 98.552V98.6088C96.7627 98.7508 96.6493 98.8643 96.5075 98.8643Z" fill="#F1F2F2"/>
<path d="M83.8216 99.006H82.1756C81.9769 99.006 81.8066 98.8355 81.8066 98.637V98.5517C81.8066 98.3532 81.9769 98.1827 82.1756 98.1827H83.8216C84.0204 98.1827 84.1906 98.3532 84.1906 98.5517V98.637C84.1906 98.864 84.0204 99.006 83.8216 99.006Z" stroke="#F25C5C" stroke-width="0.5"/>
<path d="M157.071 110.358C151.735 89.5555 143.079 77.0965 139.39 74.372C135.956 71.8462 131.614 71.534 130.933 72.4137C130.507 72.953 132.777 75.3085 133.657 76.2735C141.15 84.5887 145.804 102.752 140.014 116.942C136.836 124.718 129.826 133.062 125.03 131.927C123.128 131.473 99.4592 109.194 97.2172 111.38C95.9685 112.6 99.374 116.346 103.347 125.456C105.958 131.444 109.903 144.13 109.108 157.356C108.825 162.237 107.519 170.921 101.162 180.996L140.241 180.485C140.241 180.485 158.234 144.982 161.186 122.022C161.895 116.431 158.036 114.161 157.071 110.358Z" stroke="#F25C5C" stroke-width="0.5"/>
<path d="M144.243 110.131C144.101 110.103 144.016 110.018 144.044 109.904C145.009 101.447 141.461 90.1798 138.538 85.27C138.481 85.1565 138.51 85.043 138.623 84.9863C138.737 84.9295 138.85 84.9578 138.907 85.0713C141.859 90.0378 145.435 101.447 144.47 109.961C144.441 110.046 144.356 110.131 144.243 110.131Z" fill="#232323"/>
<path d="M59.9531 83.8225H56.2637V87.512H59.9531V83.8225Z" fill="#F3E6DE"/>
<path opacity="0.77" d="M66.6793 92.1097H56.2637V93.4152H66.6793V92.1097Z" fill="#F1F2F2"/>
<path opacity="0.77" d="M66.6793 94.976H56.2637V96.2815H66.6793V94.976Z" fill="#F1F2F2"/>
<path opacity="0.77" d="M66.6793 97.8423H56.2637V99.1478H66.6793V97.8423Z" fill="#F1F2F2"/>
<path opacity="0.77" d="M66.6793 100.709H56.2637V102.014H66.6793V100.709Z" fill="#F1F2F2"/>
<path opacity="0.77" d="M66.6793 103.604H56.2637V104.909H66.6793V103.604Z" fill="#F1F2F2"/>
<path opacity="0.77" d="M66.6793 106.47H56.2637V107.775H66.6793V106.47Z" fill="#F1F2F2"/>
<path opacity="0.77" d="M66.6793 109.336H56.2637V110.642H66.6793V109.336Z" fill="#F1F2F2"/>
<path opacity="0.77" d="M66.6793 115.098H56.2637V116.403H66.6793V115.098Z" fill="#F1F2F2"/>
<path opacity="0.77" d="M66.6793 117.964H56.2637V119.269H66.6793V117.964Z" fill="#F1F2F2"/>
<path opacity="0.77" d="M66.6793 120.83H56.2637V122.135H66.6793V120.83Z" fill="#F1F2F2"/>
<path opacity="0.77" d="M66.6793 123.697H56.2637V125.002H66.6793V123.697Z" fill="#F1F2F2"/>
<path opacity="0.77" d="M66.6793 126.592H56.2637V127.897H66.6793V126.592Z" fill="#F1F2F2"/>
<path opacity="0.77" d="M66.6793 129.458H56.2637V130.764H66.6793V129.458Z" fill="#F1F2F2"/>
<path d="M66.6793 139.817H56.2637V141.122H66.6793V139.817Z" stroke="#F25C5C" stroke-width="0.5"/>
<path d="M66.6793 142.598H56.2637V143.904H66.6793V142.598Z" stroke="#F25C5C" stroke-width="0.5"/>
<path opacity="0.77" d="M186.984 105.845H176.568V107.151H186.984V105.845Z" fill="#2F5373"/>
<path opacity="0.77" d="M191.922 108.712H176.568V110.018H191.922V108.712Z" fill="#2F5373"/>
<path opacity="0.77" d="M191.922 111.578H176.568V112.884H191.922V111.578Z" fill="#2F5373"/>
<path d="M213.321 164.877H178.441V166.182H213.321V164.877Z" fill="#2F5373"/>
<path d="M213.321 167.743H178.441V169.048H213.321V167.743Z" fill="#2F5373"/>
<path d="M125.937 75.3369H75.9025C74.3415 75.3369 73.0645 74.0597 73.0645 72.4989V71.9029C73.0645 70.3419 74.3415 69.0649 75.9025 69.0649H125.937C127.498 69.0649 128.775 70.3419 128.775 71.9029V72.4989C128.775 74.0882 127.526 75.3369 125.937 75.3369ZM75.9025 69.5189C74.5687 69.5189 73.4902 70.5974 73.4902 71.9312V72.5272C73.4902 73.8612 74.5687 74.9397 75.9025 74.9397H125.937C127.271 74.9397 128.349 73.8612 128.349 72.5272V71.9312C128.349 70.5974 127.271 69.5189 125.937 69.5189H75.9025Z" fill="#232323"/>
<path opacity="0.2" d="M80.5019 69.15H80.0762V74.9963H80.5019V69.15Z" fill="#232323"/>
<path d="M79.5923 111.266H77.2083C76.8396 111.266 76.5273 110.954 76.5273 110.585V108.201C76.5273 107.832 76.8396 107.52 77.2083 107.52H79.5923C79.9613 107.52 80.2736 107.832 80.2736 108.201V110.585C80.2736 110.954 79.9613 111.266 79.5923 111.266Z" stroke="#F25C5C" stroke-width="0.5"/>
<path d="M87.823 107.804H81.4375V108.428H87.823V107.804Z" stroke="#F25C5C" stroke-width="0.5"/>
<path d="M83.6227 109.081H81.4375V109.706H83.6227V109.081Z" stroke="#F25C5C" stroke-width="0.5"/>
<path d="M82.2605 100.113H75.875V100.737H82.2605V100.113Z" stroke="#F25C5C" stroke-width="0.5"/>
<path d="M78.0602 101.361H75.875V101.986H78.0602V101.361Z" stroke="#F25C5C" stroke-width="0.5"/>
<path d="M92.2217 110.329H81.4375V110.954H92.2217V110.329Z" stroke="#F25C5C" stroke-width="0.5"/>
<path d="M126.477 83.8225H112.713V86.2633H126.477V83.8225Z" stroke="#F25C5C" stroke-width="0.5"/>
<path d="M202.167 83.085C200.578 82.1485 198.052 80.7577 196.094 80.6727C190.333 80.4172 176.114 79.4807 172.425 82.943C169.615 85.5825 168.168 89.4705 167.43 92.3085C166.919 94.2385 168.253 96.1682 170.268 96.367C171.375 96.4805 173.645 96.6222 176.483 96.7925L208.524 96.7075C208.524 96.7357 206.481 85.6392 202.167 83.085Z" fill="#F3E6DE"/>
<path d="M187.467 87.143C185.083 87.455 182.926 85.7523 182.642 83.3968L181.989 78.2883L181.422 73.719L190.021 72.6405L190.163 73.634L191.27 82.29C191.525 84.6738 189.851 86.859 187.467 87.143Z" fill="#FFBF85"/>
<path opacity="0.4" d="M190.135 73.6623C189.397 75.4503 188.545 77.0113 187.921 77.6923C187.211 78.4585 184.657 78.5153 181.989 78.2883L181.422 73.719L190.021 72.6405L190.135 73.6623Z" fill="#232323"/>
<path d="M178.073 60.352C178.073 60.352 173.873 74.9962 175.065 75.7057C176.257 76.4152 186.474 78.118 188.034 76.4152C189.595 74.7407 192.49 67.5322 191.752 65.2617C191.014 62.9913 182.614 59.0465 178.073 60.352Z" fill="#FFBF85"/>
<path d="M175.433 60.6925C174.241 60.0114 173.758 57.3153 174.042 55.6409C174.099 55.3287 174.184 55.0165 174.354 54.7327C175.319 52.9447 177.476 52.5758 179.179 53.2285C183.833 50.4189 187.04 52.8312 188.573 54.9313C189.481 56.1801 190.872 56.9747 192.404 57.1734C192.688 57.2018 192.972 57.2585 193.227 57.3153C193.738 57.4288 194.277 57.5991 194.618 57.9964C194.93 58.4221 194.873 59.16 194.362 59.3303C196.179 59.6141 197.995 60.7777 198.506 62.5372C198.818 63.5589 198.676 64.6374 198.534 65.6875C198.421 66.624 198.279 67.6458 197.683 68.3835C196.803 69.5188 195.185 69.7743 193.766 69.9445C193.539 70.881 192.433 71.477 191.524 71.1648C190.247 69.604 189.935 67.3335 190.73 65.4605C189.481 64.836 188.459 63.8143 187.807 62.594C187.778 62.594 178.64 62.5372 175.433 60.6925Z" fill="#2F5373"/>
<path d="M179.009 72.8677C178.527 72.8677 177.988 72.6974 177.534 72.4137C177.448 72.3569 177.42 72.2152 177.477 72.13C177.534 72.0447 177.675 72.0164 177.761 72.0732C178.328 72.4422 179.038 72.584 179.52 72.3855C179.832 72.2435 180.059 71.9879 180.145 71.6192C180.173 71.5054 180.286 71.4204 180.4 71.4487C180.513 71.4772 180.599 71.5907 180.57 71.7042C180.457 72.2152 180.145 72.5839 179.69 72.7827C179.463 72.8394 179.236 72.8677 179.009 72.8677Z" fill="#232323"/>
<path d="M179.548 69.8595C179.52 69.8595 179.52 69.8595 179.492 69.8595C179.038 69.7743 177.533 69.4053 177.42 68.6958C177.306 68.0715 178.896 65.943 179.378 65.2903C179.463 65.205 179.577 65.1768 179.69 65.2618C179.775 65.347 179.804 65.4605 179.719 65.574C178.782 66.7945 177.789 68.327 177.846 68.639C177.902 68.923 178.782 69.2635 179.605 69.4338C179.719 69.462 179.804 69.5758 179.775 69.6893C179.747 69.7743 179.662 69.8595 179.548 69.8595Z" fill="#232323"/>
<path d="M179.492 116.318L180.4 118.134L182.443 118.447L180.967 119.866L181.308 121.881L179.492 120.915L177.704 121.881L178.044 119.866L176.568 118.447L178.612 118.134L179.492 116.318Z" fill="#F3DF88"/>
<path d="M187.693 116.318L188.601 118.134L190.616 118.447L189.169 119.866L189.509 121.881L187.693 120.915L185.877 121.881L186.217 119.866L184.77 118.447L186.785 118.134L187.693 116.318Z" fill="#F3DF88"/>
<path d="M195.895 116.318L196.775 118.134L198.818 118.447L197.342 119.866L197.683 121.881L195.895 120.915L194.079 121.881L194.419 119.866L192.943 118.447L194.987 118.134L195.895 116.318Z" fill="#F3DF88"/>
<path d="M204.068 116.318L204.976 118.134L206.991 118.447L205.544 119.866L205.884 121.881L204.068 120.915L202.251 121.881L202.592 119.866L201.145 118.447L203.16 118.134L204.068 116.318Z" fill="#F3DF88"/>
<path d="M212.27 116.318L213.15 118.134L215.193 118.447L213.717 119.866L214.058 121.881L212.27 120.915L210.453 121.881L210.794 119.866L209.318 118.447L211.362 118.134L212.27 116.318Z" fill="#F3DF88"/>
<path d="M188.375 151.537H178.441V158.178H188.375V151.537Z" stroke="#F25C5C" stroke-width="0.5"/>
<path d="M188.375 159.456H178.441V160.761H188.375V159.456Z" fill="#F1F2F2"/>
<path d="M200.861 151.537H190.928V158.178H200.861V151.537Z" fill="#F3E6DE"/>
<path d="M200.861 159.456H190.928V160.761H200.861V159.456Z" fill="#F1F2F2"/>
<path d="M213.32 151.537H203.387V158.178H213.32V151.537Z" stroke="#F25C5C" stroke-width="0.5"/>
<path d="M213.32 159.456H203.387V160.761H213.32V159.456Z" fill="#F1F2F2"/>
<path d="M188.375 138.398H178.441V145.039H188.375V138.398Z" fill="#F3E6DE"/>
<path d="M188.375 146.344H178.441V147.65H188.375V146.344Z" fill="#F1F2F2"/>
<path d="M200.861 138.398H190.928V145.039H200.861V138.398Z" stroke="#F25C5C" stroke-width="0.5"/>
<path d="M200.861 146.344H190.928V147.65H200.861V146.344Z" fill="#F1F2F2"/>
<path d="M213.32 138.398H203.387V145.039H213.32V138.398Z" fill="#F3E6DE"/>
<path d="M213.32 146.344H203.387V147.65H213.32V146.344Z" fill="#F1F2F2"/>
<path d="M188.375 125.286H178.441V131.927H188.375V125.286Z" fill="#F3E6DE"/>
<path d="M188.375 133.232H178.441V134.538H188.375V133.232Z" fill="#F1F2F2"/>
<path d="M200.861 125.286H190.928V131.927H200.861V125.286Z" fill="#F3E6DE"/>
<path d="M200.861 133.232H190.928V134.538H200.861V133.232Z" fill="#F1F2F2"/>
<path d="M213.32 125.286H203.387V131.927H213.32V125.286Z" stroke="#F25C5C" stroke-width="0.5"/>
<path d="M213.32 133.232H203.387V134.538H213.32V133.232Z" fill="#F1F2F2"/>
<path d="M188.375 135.474H178.441V136.127H188.375V135.474Z" fill="#F1F2F2"/>
<path d="M200.861 135.474H190.928V136.127H200.861V135.474Z" fill="#F1F2F2"/>
<path d="M213.32 135.474H203.387V136.127H213.32V135.474Z" fill="#F1F2F2"/>
<path d="M188.375 148.586H178.441V149.239H188.375V148.586Z" fill="#F1F2F2"/>
<path d="M200.861 148.586H190.928V149.239H200.861V148.586Z" fill="#F1F2F2"/>
<path d="M213.32 148.586H203.387V149.239H213.32V148.586Z" fill="#F1F2F2"/>
<path d="M188.375 161.839H178.441V162.492H188.375V161.839Z" fill="#F1F2F2"/>
<path d="M200.861 161.839H190.928V162.492H200.861V161.839Z" fill="#F1F2F2"/>
<path d="M213.32 161.839H203.387V162.492H213.32V161.839Z" fill="#F1F2F2"/>
<path d="M105.56 49H103.857V49.5676H105.56V49Z" stroke="#F25C5C" stroke-width="0.5"/>
<path d="M153.92 49.5676H150.458V49H153.92V49.5676ZM147.024 49.5676H143.561V49H147.024V49.5676ZM140.099 49.5676H136.636V49H140.099V49.5676ZM133.202 49.5676H129.74V49H133.202V49.5676ZM126.278 49.5676H122.815V49H126.278V49.5676ZM119.381 49.5676H115.919V49H119.381V49.5676ZM112.457 49.5676H108.994V49H112.457V49.5676Z" stroke="#F25C5C" stroke-width="0.5"/>
<path d="M159.086 49H157.383V49.5676H159.086V49Z" stroke="#F25C5C" stroke-width="0.5"/>
<path d="M100.792 179.606C100.821 179.634 100.877 179.634 100.906 179.663C100.963 179.691 101.019 179.719 101.076 179.719C101.133 179.719 101.19 179.719 101.246 179.719C101.303 179.719 101.36 179.691 101.388 179.634C101.445 179.606 101.473 179.577 101.502 179.521C101.53 179.492 101.53 179.464 101.559 179.407C101.587 179.322 101.587 179.265 101.559 179.18C101.53 179.152 101.53 179.123 101.502 179.067C101.473 179.01 101.417 178.953 101.36 178.925C101.331 178.896 101.275 178.896 101.246 178.868C101.19 178.84 101.133 178.811 101.076 178.811C101.019 178.811 100.963 178.811 100.906 178.811C100.849 178.811 100.792 178.84 100.764 178.896C100.707 178.925 100.679 178.953 100.65 179.01C100.622 179.038 100.622 179.067 100.594 179.123C100.565 179.208 100.565 179.265 100.594 179.35C100.622 179.379 100.622 179.407 100.65 179.464C100.679 179.521 100.735 179.577 100.792 179.606Z" fill="#2F5373"/>
<path d="M105.049 177.704C105.588 177.704 105.588 176.853 105.049 176.853C104.51 176.853 104.51 177.704 105.049 177.704Z" fill="#2F5373"/>
<path d="M111.266 179.634C111.805 179.634 111.805 178.782 111.266 178.782C110.727 178.782 110.727 179.634 111.266 179.634Z" fill="#2F5373"/>
<path d="M124.887 178.84C125.426 178.84 125.426 177.988 124.887 177.988C124.348 177.988 124.348 178.84 124.887 178.84Z" fill="#2F5373"/>
<path d="M127.727 180.117C128.266 180.117 128.266 179.265 127.727 179.265C127.187 179.265 127.187 180.117 127.727 180.117Z" fill="#2F5373"/>
<path d="M121.511 179.038C122.05 179.038 122.05 178.187 121.511 178.187C120.972 178.187 120.943 179.038 121.511 179.038Z" fill="#2F5373"/>
<path d="M109.733 176.427C110.272 176.427 110.272 175.576 109.733 175.576C109.193 175.576 109.193 176.427 109.733 176.427Z" fill="#2F5373"/>
<path d="M124.633 176.995C125.172 176.995 125.172 176.143 124.633 176.143C124.094 176.143 124.094 176.995 124.633 176.995Z" fill="#2F5373"/>
<path d="M129.57 177.137C130.109 177.137 130.109 176.285 129.57 176.285C129.003 176.285 129.003 177.137 129.57 177.137Z" fill="#2F5373"/>
<path d="M113.535 178.045C114.074 178.045 114.074 177.193 113.535 177.193C112.968 177.193 112.968 178.045 113.535 178.045Z" fill="#2F5373"/>
<path d="M118.842 177.279C119.381 177.279 119.381 176.427 118.842 176.427C118.274 176.427 118.274 177.279 118.842 177.279Z" fill="#2F5373"/>
<path d="M117.594 179.889C118.133 179.889 118.133 179.038 117.594 179.038C117.055 179.038 117.055 179.889 117.594 179.889Z" fill="#2F5373"/>
<path d="M132.408 179.35C132.947 179.35 132.947 178.499 132.408 178.499C131.841 178.499 131.841 179.35 132.408 179.35Z" fill="#2F5373"/>
<path d="M113.934 181.025C114.473 181.025 114.473 180.173 113.934 180.173C113.394 180.173 113.394 181.025 113.934 181.025Z" fill="#2F5373"/>
<path d="M137.375 176.143C137.914 176.143 137.914 175.292 137.375 175.292C136.836 175.292 136.836 176.143 137.375 176.143Z" fill="#2F5373"/>
<path d="M143.932 180.06C144.471 180.06 144.471 179.208 143.932 179.208C143.364 179.208 143.364 180.06 143.932 180.06Z" fill="#2F5373"/>
<path d="M101.558 176.342C102.098 176.342 102.098 175.491 101.558 175.491C100.991 175.491 100.991 176.342 101.558 176.342Z" fill="#2F5373"/>
<path d="M137.375 178.811C137.914 178.811 137.914 177.96 137.375 177.96C136.836 177.96 136.836 178.811 137.375 178.811Z" fill="#2F5373"/>
<path d="M140.922 179.294C141.461 179.294 141.461 178.442 140.922 178.442C140.383 178.442 140.383 179.294 140.922 179.294Z" fill="#2F5373"/>
<path d="M134.736 180.599C135.276 180.599 135.276 179.747 134.736 179.747C134.197 179.747 134.197 180.599 134.736 180.599Z" fill="#2F5373"/>
<path d="M139.844 175.916C140.383 175.916 140.383 175.065 139.844 175.065C139.305 175.065 139.305 175.916 139.844 175.916Z" fill="#2F5373"/>
<path d="M142.994 176.03C143.534 176.03 143.534 175.178 142.994 175.178C142.455 175.178 142.455 176.03 142.994 176.03Z" fill="#2F5373"/>
<path d="M104.652 180.117C105.191 180.117 105.191 179.265 104.652 179.265C104.085 179.265 104.085 180.117 104.652 180.117Z" fill="#2F5373"/>
<path d="M108.74 179.35C109.28 179.35 109.28 178.499 108.74 178.499C108.173 178.499 108.173 179.35 108.74 179.35Z" fill="#2F5373"/>
<path d="M135.16 171.518C135.699 171.518 135.699 170.666 135.16 170.666C134.621 170.666 134.621 171.518 135.16 171.518Z" fill="#2F5373"/>
<path d="M138.141 171.716C138.68 171.716 138.68 170.865 138.141 170.865C137.602 170.865 137.602 171.716 138.141 171.716Z" fill="#2F5373"/>
<path d="M139.305 166.182C139.844 166.182 139.844 165.33 139.305 165.33C138.766 165.33 138.766 166.182 139.305 166.182Z" fill="#2F5373"/>
<path d="M141.887 170.24C142.426 170.24 142.426 169.389 141.887 169.389C141.319 169.389 141.319 170.24 141.887 170.24Z" fill="#2F5373"/>
<path d="M147.309 162.123C147.848 162.123 147.848 161.272 147.309 161.272C146.769 161.272 146.769 162.123 147.309 162.123Z" fill="#2F5373"/>
<path d="M138.141 158.519C138.68 158.519 138.68 157.668 138.141 157.668C137.602 157.668 137.602 158.519 138.141 158.519Z" fill="#2F5373"/>
<path d="M141.973 163.315C142.512 163.315 142.512 162.464 141.973 162.464C141.434 162.464 141.434 163.315 141.973 163.315Z" fill="#2F5373"/>
<path d="M144.328 156.05C144.867 156.05 144.867 155.199 144.328 155.199C143.789 155.199 143.789 156.05 144.328 156.05Z" fill="#2F5373"/>
<path d="M133.572 175.462C134.111 175.462 134.111 174.61 133.572 174.61C133.005 174.61 133.005 175.462 133.572 175.462Z" fill="#2F5373"/>
<path d="M126.307 171.829C126.846 171.829 126.846 170.978 126.307 170.978C125.768 170.978 125.768 171.829 126.307 171.829Z" fill="#2F5373"/>
<path d="M132.805 168.112C133.344 168.112 133.344 167.26 132.805 167.26C132.266 167.26 132.266 168.112 132.805 168.112Z" fill="#2F5373"/>
<path d="M148.699 156.164C149.239 156.164 149.239 155.312 148.699 155.312C148.16 155.312 148.16 156.164 148.699 156.164Z" fill="#2F5373"/>
<path d="M153.92 157.866C154.459 157.866 154.459 157.015 153.92 157.015C153.381 157.015 153.381 157.866 153.92 157.866Z" fill="#2F5373"/>
<path d="M151.678 149.665C152.217 149.665 152.217 148.813 151.678 148.813C151.139 148.813 151.139 149.665 151.678 149.665Z" fill="#2F5373"/>
<path d="M156.589 138.993C157.128 138.993 157.128 138.142 156.589 138.142C156.05 138.142 156.021 138.993 156.589 138.993Z" fill="#2F5373"/>
<path d="M149.125 144.982C149.664 144.982 149.664 144.13 149.125 144.13C148.586 144.13 148.586 144.982 149.125 144.982Z" fill="#2F5373"/>
<path d="M142.738 152.644C143.277 152.644 143.277 151.793 142.738 151.793C142.171 151.793 142.171 152.644 142.738 152.644Z" fill="#2F5373"/>
<path d="M156.163 143.052C156.702 143.052 156.702 142.201 156.163 142.201C155.624 142.201 155.595 143.052 156.163 143.052Z" fill="#2F5373"/>
<path d="M156.787 147.423C157.326 147.423 157.326 146.571 156.787 146.571C156.248 146.571 156.248 147.423 156.787 147.423Z" fill="#2F5373"/>
<path d="M158.065 135.276C158.604 135.276 158.604 134.425 158.065 134.425C157.525 134.425 157.525 135.276 158.065 135.276Z" fill="#2F5373"/>
<path d="M159.768 127.074C160.307 127.074 160.307 126.223 159.768 126.223C159.228 126.223 159.228 127.074 159.768 127.074Z" fill="#2F5373"/>
<path d="M157.865 116.942C158.405 116.942 158.405 116.091 157.865 116.091C157.326 116.091 157.326 116.942 157.865 116.942Z" fill="#2F5373"/>
<path d="M156.163 121.937C156.702 121.937 156.702 121.086 156.163 121.086C155.624 121.086 155.595 121.937 156.163 121.937Z" fill="#2F5373"/>
<path d="M155.51 128.975C156.049 128.975 156.049 128.124 155.51 128.124C154.971 128.124 154.971 128.975 155.51 128.975Z" fill="#2F5373"/>
<path d="M152.416 138.908C152.955 138.908 152.955 138.057 152.416 138.057C151.877 138.057 151.877 138.908 152.416 138.908Z" fill="#2F5373"/>
<path d="M162.436 131.445C162.975 131.445 162.975 130.593 162.436 130.593C161.896 130.593 161.896 131.445 162.436 131.445Z" fill="#2F5373"/>
<path d="M55.6125 152.645C56.4275 152.645 57.0883 151.984 57.0883 151.169C57.0883 150.353 56.4275 149.693 55.6125 149.693C54.7974 149.693 54.1367 150.353 54.1367 151.169C54.1367 151.984 54.7974 152.645 55.6125 152.645Z" fill="#F3E6DE"/>
<path d="M55.6125 161.357C56.4275 161.357 57.0883 160.696 57.0883 159.881C57.0883 159.066 56.4275 158.406 55.6125 158.406C54.7974 158.406 54.1367 159.066 54.1367 159.881C54.1367 160.696 54.7974 161.357 55.6125 161.357Z" stroke="#F25C5C" stroke-width="0.5"/>
<path d="M55.6125 154.489C56.1801 154.489 56.6625 154.943 56.6625 155.539C56.6625 156.107 56.2085 156.589 55.6125 156.589C55.0165 156.589 54.5624 156.135 54.5624 155.539C54.5908 154.972 55.0449 154.489 55.6125 154.489ZM55.6125 154.063C54.7895 154.063 54.1367 154.716 54.1367 155.539C54.1367 156.362 54.7895 157.015 55.6125 157.015C56.4355 157.015 57.0883 156.362 57.0883 155.539C57.0883 154.716 56.4355 154.063 55.6125 154.063Z" fill="#2F5373"/>
<path d="M50.8725 60.6643H45.5938V65.943H50.8725V60.6643Z" fill="#F3E6DE"/>
<path d="M61.4584 60.6643H56.1797V65.943H61.4584V60.6643Z" fill="#F3E6DE"/>
<path d="M56.1791 65.9712H50.9004V71.2499H56.1791V65.9712Z" fill="#F3E6DE"/>
<path d="M56.1791 55.3855H50.9004V60.6642H56.1791V55.3855Z" fill="#F3E6DE"/>
<path d="M160.618 63.0764H155.936V67.7592H160.618V63.0764Z" fill="#F3E6DE"/>
<path d="M155.935 67.7593H151.252V72.442H155.935V67.7593Z" fill="#F3E6DE"/>
<path d="M184.4 62.0265C184.4 62.0265 184.06 63.8429 185.11 64.9497C186.16 66.0565 190.985 66.7375 190.985 66.7375L194.05 63.701L188.771 61.0332L184.4 62.0265Z" fill="#2F5373"/>
<path d="M189.054 71.3636C188.941 71.3636 188.856 71.3353 188.799 71.2783C188.231 70.9378 188.004 70.1148 188.061 69.462C188.118 68.866 188.402 68.412 188.827 68.27C188.941 68.2418 189.054 68.2985 189.111 68.3835C189.139 68.497 189.083 68.6108 188.998 68.6675C188.6 68.8093 188.515 69.2918 188.515 69.5188C188.458 70.1148 188.685 70.7393 189.054 70.9378C189.111 70.9663 189.253 70.9095 189.423 70.7675C190.218 70.0865 191.211 67.816 190.785 66.8228C190.7 66.624 190.558 66.482 190.36 66.4253C189.735 66.255 188.629 66.9078 188.288 67.1633C188.203 67.22 188.061 67.22 188.004 67.1065C187.947 67.0213 187.947 66.8795 188.061 66.8228C188.118 66.766 189.537 65.7443 190.502 65.9998C190.814 66.0848 191.069 66.3118 191.211 66.6525C191.722 67.8443 190.672 70.285 189.735 71.0798C189.423 71.3068 189.225 71.3636 189.054 71.3636Z" fill="#232323"/>
<path d="M189.054 71.3636C188.941 71.3636 188.856 71.3353 188.799 71.2783C188.231 70.9378 188.004 70.1148 188.061 69.462C188.118 68.866 188.402 68.412 188.827 68.27C188.941 68.2418 189.054 68.2985 189.111 68.3835C189.139 68.497 189.083 68.6108 188.998 68.6675C188.6 68.8093 188.515 69.2918 188.515 69.5188C188.458 70.1148 188.685 70.7393 189.054 70.9378C189.111 70.9663 189.253 70.9095 189.423 70.7675C190.218 70.0865 191.211 67.816 190.785 66.8228C190.7 66.624 190.558 66.482 190.36 66.4253C189.735 66.255 188.629 66.9078 188.288 67.1633C188.203 67.22 188.061 67.22 188.004 67.1065C187.947 67.0213 187.947 66.8795 188.061 66.8228C188.118 66.766 189.537 65.7443 190.502 65.9998C190.814 66.0848 191.069 66.3118 191.211 66.6525C191.722 67.8443 190.672 70.285 189.735 71.0798C189.423 71.3068 189.225 71.3636 189.054 71.3636Z" fill="#232323"/>
<path d="M48.8579 134.339C48.7444 134.339 48.6309 134.254 48.6309 134.112V132.977C48.6309 132.863 48.716 132.75 48.8579 132.75C48.9998 132.75 49.085 132.835 49.085 132.977V134.112C49.085 134.254 48.9714 134.339 48.8579 134.339ZM48.8579 132.069C48.7444 132.069 48.6309 131.983 48.6309 131.841V130.706C48.6309 130.593 48.716 130.479 48.8579 130.479C48.9998 130.479 49.085 130.564 49.085 130.706V131.841C49.085 131.983 48.9714 132.069 48.8579 132.069ZM48.8579 129.798C48.7444 129.798 48.6309 129.713 48.6309 129.571V128.436C48.6309 128.322 48.716 128.209 48.8579 128.209C48.9998 128.209 49.085 128.294 49.085 128.436V129.571C49.085 129.713 48.9714 129.798 48.8579 129.798ZM48.8579 127.528C48.7444 127.528 48.6309 127.443 48.6309 127.301V126.165C48.6309 126.052 48.716 125.938 48.8579 125.938C48.9998 125.938 49.085 126.024 49.085 126.165V127.301C49.085 127.443 48.9714 127.528 48.8579 127.528ZM48.8579 125.257C48.7444 125.257 48.6309 125.172 48.6309 125.03V123.895C48.6309 123.782 48.716 123.668 48.8579 123.668C48.9998 123.668 49.085 123.753 49.085 123.895V125.03C49.085 125.172 48.9714 125.257 48.8579 125.257ZM48.8579 122.987C48.7444 122.987 48.6309 122.902 48.6309 122.76V121.625C48.6309 121.511 48.716 121.398 48.8579 121.398C48.9998 121.398 49.085 121.483 49.085 121.625V122.76C49.085 122.902 48.9714 122.987 48.8579 122.987Z" fill="#2F5373"/>
<path d="M48.8579 121.852C48.7444 121.852 48.6309 121.767 48.6309 121.625V93.4433C48.6309 93.3298 48.716 93.2163 48.8579 93.2163C48.9998 93.2163 49.085 93.3016 49.085 93.4433V121.625C49.085 121.767 48.9714 121.852 48.8579 121.852Z" fill="#2F5373"/>
<path d="M48.858 118.389H45.793V84.8442H48.858C48.9715 84.8442 49.0851 84.9295 49.0851 85.0712C49.0851 85.2132 48.9999 85.2982 48.858 85.2982H46.2187V117.964H48.858C48.9715 117.964 49.0851 118.049 49.0851 118.191C49.0851 118.333 48.9715 118.389 48.858 118.389Z" fill="#2F5373"/>
<path d="M49.1986 85.6672C49.5434 85.6672 49.823 85.3877 49.823 85.0427C49.823 84.698 49.5434 84.4185 49.1986 84.4185C48.8538 84.4185 48.5742 84.698 48.5742 85.0427C48.5742 85.3877 48.8538 85.6672 49.1986 85.6672Z" fill="#F3E6DE"/>
<path d="M48.8568 136.723C49.2016 136.723 49.4811 136.443 49.4811 136.099C49.4811 135.754 49.2016 135.474 48.8568 135.474C48.512 135.474 48.2324 135.754 48.2324 136.099C48.2324 136.443 48.512 136.723 48.8568 136.723Z" fill="#F3E6DE"/>
<path d="M168.934 164.394C168.821 164.394 168.707 164.309 168.707 164.167V163.032C168.707 162.918 168.792 162.805 168.934 162.805C169.076 162.805 169.161 162.89 169.161 163.032V164.167C169.161 164.309 169.076 164.394 168.934 164.394ZM168.934 162.124C168.821 162.124 168.707 162.039 168.707 161.897V160.761C168.707 160.648 168.792 160.534 168.934 160.534C169.076 160.534 169.161 160.62 169.161 160.761V161.897C169.161 162.039 169.076 162.124 168.934 162.124ZM168.934 159.853C168.821 159.853 168.707 159.768 168.707 159.626V158.491C168.707 158.378 168.792 158.264 168.934 158.264C169.076 158.264 169.161 158.349 169.161 158.491V159.626C169.161 159.768 169.076 159.853 168.934 159.853ZM168.934 157.583C168.821 157.583 168.707 157.498 168.707 157.356V156.221C168.707 156.107 168.792 155.994 168.934 155.994C169.076 155.994 169.161 156.079 169.161 156.221V157.356C169.161 157.498 169.076 157.583 168.934 157.583ZM168.934 155.312C168.821 155.312 168.707 155.227 168.707 155.085V153.95C168.707 153.837 168.792 153.723 168.934 153.723C169.076 153.723 169.161 153.808 169.161 153.95V155.085C169.161 155.227 169.076 155.312 168.934 155.312ZM168.934 153.042C168.821 153.042 168.707 152.957 168.707 152.815V151.68C168.707 151.566 168.792 151.453 168.934 151.453C169.076 151.453 169.161 151.538 169.161 151.68V152.815C169.161 152.957 169.076 153.042 168.934 153.042Z" fill="#2F5373"/>
<path d="M168.934 151.907C168.821 151.907 168.707 151.821 168.707 151.679V141.065C168.707 140.952 168.792 140.838 168.934 140.838C169.076 140.838 169.161 140.923 169.161 141.065V151.679C169.161 151.821 169.076 151.907 168.934 151.907Z" fill="#2F5373"/>
<path d="M168.933 166.778C169.278 166.778 169.557 166.498 169.557 166.153C169.557 165.808 169.278 165.529 168.933 165.529C168.588 165.529 168.309 165.808 168.309 166.153C168.309 166.498 168.588 166.778 168.933 166.778Z" stroke="#F25C5C" stroke-width="0.5"/>
<path d="M171.687 131.501C172.032 131.501 172.311 131.222 172.311 130.877C172.311 130.532 172.032 130.252 171.687 130.252C171.342 130.252 171.062 130.532 171.062 130.877C171.062 131.222 171.342 131.501 171.687 131.501Z" fill="#2F5373"/>
<path d="M48.8568 94.0112C49.2016 94.0112 49.4811 93.7317 49.4811 93.3867C49.4811 93.0419 49.2016 92.7625 48.8568 92.7625C48.512 92.7625 48.2324 93.0419 48.2324 93.3867C48.2324 93.7317 48.512 94.0112 48.8568 94.0112Z" fill="#F3E6DE"/>
<path d="M171.686 144.045C171.572 144.045 171.459 143.96 171.459 143.818V133.204C171.459 133.091 171.544 132.977 171.686 132.977C171.828 132.977 171.913 133.062 171.913 133.204V143.818C171.913 143.932 171.799 144.045 171.686 144.045Z" fill="#2F5373"/>
<path d="M75.8754 162.578C75.7619 162.578 75.6484 162.493 75.6484 162.351V151.736C75.6484 151.623 75.7337 151.509 75.8754 151.509C76.0174 151.509 76.1027 151.595 76.1027 151.736V162.351C76.1027 162.464 75.9892 162.578 75.8754 162.578Z" fill="#2F5373"/>
<path d="M75.8754 148.955C75.7619 148.955 75.6484 148.87 75.6484 148.728V147.593C75.6484 147.479 75.7337 147.365 75.8754 147.365C76.0174 147.365 76.1027 147.451 76.1027 147.593V148.728C76.1027 148.841 75.9892 148.955 75.8754 148.955ZM75.8754 146.684C75.7619 146.684 75.6484 146.599 75.6484 146.457V145.322C75.6484 145.209 75.7337 145.095 75.8754 145.095C76.0174 145.095 76.1027 145.18 76.1027 145.322V146.457C76.1027 146.571 75.9892 146.684 75.8754 146.684ZM75.8754 144.414C75.7619 144.414 75.6484 144.329 75.6484 144.187V143.052C75.6484 142.938 75.7337 142.825 75.8754 142.825C76.0174 142.825 76.1027 142.91 76.1027 143.052V144.187C76.1027 144.3 75.9892 144.414 75.8754 144.414ZM75.8754 142.144C75.7619 142.144 75.6484 142.058 75.6484 141.916V140.781C75.6484 140.668 75.7337 140.554 75.8754 140.554C76.0174 140.554 76.1027 140.639 76.1027 140.781V141.916C76.1027 142.03 75.9892 142.144 75.8754 142.144ZM75.8754 139.873C75.7619 139.873 75.6484 139.788 75.6484 139.646V138.511C75.6484 138.397 75.7337 138.284 75.8754 138.284C76.0174 138.284 76.1027 138.369 76.1027 138.511V139.646C76.1027 139.76 75.9892 139.873 75.8754 139.873Z" fill="#2F5373"/>
<path d="M48.0625 175.036H42.5V180.599H48.0625V175.036Z" fill="#F3E6DE"/>
<path d="M56.5762 175.036H51.0137V180.599H56.5762V175.036Z" stroke="#F25C5C" stroke-width="0.5"/>
<path d="M227.073 159.535L225.527 161.08L227.073 162.626L228.618 161.08L227.073 159.535Z" stroke="#F25C5C" stroke-width="0.5"/>
<path d="M229.702 156.88L228.156 158.425L229.702 159.97L231.247 158.425L229.702 156.88Z" stroke="#F25C5C" stroke-width="0.5"/>
<path d="M229.901 162.372L228.355 163.917L229.901 165.462L231.446 163.917L229.901 162.372Z" stroke="#F25C5C" stroke-width="0.5"/>
<path d="M232.549 159.736L231.004 161.281L232.549 162.826L234.094 161.281L232.549 159.736Z" stroke="#F25C5C" stroke-width="0.5"/>
</g>
</g>
<defs>
<filter id="filter0_dd" x="-20" y="0" width="320" height="440" filterUnits="userSpaceOnUse" color-interpolation-filters="sRGB">
<feFlood flood-opacity="0" result="BackgroundImageFix"/>
<feColorMatrix in="SourceAlpha" type="matrix" values="0 0 0 0 0 0 0 0 0 0 0 0 0 0 0 0 0 0 127 0"/>
<feOffset dy="20"/>
<feGaussianBlur stdDeviation="20"/>
<feColorMatrix type="matrix" values="0 0 0 0 0.286275 0 0 0 0 0.152941 0 0 0 0 0.67451 0 0 0 0.3 0"/>
<feBlend mode="normal" in2="BackgroundImageFix" result="effect1_dropShadow"/>
<feColorMatrix in="SourceAlpha" type="matrix" values="0 0 0 0 0 0 0 0 0 0 0 0 0 0 0 0 0 0 127 0"/>
<feOffset dy="1"/>
<feGaussianBlur stdDeviation="1.5"/>
<feColorMatrix type="matrix" values="0 0 0 0 0 0 0 0 0 0 0 0 0 0 0 0 0 0 0.05 0"/>
<feBlend mode="normal" in2="effect1_dropShadow" result="effect2_dropShadow"/>
<feBlend mode="normal" in="SourceGraphic" in2="effect2_dropShadow" result="shape"/>
</filter>
<linearGradient id="paint0_linear" x1="140" y1="20" x2="140" y2="380" gradientUnits="userSpaceOnUse">
<stop stop-color="#5E17FF"/>
<stop offset="1" stop-color="#37B4E9"/>
</linearGradient>
<clipPath id="clip0">
<rect x="40" y="40" width="200" height="150" rx="30" fill="white"/>
</clipPath>
</defs>
</svg>
