<svg width="200" height="150" viewBox="0 0 200 150" fill="none" xmlns="http://www.w3.org/2000/svg">
<path opacity="0.4" d="M181.717 127.228C177.985 131.4 89.8926 129.456 75.1976 129.638C37.7473 106.572 34.7151 70.7542 42.4643 51.0055C45.9631 42.09 55.8894 32.6042 67.7334 30.6087C82.2729 28.1465 95.0758 38.4358 100.881 43.1268C118.816 57.5885 118.686 72.6463 128.69 73.4755C139.679 74.3828 143.463 54.893 159.221 53.8823C168.966 53.2603 175.911 60.1023 176.767 60.9575C184.905 69.2253 185.786 83.1945 180.369 91.3065C175.056 99.263 164.637 100.17 165.026 103.229C165.363 106.131 176.3 104.265 181.484 110.874C184.931 115.357 185.267 123.288 181.717 127.228Z" fill="#B5CDFB"/>
<path opacity="0.5" d="M145.147 72.6202L127.887 66.9962L128.12 82.8575L145.381 88.4815L145.147 72.6202Z" fill="#FEEFF0"/>
<path d="M179.954 122.303L178.451 20.5527C178.451 20.2935 178.269 20.0084 178.062 19.9307L138.046 6.94622C137.839 6.86847 137.657 7.02397 137.657 7.30904L137.968 29.3645L164.844 38.306C165.052 38.3837 165.207 38.6427 165.207 38.902L166.451 122.692L179.617 127.02C179.824 127.098 180.006 126.942 180.006 126.657L179.954 122.303Z" fill="#2249B3"/>
<path d="M137.424 49.9942V50.2275L137.45 50.2535C137.502 50.3312 137.502 50.4607 137.45 50.5127L136.958 51.005C137.061 51.1605 137.191 51.2642 137.346 51.316C137.657 51.4197 137.891 51.1865 137.891 50.8237C137.917 50.4607 137.709 50.124 137.424 49.9942ZM137.295 49.9425C137.035 49.8907 136.828 50.124 136.828 50.4607C136.828 50.5127 136.828 50.5645 136.854 50.6422L137.269 50.2017L137.295 50.1757V49.9425Z" fill="#75E0E6"/>
<path d="M137.191 39.6277C137.113 39.6017 137.062 39.6535 137.062 39.7572L137.088 41.105C137.088 41.2087 137.165 41.2865 137.243 41.3122C137.321 41.3382 137.373 41.2865 137.373 41.1827L137.347 39.835C137.347 39.7572 137.295 39.6535 137.191 39.6277Z" fill="#75E0E6"/>
<path d="M137.502 59.9462C137.424 59.9205 137.372 59.9722 137.372 60.076L137.398 61.4235C137.398 61.5272 137.476 61.605 137.554 61.631C137.631 61.6567 137.683 61.605 137.683 61.5012L137.657 60.1537C137.657 60.076 137.58 59.9722 137.502 59.9462Z" fill="#75E0E6"/>
<path d="M143.463 44.915C143.437 44.915 143.437 44.915 143.411 44.915L142.659 45.6148C142.633 45.6408 142.633 45.6925 142.659 45.7445C142.685 45.7703 142.685 45.7703 142.711 45.7963C142.737 45.7963 142.737 45.7963 142.763 45.7963L143.514 45.0965C143.54 45.0705 143.54 45.0188 143.514 44.9668C143.488 44.941 143.488 44.915 143.463 44.915Z" fill="#75E0E6"/>
<path d="M132.034 55.4893C132.008 55.4893 132.008 55.4893 131.982 55.4893L131.23 56.189C131.204 56.215 131.204 56.2668 131.23 56.3185C131.256 56.3445 131.256 56.3445 131.282 56.3705C131.308 56.3705 131.308 56.3705 131.334 56.3705L132.086 55.6708C132.111 55.6448 132.111 55.593 132.086 55.541C132.06 55.5153 132.034 55.4893 132.034 55.4893Z" fill="#75E0E6"/>
<path d="M142.893 59.0135C142.867 59.0135 142.867 59.0135 142.841 59.0135C142.815 59.0393 142.815 59.0913 142.841 59.1431L143.618 60.3353C143.644 60.3611 143.644 60.3611 143.67 60.3871C143.696 60.3871 143.696 60.3871 143.722 60.3871C143.748 60.3611 143.748 60.3093 143.722 60.2575L142.944 59.0653C142.944 59.0393 142.919 59.0393 142.893 59.0135Z" fill="#75E0E6"/>
<path d="M131.048 40.8715C131.022 40.8715 131.022 40.8715 130.996 40.8715C130.97 40.8975 130.97 40.9492 130.996 41.0012L131.774 42.1932C131.8 42.2192 131.8 42.2192 131.825 42.2452C131.851 42.2452 131.851 42.2452 131.877 42.2452C131.903 42.2192 131.903 42.1675 131.877 42.1155L131.1 40.9235C131.074 40.8975 131.048 40.8715 131.048 40.8715Z" fill="#75E0E6"/>
<path d="M146.132 53.3115L145.044 52.9488C144.966 52.9228 144.914 52.9748 144.914 53.0783C144.914 53.182 144.992 53.2858 145.07 53.3115L146.158 53.6745C146.236 53.7003 146.288 53.6485 146.288 53.5448C146.288 53.4413 146.21 53.3375 146.132 53.3115Z" fill="#75E0E6"/>
<path d="M129.623 47.9733L128.638 47.6623C128.561 47.6363 128.509 47.6883 128.509 47.766C128.509 47.8438 128.561 47.9473 128.638 47.9733L129.623 48.2843C129.701 48.3103 129.753 48.2583 129.753 48.1805C129.753 48.077 129.675 47.9733 129.623 47.9733Z" fill="#75E0E6"/>
<path d="M137.242 42.8933C137.19 42.8933 137.164 42.9193 137.164 42.9453L137.268 49.9168V50.1501C137.294 50.1501 137.32 50.1501 137.346 50.1501C137.371 50.1501 137.397 50.1761 137.423 50.2021V49.9688L137.32 42.9971C137.32 42.9453 137.294 42.8933 137.242 42.8933Z" fill="#75E0E6"/>
<path d="M137.346 50.1763C137.32 50.1763 137.294 50.1763 137.268 50.1763C137.268 50.1763 137.242 50.1763 137.242 50.2023L136.827 50.6428L133.251 54.2713C133.199 54.323 133.199 54.4268 133.251 54.5303C133.277 54.5823 133.303 54.608 133.354 54.608C133.38 54.608 133.432 54.608 133.458 54.5823L136.983 51.0055L137.475 50.5133C137.527 50.4613 137.527 50.3578 137.475 50.254L137.449 50.228C137.397 50.2023 137.372 50.1763 137.346 50.1763Z" fill="#75E0E6"/>
<path d="M163.497 113.517L128.405 102.114L128.535 111.029V110.692L163.627 122.096L163.497 113.517Z" fill="#75E0E6"/>
<path d="M157.044 45.0441L150.228 42.8153L150.254 44.7073L157.07 46.9361L157.044 45.0441Z" fill="#75E0E6"/>
<path d="M162.693 58.5733L156.551 56.5778L156.655 62.746L162.797 64.7415L162.693 58.5733Z" fill="#75E0E6"/>
<path d="M135.118 72.4913C132.63 71.6878 130.66 73.5021 130.686 76.5861C130.738 79.6443 132.785 82.8063 135.273 83.6096C137.761 84.4131 139.731 82.5988 139.705 79.5148C139.679 76.4566 137.606 73.3206 135.118 72.4913Z" fill="#B5CDFB"/>
<path d="M98.7557 112.611C96.9935 113.595 94.92 113.906 92.9505 115.539C92.0952 116.265 91.2397 117.25 90.4622 118.675C90.4622 118.675 88.4407 121.293 85.6157 124.74C85.6157 124.74 85.6157 124.74 85.6157 124.766C80.6137 130.908 73.1757 139.668 70.4802 141.042C68.5882 142.001 64.1047 140.653 59.7505 138.865C54.4117 136.688 49.2282 133.837 49.2282 133.837C46.481 132.67 44.7187 131.53 44.6927 129.897C44.6667 128.42 46.1182 126.58 49.617 123.962C54.645 120.256 60.1912 116.161 64.623 112.922C64.649 112.922 64.649 112.896 64.649 112.896C68.5625 110.071 71.5947 107.868 72.6832 107.194C75.4045 105.483 78.1517 101.103 80.847 98.3043C81.4692 97.6563 82.0652 97.112 82.6872 96.6715C83.4387 96.1533 84.1905 95.8163 84.942 95.7903C84.9937 95.7903 85.0457 95.7903 85.0975 95.7903C85.59 95.8163 86.186 96.0753 86.8857 96.4643C86.8857 96.4643 86.8857 96.4643 86.9117 96.4643C87.43 96.7753 87.9742 97.164 88.5445 97.6305C88.5445 97.6305 88.5705 97.6563 88.6482 97.7083C90.1512 98.9263 91.81 100.637 93.365 102.451C93.391 102.477 93.417 102.503 93.4427 102.529C94.661 103.954 95.8012 105.457 96.7602 106.857C96.8637 107.013 96.9415 107.116 96.9675 107.168C97.434 107.894 97.8747 108.593 98.2115 109.215C99.0927 110.978 99.4037 112.248 98.7557 112.611Z" fill="#75E0E6"/>
<path d="M53.7112 37.7097H20.667V39.7572H53.7112V37.7097Z" fill="#75E0E6"/>
<path d="M136.75 95.6087L128.275 92.8357L128.379 101.414L136.88 104.187L136.75 95.6087Z" fill="#FAECC1"/>
<path d="M53.7112 41.5458H20.667V43.593H53.7112V41.5458Z" fill="#75E0E6"/>
<path d="M17.7126 37.7097H13.9287V41.8045H17.7126V37.7097Z" fill="#75E0E6"/>
<path d="M34.8704 60.9838H19.4756V62.3833H34.8704V60.9838Z" fill="#75E0E6"/>
<path d="M48.503 68.7588H35.8037V79.0478H48.503V68.7588Z" fill="#75E0E6"/>
<path d="M104.665 21.7455H88.5444C88.3889 21.7455 88.2852 21.6159 88.2852 21.4604V12.3117C88.2852 12.1562 88.4147 12.0266 88.5444 12.0266H111.377C111.533 12.0266 111.636 12.1562 111.636 12.3117V21.4864C111.636 21.6419 111.507 21.7714 111.377 21.7714H108.008" fill="#75E0E6"/>
<path d="M186.201 133.551H177.57V135.884H186.201V133.551Z" fill="#75E0E6"/>
<path d="M166.736 139.927L165.233 38.6948C165.233 38.4356 165.052 38.1506 164.844 38.0988L134.392 28.1983L124.828 25.0883C124.621 25.0106 124.439 25.1661 124.439 25.4513L125.347 86.3823L125.424 92.1358L125.994 131.089C125.994 131.348 126.176 131.634 126.383 131.711L166.399 144.722C166.607 144.799 166.788 144.644 166.788 144.359L166.736 139.927ZM162.797 64.7416L162.875 70.9098L156.732 68.9141L150.59 66.9186L150.512 60.7503L150.434 54.5821L156.577 56.5776L162.719 58.5733L162.797 64.7416ZM162.667 56.5518L150.382 52.5606L150.357 50.6686L162.641 54.6598L162.667 56.5518ZM150.331 48.6471L150.305 46.7551L153.622 47.8436L153.648 49.7356L150.331 48.6471ZM157.043 45.0446L157.069 46.9366L150.253 44.7336L150.227 42.8416L157.043 45.0446ZM145.588 33.4078C145.769 33.4596 145.925 33.6928 145.925 33.9001C145.925 34.1076 145.795 34.2371 145.614 34.1853C145.432 34.1333 145.277 33.9001 145.277 33.6928C145.277 33.4856 145.406 33.3558 145.588 33.4078ZM144.136 32.9413C144.318 32.9931 144.473 33.2263 144.473 33.4336C144.473 33.6668 144.344 33.7966 144.162 33.7188C143.981 33.6668 143.825 33.4336 143.825 33.2263C143.8 33.0191 143.955 32.8893 144.136 32.9413ZM137.191 38.2283C142.737 40.0426 147.324 47.0661 147.428 53.8823C147.532 60.7243 143.1 64.8193 137.554 63.0051C132.007 61.1908 127.42 54.1673 127.316 47.3511C127.213 40.5351 131.644 36.4401 137.191 38.2283ZM133.122 122.614L131.826 122.2C131.567 122.122 131.359 121.785 131.333 121.474L131.308 119.893C131.308 119.582 131.515 119.375 131.774 119.453L133.07 119.867C133.329 119.945 133.536 120.282 133.562 120.593L133.588 122.174C133.588 122.485 133.381 122.692 133.122 122.614ZM139.99 124.843L138.694 124.429C138.435 124.351 138.227 124.014 138.201 123.703L138.176 122.122C138.176 121.811 138.383 121.604 138.642 121.681L139.938 122.096C140.197 122.174 140.404 122.511 140.43 122.822L140.456 124.403C140.482 124.74 140.249 124.921 139.99 124.843ZM146.884 127.072L145.588 126.657C145.329 126.58 145.121 126.243 145.095 125.932L145.069 124.351C145.069 124.04 145.277 123.832 145.536 123.91L146.832 124.325C147.091 124.403 147.298 124.74 147.324 125.051L147.35 126.632C147.35 126.968 147.143 127.15 146.884 127.072ZM153.752 129.301L152.456 128.886C152.197 128.809 151.989 128.472 151.963 128.161L151.938 126.58C151.938 126.269 152.145 126.061 152.404 126.139L153.7 126.554C153.959 126.632 154.166 126.968 154.192 127.279L154.218 128.86C154.218 129.197 154.011 129.405 153.752 129.301ZM160.646 131.556L159.35 131.141C159.091 131.063 158.883 130.726 158.857 130.415L158.831 128.834C158.831 128.523 159.039 128.316 159.298 128.394L160.594 128.809C160.853 128.886 161.06 129.223 161.06 129.534L161.086 131.115C161.112 131.426 160.905 131.634 160.646 131.556ZM163.497 112.818L164.144 113.025V113.725L163.497 113.518L163.626 122.096L164.274 122.303V123.003L163.626 122.796L163.652 123.833C163.652 124.092 163.497 124.247 163.289 124.169L128.923 112.999C128.716 112.921 128.534 112.662 128.534 112.403L128.379 102.088L127.524 101.803V101.103L128.379 101.388L128.249 92.8098L127.394 92.5246V91.8248L128.249 92.1101L128.197 88.9481L128.12 83.5313L128.016 83.5056L127.264 83.2723V82.5726L128.12 82.8576L127.886 66.9963L127.031 66.7113V66.0116L127.886 66.2966L127.861 65.1303C127.861 64.8711 128.016 64.7156 128.223 64.7933L162.589 75.9636C162.797 76.0413 162.978 76.3006 162.978 76.5598L163.004 77.7261L163.652 77.9333V78.6331L163.004 78.4258L163.237 94.2871L164.818 94.8053V95.5051L163.237 94.9868L163.497 112.818Z" fill="#2249B3"/>
<path fill-rule="evenodd" clip-rule="evenodd" d="M46.0405 27.11H20.6676V29.1575H46.0405V27.11ZM137.191 38.5912C131.801 36.829 127.498 40.7942 127.602 47.455C127.706 54.1157 132.138 60.932 137.554 62.6682C142.945 64.4307 147.247 60.4655 147.144 53.8047C147.04 47.17 142.582 40.3537 137.191 38.5912ZM127.317 47.3512C127.213 40.5352 131.645 36.4402 137.191 38.2285C142.738 40.0427 147.325 47.0662 147.429 53.8825C147.532 60.6987 143.101 64.8195 137.554 63.0052C132.008 61.217 127.421 54.1935 127.317 47.3512ZM123.17 94.2087C123.171 94.216 123.173 94.2232 123.174 94.2305C123.176 94.2397 123.178 94.249 123.18 94.2582C123.203 94.2525 123.225 94.246 123.248 94.2347C123.559 94.131 123.792 94.0015 123.922 93.846C125.14 92.4722 128.872 92.239 128.535 94.3902C128.457 94.8307 128.302 95.2712 128.069 95.6602C127.136 97.2152 125.062 98.485 122.807 99.133C121.559 99.4995 120.047 100.327 118.437 101.208C116.405 102.32 114.217 103.517 112.207 103.979C110.523 104.368 108.086 104.342 105.78 103.824L105.779 103.824L105.753 103.824C104.872 103.824 103.965 103.876 103.032 103.979C101.918 104.083 100.777 104.316 99.689 104.679C98.6262 105.042 97.6675 105.82 96.7602 106.856C96.7505 106.866 96.7442 106.876 96.739 106.884C96.7305 106.898 96.7245 106.908 96.7085 106.908C96.2172 105.181 91.0957 100.072 88.5965 97.7335L88.5967 97.7332C89.089 97.2927 89.5815 96.8522 90.0737 96.3857C91.0327 95.5047 91.9397 94.5975 92.769 93.6905C93.132 93.3017 93.4687 92.887 93.7797 92.4722C94.972 90.8915 95.931 89.1032 96.5012 87.937C96.9157 87.1335 97.5637 86.4855 98.3672 86.0707C99.445 85.5377 100.49 84.3172 101.595 83.0277C102.907 81.4957 104.302 79.8665 105.935 79.177C106.764 79.0992 107.879 79.2027 109.097 79.3842C109.265 79.4102 109.336 79.5072 109.408 79.6045C109.479 79.7017 109.55 79.799 109.719 79.8247C109.94 79.8617 110.253 79.8402 110.572 79.8187C110.927 79.7947 111.287 79.7702 111.533 79.8247C113.399 80.2135 115.369 80.706 117.001 81.1465L117.019 81.1515C117.42 81.0282 117.869 80.8895 118.35 80.7405L118.35 80.7402C121.337 79.815 125.575 78.5022 127.524 78.192C128.458 78.0435 129.345 77.4427 130.149 76.8972C131.309 76.111 132.299 75.4397 133.019 76.4037C134.237 78.0365 130.453 81.3022 128.224 80.7837C127.187 81.8465 126.125 82.313 124.751 82.5462C124.419 82.847 124.057 83.198 123.672 83.5725C123.276 83.9567 122.855 84.3655 122.416 84.7685C123.152 87.0192 123.156 90.0467 123.159 92.5637C123.159 93.1445 123.16 93.6982 123.17 94.2087ZM119.308 87.885C119.308 87.885 119.749 91.7207 120.215 94.5715C119.549 94.571 118.858 94.545 118.142 94.4937H118.115H118.09C118.112 94.1655 118.133 93.8395 118.152 93.5177L118.153 93.515V93.5142V93.514C118.202 92.7202 118.249 91.9545 118.323 91.2542C118.531 89.0512 119.308 87.885 119.308 87.885ZM20.6676 30.946H46.0405V32.9935H20.6676V30.946ZM32.1755 68.7587H19.476V91.3842H32.1755V68.7587ZM8.17578 118.727H26.836V129.016H8.17578V118.727ZM76.5117 45.9515H85.5827V39.887H76.5117V45.9515ZM74.2037 45.9515H65.1327V39.887H74.2037V45.9515ZM65.1455 38.7272H85.594V37.535H65.1455V38.7272ZM85.5827 50.4637H76.5117V49.2717H85.5827V50.4637ZM65.1327 50.4637H74.2037V49.2717H65.1327V50.4637ZM85.595 59.956H65.1465V53.8912H85.595V59.956ZM65.1465 52.7315H85.595V51.5395H65.1465V52.7315ZM85.5827 48.3955H76.5117V47.7995H85.5827V48.3955ZM65.1327 48.3955H74.2037V47.7995H65.1327V48.3955ZM74.2037 36.5617H65.1327V35.9657H74.2037V36.5617Z" fill="#2249B3"/>
<path fill-rule="evenodd" clip-rule="evenodd" d="M8.39648 98.1097H27.0569V116.77H8.39648V98.1097ZM8.78526 98.4985V116.381H26.6681V98.4985H8.78526Z" fill="#75E0E6"/>
<path fill-rule="evenodd" clip-rule="evenodd" d="M10.5605 52.2365H57.1077V52.6252H10.5605V52.2365Z" fill="#75E0E6"/>
<path d="M6.69824 44.889V18.8423C6.69824 16.7171 8.40877 15.0066 10.534 15.0066H57.1069C59.2321 15.0066 60.9426 16.7171 60.9426 18.8423V44.889" stroke="#161616" stroke-width="0.375" stroke-miterlimit="10" stroke-linecap="round"/>
<path opacity="0.36" d="M173.112 131.245L171.635 29.4942C171.635 29.2352 171.453 28.95 171.246 28.8982L131.204 15.8879C130.997 15.8101 130.815 15.9656 130.815 16.2507L130.971 27.11L165.104 38.5652L166.607 133.266C166.607 133.525 172.775 136.013 172.775 136.013C172.983 136.091 173.164 135.936 173.164 135.651L173.112 131.245Z" fill="#75E0E6"/>
<path d="M137.528 61.6314C137.45 61.6054 137.398 61.5017 137.372 61.4239L137.346 60.0762C137.346 59.9727 137.398 59.9207 137.476 59.9467C137.554 59.9727 137.631 60.0762 137.631 60.1539L137.657 61.5017C137.657 61.6054 137.605 61.6572 137.528 61.6314ZM131.282 56.3702C131.256 56.3702 131.256 56.3442 131.23 56.3184C131.204 56.2664 131.204 56.2147 131.23 56.1887L131.981 55.4889C132.007 55.4889 132.007 55.4632 132.033 55.4889C132.059 55.4889 132.059 55.5149 132.085 55.5409C132.111 55.5927 132.111 55.6444 132.085 55.6704L131.334 56.3702C131.308 56.3702 131.282 56.3702 131.282 56.3702ZM143.696 60.3872C143.67 60.3872 143.67 60.3614 143.644 60.3354L142.867 59.1432C142.841 59.0914 142.841 59.0397 142.867 59.0137C142.893 59.0137 142.893 58.9877 142.918 59.0137C142.944 59.0137 142.944 59.0397 142.97 59.0654L143.748 60.2577C143.774 60.3094 143.774 60.3614 143.748 60.3872C143.722 60.3872 143.696 60.4132 143.696 60.3872ZM128.586 47.9472C128.509 47.9212 128.457 47.8174 128.431 47.7139C128.431 47.6102 128.483 47.5584 128.56 47.5842L129.649 47.9472C129.727 47.9729 129.779 48.0767 129.804 48.1544C129.804 48.2582 129.753 48.3099 129.675 48.2839L128.586 47.9472ZM145.07 53.3119C144.992 53.2859 144.94 53.1824 144.914 53.0787C144.914 52.9749 144.966 52.9232 145.044 52.9492L146.132 53.3119C146.21 53.3379 146.262 53.4414 146.288 53.5192C146.288 53.6229 146.236 53.6747 146.158 53.6489L145.07 53.3119ZM138.875 51.8087C138.72 51.7569 138.616 51.5754 138.59 51.3942V50.6944C138.59 50.5129 138.694 50.4092 138.849 50.4612L141.674 51.3682C141.83 51.4199 141.934 51.6014 141.96 51.7829V52.4827C141.96 52.6639 141.856 52.7677 141.7 52.7159L138.875 51.8087ZM131.826 42.2454C131.8 42.2454 131.8 42.2194 131.774 42.1934L130.997 41.0014C130.971 40.9494 130.971 40.8977 130.997 40.8717C131.023 40.8717 131.023 40.8459 131.048 40.8717C131.074 40.8717 131.074 40.8977 131.1 40.9237L131.878 42.1157C131.904 42.1677 131.904 42.2194 131.878 42.2454C131.852 42.2454 131.852 42.2454 131.826 42.2454ZM137.294 49.9427L137.191 42.9709C137.191 42.9192 137.217 42.8932 137.269 42.9192C137.32 42.9192 137.346 42.9709 137.346 43.0229L137.45 49.9947C137.709 50.1242 137.942 50.4869 137.942 50.8239C137.942 51.1867 137.709 51.4199 137.398 51.3164C137.243 51.2644 137.113 51.1609 137.009 51.0054L133.485 54.5819C133.459 54.6077 133.407 54.6077 133.381 54.6077C133.355 54.6077 133.303 54.5819 133.277 54.5299C133.225 54.4522 133.225 54.3227 133.277 54.2709L136.854 50.6424C136.854 50.5907 136.828 50.5389 136.828 50.4612C136.802 50.0982 137.009 49.8909 137.294 49.9427ZM142.711 45.7702C142.685 45.7702 142.685 45.7442 142.659 45.7182C142.633 45.6664 142.633 45.6147 142.659 45.5887L143.411 44.8889C143.437 44.8889 143.437 44.8629 143.463 44.8889C143.489 44.8889 143.489 44.9149 143.515 44.9407C143.54 44.9927 143.54 45.0444 143.515 45.0704L142.763 45.7702C142.737 45.7959 142.737 45.7959 142.711 45.7702ZM137.217 41.3124C137.139 41.2864 137.087 41.1827 137.061 41.1049L137.035 39.7574C137.035 39.6537 137.087 39.6019 137.165 39.6277C137.243 39.6537 137.32 39.7574 137.32 39.8352L137.346 41.1827C137.372 41.2864 137.294 41.3382 137.217 41.3124ZM137.191 38.5909C131.8 36.8287 127.498 40.8199 127.601 47.4547C127.705 54.1154 132.163 60.9317 137.554 62.6679C142.944 64.4304 147.247 60.4392 147.143 53.8044C147.039 47.1437 142.582 40.3534 137.191 38.5909Z" fill="#FEEFF0"/>
<path d="M141.7 51.3685L138.875 50.4613C138.72 50.4095 138.616 50.5133 138.616 50.6945V51.3943C138.616 51.5758 138.746 51.7573 138.901 51.809L141.726 52.7163C141.882 52.768 141.985 52.6643 141.985 52.4828V51.783C141.959 51.6018 141.856 51.4203 141.7 51.3685Z" fill="#FBD8CB"/>
<path d="M128.405 102.114L128.56 112.429C128.56 112.688 128.742 112.947 128.949 113.025L163.315 124.195C163.522 124.273 163.678 124.118 163.678 123.858L163.652 122.822L128.534 111.418V111.081L128.405 102.114ZM162.589 75.9378L128.223 64.7675C128.016 64.6898 127.86 64.8453 127.86 65.1043L127.886 66.2705L163.004 77.674L162.978 76.5078C162.952 76.2745 162.797 76.0155 162.589 75.9378Z" fill="#FBEFCB"/>
<path d="M144.111 32.9412C143.929 32.8895 143.8 33.019 143.8 33.2265C143.8 33.4337 143.955 33.667 144.137 33.7187C144.318 33.7707 144.448 33.641 144.448 33.4337C144.448 33.2265 144.292 32.9932 144.111 32.9412Z" fill="#FAE9B8"/>
<path d="M145.587 33.4077C145.406 33.3557 145.276 33.4855 145.276 33.6927C145.276 33.9 145.432 34.1332 145.613 34.1852C145.795 34.237 145.924 34.1075 145.924 33.9C145.924 33.6927 145.769 33.4855 145.587 33.4077Z" fill="#FAE9B8"/>
<path d="M163.237 94.961L145.977 89.3628L146.236 107.22L163.497 112.818L163.237 94.961Z" fill="#B5CDFB"/>
<path d="M145.536 98.4595L137.32 95.79L137.45 104.369L145.666 107.038L145.536 98.4595Z" fill="#FEEFF0"/>
<path d="M136.621 86.3305L128.12 83.5573L128.25 92.136L136.751 94.909L136.621 86.3305Z" fill="#B5CDFB"/>
<path d="M133.07 119.841L131.774 119.427C131.515 119.349 131.308 119.53 131.308 119.867L131.333 121.448C131.333 121.759 131.567 122.096 131.826 122.174L133.122 122.589C133.381 122.666 133.588 122.485 133.588 122.148L133.562 120.567C133.562 120.256 133.355 119.919 133.07 119.841Z" fill="#1F818C"/>
<path d="M139.964 122.07L138.669 121.656C138.409 121.578 138.202 121.759 138.202 122.096L138.228 123.677C138.228 123.988 138.461 124.325 138.72 124.403L140.016 124.818C140.275 124.895 140.483 124.714 140.483 124.377L140.457 122.796C140.431 122.485 140.224 122.174 139.964 122.07Z" fill="#1F818C"/>
<path d="M146.832 124.325L145.536 123.91C145.277 123.832 145.069 124.014 145.069 124.351L145.095 125.932C145.095 126.243 145.329 126.58 145.588 126.657L146.884 127.072C147.143 127.15 147.35 126.968 147.35 126.631L147.324 125.05C147.324 124.739 147.091 124.402 146.832 124.325Z" fill="#1F818C"/>
<path d="M153.726 126.554L152.43 126.139C152.171 126.061 151.964 126.243 151.964 126.58L151.99 128.161C151.99 128.472 152.197 128.809 152.482 128.886L153.778 129.301C154.037 129.379 154.245 129.197 154.245 128.86L154.219 127.279C154.193 126.968 153.985 126.631 153.726 126.554Z" fill="#1F818C"/>
<path d="M160.594 128.783L159.298 128.368C159.039 128.29 158.831 128.472 158.831 128.808L158.857 130.389C158.857 130.7 159.064 131.037 159.35 131.115L160.645 131.53C160.905 131.607 161.112 131.426 161.112 131.089L161.086 129.508C161.086 129.197 160.853 128.86 160.594 128.783Z" fill="#1F818C"/>
<path d="M153.596 47.8177L150.305 46.7552L150.331 48.647L153.648 49.7098L153.596 47.8177Z" fill="#B5CDFB"/>
<path d="M162.642 54.66L150.357 50.6687L150.383 52.5607L162.668 56.5519L162.642 54.66Z" fill="#FEEFF0"/>
<path d="M162.797 64.7415L156.654 62.7457L156.732 68.914L162.874 70.9097L162.797 64.7415Z" fill="#FBEFCB"/>
<path d="M156.551 56.5778L150.408 54.582L150.512 60.7503L150.59 66.9185L156.732 68.9143L156.654 62.746L156.551 56.5778Z" fill="#B5CDFB"/>
<path d="M145.977 89.3627L145.406 89.1812L145.536 97.76L145.821 97.8635V98.5632L145.536 98.4597L145.666 107.038L146.236 107.22L145.977 89.3627ZM145.718 72.8017L145.147 72.6202L145.381 88.4815L145.951 88.663L145.718 72.8017Z" fill="#161616"/>
<path d="M164.792 94.7795L163.237 94.261L145.951 88.663L145.38 88.4815L128.12 82.8575L127.238 82.5725L127.264 83.2723L128.12 83.5573L136.62 86.3305V85.7603L137.191 85.9418V86.512L145.406 89.1813L145.977 89.3628L163.237 94.961L164.792 95.4793V94.7795Z" fill="#161616"/>
<path d="M136.75 94.909L128.249 92.136L127.394 91.8507V92.5505L128.249 92.8357L136.75 95.583V94.909ZM145.795 97.8377L145.51 97.734L137.32 95.0905V95.7902L145.536 98.4597L145.821 98.5632L145.795 97.8377Z" fill="#161616"/>
<path d="M137.191 85.9418L136.621 85.7603V86.3305L136.751 94.909V95.6088L136.88 104.187L137.45 104.369L137.321 95.7903V95.0905L137.191 86.5118V85.9418Z" fill="#161616"/>
<path d="M164.274 122.303L163.626 122.096L128.534 110.693V111.029V111.392L163.652 122.796L164.274 123.003V122.303Z" fill="#161616"/>
<path d="M164.144 113.025L163.496 112.818L146.236 107.22L145.665 107.038L137.45 104.369L136.88 104.187L128.379 101.414L127.523 101.129V101.829L128.405 102.114L163.496 113.518L164.144 113.725V113.025Z" fill="#161616"/>
<path d="M163.626 77.9075L162.978 77.7L127.86 66.2965L127.005 66.0115V66.7112L127.886 66.9962L145.147 72.6202L145.717 72.8017L163.004 78.3997L163.626 78.6072V77.9075Z" fill="#161616"/>
<path d="M135.169 74.4605C133.563 73.9423 132.293 75.1085 132.319 77.104C132.345 79.0738 133.666 81.0953 135.273 81.6138C136.88 82.132 138.15 80.9658 138.124 78.9703C138.072 77.0263 136.75 75.0048 135.169 74.4605Z" fill="#2249B3"/>
<path opacity="0.1" d="M134.159 82.0022C134.029 83.013 130.945 86.6932 128.224 89.8292C127.187 91.0215 126.202 92.11 125.451 92.9392L125.373 87.1858L128.043 84.3347L132.397 79.6957C133.096 78.97 134.315 79.4625 134.315 80.4733C134.289 80.9398 134.237 81.4322 134.159 82.0022Z" fill="#161616"/>
<path d="M116.949 81.1729C119.826 80.2917 125.243 78.5552 127.524 78.1924C129.804 77.8297 131.8 74.7714 133.018 76.4042C134.236 78.0369 130.452 81.3024 128.197 80.7842C127.187 81.8207 126.072 82.3392 124.75 82.5207C122.444 84.1014 121.2 85.2677 118.79 87.1597C117.312 88.3259 114.487 91.8767 116.509 93.7167C118.504 95.5309 120.967 94.9867 123.273 94.2352" stroke="#161616" stroke-width="0.375" stroke-miterlimit="10" stroke-linecap="round"/>
<path opacity="0.1" d="M98.7562 112.61C96.9937 113.595 94.9205 113.906 92.9507 115.539C92.0955 116.265 91.2402 117.25 90.4627 118.675C90.4627 118.675 88.4412 121.293 85.6162 124.74C85.6162 124.74 85.6162 124.74 85.6162 124.765C80.6142 130.908 73.176 139.668 70.4805 141.041C68.5887 142 64.105 140.653 59.751 138.864C64.2865 138.009 71.2062 135.391 72.6057 133.811C74.4717 131.737 81.1842 123.47 85.9012 119.401C87.4822 118.053 88.519 117.016 89.1927 116.109C90.5662 114.295 90.5145 112.973 90.5145 110.667C90.5145 107.22 92.3805 108.775 90.5145 104.161C89.737 102.218 88.2337 100.585 86.7565 99.3665C84.709 97.656 82.7135 96.6713 82.7135 96.6713C83.465 96.153 84.2167 95.816 84.9682 95.79C85.02 95.79 85.072 95.79 85.1237 95.79C85.6162 95.816 86.2122 96.0753 86.912 96.464C86.912 96.464 86.912 96.464 86.938 96.464C87.4562 96.775 88.0005 97.1638 88.5707 97.6303C88.5707 97.6303 88.5967 97.656 88.6745 97.708C90.1775 98.926 91.8362 100.637 93.3912 102.451C93.4172 102.477 93.4432 102.503 93.469 102.529C94.6872 103.954 95.8275 105.457 96.7865 106.857C96.89 107.012 96.9677 107.116 96.9937 107.168C97.4602 107.893 97.9007 108.593 98.2377 109.215C99.093 110.978 99.404 112.248 98.7562 112.61Z" fill="#161616"/>
<path d="M76.0262 136.765C79.6807 132.618 83.05 128.29 85.6157 124.74C87.9482 121.5 89.607 118.908 90.203 117.69C90.229 117.612 90.2807 117.561 90.3067 117.483C90.9287 116.239 91.6285 115.306 92.38 114.606C94.298 112.74 96.449 112.351 98.2112 111.237C98.652 110.952 98.6002 110.252 98.1855 109.293C97.9002 108.593 97.408 107.764 96.786 106.857C95.9047 105.535 94.7125 104.032 93.4167 102.58C93.3907 102.555 93.3647 102.529 93.339 102.503C92.4577 101.518 91.5507 100.559 90.6177 99.678C90.6177 99.678 90.6177 99.678 90.5917 99.652C89.892 98.978 89.2182 98.356 88.5442 97.8117C87.974 97.3195 87.404 96.9047 86.8597 96.516C86.8597 96.516 86.8597 96.516 86.8337 96.516C85.512 95.583 84.3457 95.0387 83.5682 95.1165C83.1277 95.1425 82.687 95.298 82.2465 95.5312C78.7477 97.3452 75.4302 104.628 71.8795 107.09C70.7652 107.868 67.992 110.096 64.6227 112.921L64.597 112.947C57.677 118.727 48.1395 126.917 44.6407 129.923C43.7855 130.675 43.293 131.089 43.293 131.089" stroke="#161616" stroke-width="0.375" stroke-miterlimit="10" stroke-linecap="round"/>
<path opacity="0.1" d="M128.068 95.6864C127.135 97.2414 125.061 98.5114 122.806 99.1592C119.981 99.9887 115.809 103.176 112.206 104.006C110.522 104.394 108.086 104.369 105.779 103.85C104.898 103.85 103.991 103.902 103.058 104.006C101.943 104.109 100.803 104.343 99.7144 104.705C98.6517 105.068 97.6929 105.846 96.7857 106.882C96.7597 106.908 96.7597 106.934 96.7339 106.934C96.8374 107.09 96.9152 107.193 96.9412 107.245C97.0189 107.375 96.9412 107.271 96.7079 106.96C96.0599 106.105 94.3494 103.824 92.5872 101.777C91.9132 100.999 91.2394 100.3 90.6174 99.6777C90.6174 99.6777 90.6174 99.6777 90.5914 99.6517C89.6327 98.6927 88.8552 97.9929 88.5959 97.7597C88.5442 97.7079 88.5182 97.6819 88.4922 97.6819C88.4922 97.6819 88.5182 97.7079 88.5959 97.7597C89.0884 97.3192 89.5807 96.8785 90.0732 96.412C91.1617 98.952 93.6239 102.762 98.4704 102.14C99.3514 102.036 100.181 101.88 100.958 101.699C101.01 101.673 101.088 101.673 101.14 101.647C106.608 100.377 110.003 97.8374 116.742 97.7597C117.131 97.7597 117.493 97.7337 117.856 97.7079C118.893 97.6559 119.852 97.5004 120.733 97.3449C121.122 97.2672 121.511 97.1894 121.873 97.0859C124.932 96.3602 126.953 95.3494 128.068 95.6864Z" fill="#161616"/>
<path d="M17.7136 27.058H13.9297V31.153H17.7136V27.058Z" fill="#B5CDFB"/>
<path d="M2.5 21.7451H64.727" stroke="#161616" stroke-width="0.375" stroke-miterlimit="10" stroke-linecap="round"/>
<path opacity="0.1" d="M57.1334 17.676H10.5605V19.9308H57.1334V17.676Z" fill="#161616"/>
<path d="M26.9657 63.1865H19.4756V64.586H26.9657V63.1865Z" fill="#B5CDFB"/>
<path d="M47.2587 65.3635H19.4756V66.763H47.2587V65.3635Z" fill="#B5CDFB"/>
<path opacity="0.1" d="M32.1749 93.38H19.4756V103.669H32.1749V93.38Z" fill="#161616"/>
<path opacity="0.3" d="M89.3224 68.7588H69.7549V79.0478H89.3224V68.7588Z" fill="#75E0E6"/>
<path opacity="0.1" d="M48.503 81.0952H35.8037V91.3842H48.503V81.0952Z" fill="#161616"/>
<path opacity="0.1" d="M52.183 55.489H14.5254V59.1693H52.183V55.489Z" fill="#161616"/>
<path opacity="0.1" d="M71.3098 18.1167H69.2881V20.1382H71.3098V18.1167Z" fill="#161616"/>
<path opacity="0.1" d="M75.3526 18.1167H73.3311V20.1382H75.3526V18.1167Z" fill="#161616"/>
<path opacity="0.1" d="M73.3313 20.1382H71.3096V22.1597H73.3313V20.1382Z" fill="#161616"/>
<path opacity="0.1" d="M73.3313 16.0693H71.3096V18.0909H73.3313V16.0693Z" fill="#161616"/>
<path opacity="0.1" d="M106.665 61.0322V66.5007H112.134V61.0322H106.665Z" fill="#161616"/>
<path opacity="0.1" d="M112.133 66.5179V71.9865H117.601V66.5179H112.133Z" fill="#161616"/>
<path opacity="0.1" d="M101.204 66.5007V71.9692H106.673V66.5007H101.204Z" fill="#161616"/>
<path opacity="0.1" d="M195.141 19.4385H189.673V24.907H195.141V19.4385Z" fill="#161616"/>
<path opacity="0.1" d="M189.699 24.907H184.23V30.3755H189.699V24.907Z" fill="#161616"/>
<path opacity="0.1" d="M189.699 13.97H184.23V19.4385H189.699V13.97Z" fill="#161616"/>
<path opacity="0.19" d="M14.8106 107.634H12.7891V109.656H14.8106V107.634Z" fill="#1A1A1A"/>
<path opacity="0.19" d="M18.8536 107.634H16.832V109.656H18.8536V107.634Z" fill="#1A1A1A"/>
<path opacity="0.19" d="M16.8321 109.656H14.8105V111.677H16.8321V109.656Z" fill="#1A1A1A"/>
<path opacity="0.19" d="M16.8321 105.613H14.8105V107.634H16.8321V105.613Z" fill="#1A1A1A"/>
<path fill-rule="evenodd" clip-rule="evenodd" d="M129.373 15.0293L150.573 21.9751L150.452 22.3445L129.252 15.3987L129.373 15.0293Z" fill="#75E0E6"/>
<path fill-rule="evenodd" clip-rule="evenodd" d="M133.105 5.25854L159.592 13.9667L159.471 14.336L132.983 5.62784L133.105 5.25854Z" fill="#75E0E6"/>
<path fill-rule="evenodd" clip-rule="evenodd" d="M86.342 11.0025H85.5645V10.6138H86.342V11.0025Z" fill="#75E0E6"/>
<path fill-rule="evenodd" clip-rule="evenodd" d="M88.6924 11.0025H87.9229V10.6138H88.6924V11.0025ZM91.7701 11.0025H90.2311V10.6138H91.7701V11.0025ZM94.8476 11.0025H93.3089V10.6138H94.8476V11.0025ZM97.9254 11.0025H96.3866V10.6138H97.9254V11.0025ZM101.003 11.0025H99.4641V10.6138H101.003V11.0025ZM104.081 11.0025H102.542V10.6138H104.081V11.0025ZM107.158 11.0025H105.619V10.6138H107.158V11.0025ZM110.236 11.0025H108.697V10.6138H110.236V11.0025ZM112.544 11.0025H111.775V10.6138H112.544V11.0025Z" fill="#75E0E6"/>
<path fill-rule="evenodd" clip-rule="evenodd" d="M114.099 11.0025H113.321V10.6138H114.099V11.0025Z" fill="#75E0E6"/>
<path fill-rule="evenodd" clip-rule="evenodd" d="M114.099 8.92906H85.5645V8.54028H114.099V8.92906Z" fill="#75E0E6"/>
<path fill-rule="evenodd" clip-rule="evenodd" d="M114.099 6.82967H85.5645V6.44092H114.099V6.82967Z" fill="#75E0E6"/>
<path fill-rule="evenodd" clip-rule="evenodd" d="M174.476 19.3898L161.776 15.1653L161.899 14.7964L174.598 19.0209L174.476 19.3898Z" fill="#75E0E6"/>
<path fill-rule="evenodd" clip-rule="evenodd" d="M172.169 29.497L153.819 23.3547L153.943 22.9861L172.292 29.1285L172.169 29.497Z" fill="#75E0E6"/>
<path fill-rule="evenodd" clip-rule="evenodd" d="M28.7412 107.873V107.038H29.13V107.873H28.7412ZM28.7412 111.212V109.542H29.13V111.212H28.7412ZM28.7412 114.551V112.881H29.13V114.551H28.7412ZM28.7412 117.89V116.22H29.13V117.89H28.7412ZM28.7412 121.229V119.559H29.13V121.229H28.7412ZM28.7412 124.568V122.898H29.13V124.568H28.7412ZM28.7412 127.072V126.237H29.13V127.072H28.7412Z" fill="#75E0E6"/>
<path fill-rule="evenodd" clip-rule="evenodd" d="M87.21 68.5308V67.696H87.599V68.5308H87.21ZM87.21 71.8698V70.2003H87.599V71.8698H87.21ZM87.21 75.2088V73.5393H87.599V75.2088H87.21ZM87.21 78.5478V76.8783H87.599V78.5478H87.21ZM87.21 81.8868V80.2173H87.599V81.8868H87.21ZM87.21 85.2258V83.5563H87.599V85.2258H87.21ZM87.21 87.73V86.8953H87.599V87.73H87.21Z" fill="#2249B3"/>
<path opacity="0.77" d="M61.6424 68.7588H52.1309V69.951H61.6424V68.7588Z" fill="#2249B3"/>
<path opacity="0.77" d="M66.1519 71.4022H52.1309V72.5945H66.1519V71.4022Z" fill="#2249B3"/>
<path opacity="0.77" d="M66.1519 74.0198H52.1309V75.212H66.1519V74.0198Z" fill="#2249B3"/>
<path opacity="0.77" d="M66.1519 76.6375H52.1309V77.8297H66.1519V76.6375Z" fill="#2249B3"/>
<path opacity="0.77" d="M66.1519 79.281H52.1309V80.4733H66.1519V79.281Z" fill="#2249B3"/>
<path opacity="0.77" d="M66.1519 84.024H52.1309V85.216H66.1519V84.024Z" fill="#2249B3"/>
<path opacity="0.77" d="M66.1519 86.6412H52.1309V87.8335H66.1519V86.6412Z" fill="#2249B3"/>
<path d="M20.3563 120.463H10.8447V121.655H20.3563V120.463Z" fill="#75E0E6"/>
<path d="M24.8659 123.081H10.8447V124.273H24.8659V123.081Z" fill="#75E0E6"/>
<path d="M24.8659 125.698H10.8447V126.891H24.8659V125.698Z" fill="#75E0E6"/>
<path d="M20.3563 131.193H10.8447V132.385H20.3563V131.193Z" fill="#75E0E6"/>
<path d="M24.8659 133.811H10.8447V135.003H24.8659V133.811Z" fill="#75E0E6"/>
<path d="M24.8659 136.428H10.8447V137.62H24.8659V136.428Z" fill="#75E0E6"/>
<path d="M85.5645 17.0801H114.099" stroke="#161616" stroke-width="0.375" stroke-miterlimit="10" stroke-linecap="round"/>
<path d="M85.5645 15.0066H114.099" stroke="#161616" stroke-width="0.375" stroke-miterlimit="10" stroke-linecap="round"/>
<path d="M85.5645 12.9075H114.099" stroke="#161616" stroke-width="0.375" stroke-miterlimit="10" stroke-linecap="round"/>
<path d="M65.1416 62.798H87.4046V38.073" stroke="#161616" stroke-width="0.375" stroke-miterlimit="10" stroke-linecap="round"/>
<path opacity="0.77" d="M89.2446 80.6805H69.7549V81.8725H89.2446V80.6805Z" fill="#2249B3"/>
<path opacity="0.77" d="M89.2446 83.298H69.7549V84.4902H89.2446V83.298Z" fill="#2249B3"/>
<path d="M118.737 48.5172H99.1182" stroke="#161616" stroke-width="0.375" stroke-miterlimit="10" stroke-linecap="round"/>
<path d="M112.673 54.2192H93.0801" stroke="#161616" stroke-width="0.375" stroke-miterlimit="10" stroke-linecap="round"/>
<path d="M112.673 53.0012H93.0801" stroke="#161616" stroke-width="0.375" stroke-miterlimit="10" stroke-linecap="round"/>
<path d="M115.187 46.9365H99.1182" stroke="#161616" stroke-width="0.375" stroke-miterlimit="10" stroke-linecap="round"/>
<path fill-rule="evenodd" clip-rule="evenodd" d="M179.822 44.7482L179.812 43.9847L180.2 43.9792L180.211 44.7427L179.822 44.7482ZM179.866 47.802L179.844 46.2752L180.233 46.2697L180.254 47.7965L179.866 47.802ZM179.909 50.856L179.887 49.329L180.276 49.3235L180.298 50.8505L179.909 50.856ZM179.952 53.91L179.93 52.383L180.319 52.3775L180.341 53.9045L179.952 53.91ZM179.995 56.9637L179.974 55.4367L180.362 55.4312L180.384 56.9582L179.995 56.9637ZM180.038 60.0177L180.017 58.4907L180.406 58.4852L180.427 60.0122L180.038 60.0177ZM180.082 63.0715L180.06 61.5447L180.449 61.5392L180.47 63.066L180.082 63.0715ZM180.125 66.1255L180.103 64.5985L180.492 64.593L180.514 66.12L180.125 66.1255ZM180.168 69.1795L180.146 67.6525L180.535 67.647L180.557 69.174L180.168 69.1795ZM180.211 72.2332L180.19 70.7062L180.578 70.7007L180.6 72.2277L180.211 72.2332ZM180.254 75.2872L180.233 73.7602L180.622 73.7547L180.643 75.2817L180.254 75.2872ZM180.298 78.341L180.276 76.8142L180.665 76.8087L180.686 78.3355L180.298 78.341ZM180.33 80.6315L180.319 79.868L180.708 79.8625L180.719 80.626L180.33 80.6315Z" fill="#75E0E6"/>
<path fill-rule="evenodd" clip-rule="evenodd" d="M182.518 52.3943L182.507 51.6303L182.896 51.6248L182.906 52.3888L182.518 52.3943ZM182.561 55.4503L182.539 53.9223L182.928 53.9168L182.95 55.4448L182.561 55.4503ZM182.604 58.5063L182.582 56.9783L182.971 56.9728L182.993 58.501L182.604 58.5063ZM182.647 61.5625L182.626 60.0345L183.014 60.029L183.036 61.557L182.647 61.5625ZM182.69 64.6185L182.669 63.0905L183.058 63.085L183.079 64.613L182.69 64.6185ZM182.734 67.6745L182.712 66.1465L183.101 66.141L183.122 67.669L182.734 67.6745ZM182.777 70.7305L182.755 69.2025L183.144 69.197L183.166 70.725L182.777 70.7305ZM182.82 73.7868L182.798 72.2588L183.187 72.2533L183.209 73.7813L182.82 73.7868ZM182.863 76.8428L182.842 75.3148L183.23 75.3093L183.252 76.8373L182.863 76.8428ZM182.906 79.8988L182.885 78.3708L183.274 78.3653L183.295 79.8933L182.906 79.8988ZM182.95 82.9548L182.928 81.4268L183.317 81.4213L183.338 82.9493L182.95 82.9548ZM182.993 86.011L182.971 84.4828L183.36 84.4773L183.382 86.0055L182.993 86.011ZM183.025 88.303L183.014 87.539L183.403 87.5335L183.414 88.2975L183.025 88.303Z" fill="#75E0E6"/>
<path opacity="0.36" d="M197.5 133.24H188.87V135.573H197.5V133.24Z" fill="#2249B3"/>
<path d="M163.003 78.4002L145.717 72.8022L145.95 88.6635L163.237 94.2615L163.003 78.4002Z" fill="#75E0E6"/>
<path d="M145.406 89.1815L137.19 86.512L137.32 95.0905L145.536 97.76L145.406 89.1815Z" fill="#75E0E6"/>
<path opacity="0.35" d="M127.446 120.593L127.576 129.742C127.576 130.001 127.757 130.286 127.965 130.364L133.977 132.307L162.331 40.6128C162.331 40.3536 162.149 40.0685 161.942 40.0165L153.908 37.399L127.446 120.593ZM127.446 120.593L153.882 37.399L127.446 120.593Z" fill="#FEEFF0"/>
</svg>
