<svg width="32" height="32" viewBox="0 0 32 32" fill="none" xmlns="http://www.w3.org/2000/svg">
<path fill-rule="evenodd" clip-rule="evenodd" d="M16 32C24.8366 32 32 24.8366 32 16C32 7.16344 24.8366 0 16 0C7.16344 0 0 7.16344 0 16C0 24.8366 7.16344 32 16 32Z" fill="#18204D"/>
<path d="M25 16.0167C25 14.8243 23.5067 13.6943 21.2173 12.9935C21.7456 10.66 21.5108 8.80351 20.4762 8.20913C20.2377 8.06971 19.9588 8.00367 19.6543 8.00367V8.82185C19.8231 8.82185 19.9588 8.85487 20.0726 8.91724C20.5715 9.20342 20.788 10.2931 20.6192 11.6947C20.5789 12.0395 20.5128 12.4028 20.4321 12.7733C19.713 12.5972 18.9278 12.4615 18.1023 12.3734C17.607 11.6947 17.0934 11.0783 16.576 10.5389C17.7721 9.42723 18.8948 8.81818 19.658 8.81818V8C18.649 8 17.3282 8.71912 15.9927 9.96657C14.6572 8.72646 13.3363 8.01468 12.3274 8.01468V8.83286C13.0868 8.83286 14.2132 9.43824 15.4093 10.5426C14.8956 11.0819 14.382 11.6947 13.894 12.3734C13.0648 12.4615 12.2797 12.5972 11.5605 12.777C11.4762 12.4101 11.4138 12.0542 11.3698 11.713C11.1973 10.3115 11.4101 9.22177 11.9054 8.93192C12.0155 8.86588 12.1586 8.83653 12.3274 8.83653V8.01834C12.0192 8.01834 11.7403 8.08439 11.4982 8.22381C10.4672 8.81818 10.236 10.671 10.768 12.9971C8.48594 13.7016 7 14.828 7 16.0167C7 17.2091 8.49327 18.3392 10.7827 19.04C10.2544 21.3734 10.4892 23.2299 11.5238 23.8243C11.7623 23.9637 12.0412 24.0298 12.3494 24.0298C13.3583 24.0298 14.6792 23.3106 16.0147 22.0632C17.3502 23.3033 18.671 24.0151 19.68 24.0151C19.9882 24.0151 20.267 23.949 20.5092 23.8096C21.5402 23.2152 21.7713 21.3624 21.2393 19.0363C23.5141 18.3355 25 17.2055 25 16.0167ZM20.223 13.5695C20.0872 14.0428 19.9185 14.5308 19.7277 15.0188C19.5773 14.7252 19.4195 14.4317 19.247 14.1382C19.0783 13.8447 18.8985 13.5585 18.7187 13.2797C19.2397 13.3567 19.7424 13.4521 20.223 13.5695ZM18.5426 17.477C18.2564 17.9723 17.9629 18.4419 17.6584 18.8785C17.1117 18.9262 16.5577 18.9519 16 18.9519C15.446 18.9519 14.892 18.9262 14.349 18.8822C14.0444 18.4456 13.7472 17.9796 13.4611 17.488C13.1822 17.0073 12.9291 16.5194 12.6979 16.0277C12.9254 15.5361 13.1822 15.0444 13.4574 14.5638C13.7436 14.0685 14.0371 13.5989 14.3416 13.1623C14.8883 13.1146 15.4423 13.0889 16 13.0889C16.554 13.0889 17.108 13.1146 17.651 13.1586C17.9556 13.5952 18.2528 14.0611 18.5389 14.5528C18.8178 15.0334 19.0709 15.5214 19.3021 16.013C19.0709 16.5047 18.8178 16.9963 18.5426 17.477ZM19.7277 17C19.9258 17.4916 20.0946 17.9833 20.234 18.4603C19.7534 18.5777 19.247 18.6767 18.7224 18.7538C18.9022 18.4713 19.0819 18.1814 19.2507 17.8842C19.4195 17.5907 19.5773 17.2935 19.7277 17ZM16.0073 20.9148C15.6661 20.5626 15.3249 20.17 14.9874 19.7407C15.3176 19.7554 15.6551 19.7664 15.9963 19.7664C16.3412 19.7664 16.6824 19.7591 17.0163 19.7407C16.6861 20.17 16.3449 20.5626 16.0073 20.9148ZM13.2776 18.7538C12.7566 18.6767 12.254 18.5813 11.7733 18.4639C11.9091 17.9906 12.0779 17.5027 12.2687 17.0147C12.4191 17.3082 12.5768 17.6017 12.7493 17.8952C12.9217 18.1887 13.0978 18.4749 13.2776 18.7538ZM15.989 11.1186C16.3302 11.4709 16.6714 11.8634 17.009 12.2927C16.6788 12.278 16.3412 12.267 16 12.267C15.6551 12.267 15.3139 12.2744 14.98 12.2927C15.3102 11.8634 15.6514 11.4709 15.989 11.1186ZM13.274 13.2797C13.0942 13.5622 12.9144 13.852 12.7456 14.1492C12.5768 14.4427 12.4191 14.7362 12.2687 15.0298C12.0705 14.5381 11.9018 14.0465 11.7623 13.5695C12.243 13.4558 12.7493 13.3567 13.274 13.2797ZM9.95353 17.8732C8.65471 17.3192 7.81451 16.5927 7.81451 16.0167C7.81451 15.4407 8.65471 14.7106 9.95353 14.1602C10.2691 14.0245 10.6139 13.9034 10.9698 13.7896C11.179 14.5088 11.4541 15.2572 11.7954 16.0241C11.4578 16.7872 11.1863 17.532 10.9808 18.2475C10.6176 18.1337 10.2727 18.009 9.95353 17.8732ZM11.9274 23.1162C11.4285 22.83 11.212 21.7403 11.3808 20.3388C11.4211 19.9939 11.4872 19.6307 11.5679 19.2601C12.287 19.4362 13.0722 19.572 13.8977 19.66C14.393 20.3388 14.9066 20.9552 15.424 21.4945C14.2279 22.6062 13.1052 23.2152 12.342 23.2152C12.1769 23.2116 12.0375 23.1786 11.9274 23.1162ZM20.6302 20.3204C20.8027 21.722 20.5899 22.8117 20.0946 23.1015C19.9845 23.1675 19.8414 23.1969 19.6726 23.1969C18.9132 23.1969 17.7868 22.5915 16.5907 21.4872C17.1044 20.9478 17.618 20.3351 18.106 19.6563C18.9352 19.5683 19.7203 19.4325 20.4395 19.2528C20.5238 19.6233 20.5899 19.9792 20.6302 20.3204ZM22.0428 17.8732C21.7273 18.009 21.3824 18.13 21.0265 18.2438C20.8174 17.5247 20.5422 16.7762 20.201 16.0094C20.5385 15.2462 20.81 14.5014 21.0155 13.786C21.3787 13.8997 21.7236 14.0245 22.0465 14.1602C23.3453 14.7142 24.1855 15.4407 24.1855 16.0167C24.1818 16.5927 23.3416 17.3229 22.0428 17.8732Z" fill="#61DAFB"/>
<path d="M15.9961 17.6935C16.9221 17.6935 17.6728 16.9428 17.6728 16.0168C17.6728 15.0908 16.9221 14.3401 15.9961 14.3401C15.07 14.3401 14.3193 15.0908 14.3193 16.0168C14.3193 16.9428 15.07 17.6935 15.9961 17.6935Z" fill="#61DAFB"/>
</svg>
