<svg width="32" height="32" viewBox="0 0 32 32" fill="none" xmlns="http://www.w3.org/2000/svg">
<path fill-rule="evenodd" clip-rule="evenodd" d="M16 32C24.8366 32 32 24.8366 32 16C32 7.16344 24.8366 0 16 0C7.16344 0 0 7.16344 0 16C0 24.8366 7.16344 32 16 32Z" fill="black"/>
<path d="M13.0616 24.7274C14.6514 24.7274 15.9416 23.4241 15.9416 21.8183V18.9092H13.0616C11.4719 18.9092 10.1816 20.2125 10.1816 21.8183C10.1816 23.4241 11.4719 24.7274 13.0616 24.7274Z" fill="#0ACF83"/>
<path d="M10.1816 15.9999C10.1816 14.3941 11.4719 13.0908 13.0616 13.0908H15.9416V18.909H13.0616C11.4719 18.909 10.1816 17.6057 10.1816 15.9999Z" fill="#A259FF"/>
<path d="M10.1816 10.1818C10.1816 8.57598 11.4719 7.27271 13.0616 7.27271H15.9416V13.0909H13.0616C11.4719 13.0909 10.1816 11.7876 10.1816 10.1818Z" fill="#F24E1E"/>
<path d="M15.9414 7.27271H18.8214C20.4112 7.27271 21.7014 8.57598 21.7014 10.1818C21.7014 11.7876 20.4112 13.0909 18.8214 13.0909H15.9414V7.27271Z" fill="#FF7262"/>
<path d="M21.7014 15.9999C21.7014 17.6057 20.4112 18.909 18.8214 18.909C17.2316 18.909 15.9414 17.6057 15.9414 15.9999C15.9414 14.3941 17.2316 13.0908 18.8214 13.0908C20.4112 13.0908 21.7014 14.3941 21.7014 15.9999Z" fill="#1ABCFE"/>
</svg>
