<svg width="17" height="16" viewBox="0 0 17 16" fill="none" xmlns="http://www.w3.org/2000/svg">
<g id="Logo">
<path id="Path" d="M1.18164 0.727295H8.45437C12.471 0.727295 15.7271 3.98341 15.7271 8.00002C15.7271 12.0166 12.471 15.2728 8.45437 15.2728H1.18164V0.727295Z" stroke="url(#paint0_linear)" stroke-width="1.11111"/>
<path id="Shape" d="M13.0785 2.42527C11.8365 1.40606 10.3856 0.744559 8.6555 0.727295L1.36133 8.00002L8.6555 15.2728C10.3855 15.2554 11.8365 14.5753 13.0785 13.5562C13.0484 13.526 11.0998 11.6452 10.394 10.9416C9.68826 10.238 7.9293 8.52763 7.39996 8.00002C7.39996 8.00002 13.0484 2.45543 13.0785 2.42527Z" stroke="url(#paint1_linear)" stroke-width="1.11111"/>
</g>
<defs>
<linearGradient id="paint0_linear" x1="1.18164" y1="0.727295" x2="1.18164" y2="15.2727" gradientUnits="userSpaceOnUse">
<stop stop-color="#9EE1EC"/>
<stop offset="1" stop-color="#E5A7E0"/>
</linearGradient>
<linearGradient id="paint1_linear" x1="1.36133" y1="0.727295" x2="1.36133" y2="15.2727" gradientUnits="userSpaceOnUse">
<stop stop-color="#9EE1EC"/>
<stop offset="1" stop-color="#E5A7E0"/>
</linearGradient>
</defs>
</svg>
