<svg width="32" height="32" viewBox="0 0 32 32" fill="none" xmlns="http://www.w3.org/2000/svg">
<path d="M16 32C24.8366 32 32 24.8366 32 16C32 7.16344 24.8366 0 16 0C7.16344 0 0 7.16344 0 16C0 24.8366 7.16344 32 16 32Z" fill="#4353FF"/>
<path d="M20.7004 14.1L19.2504 18.67C19.2504 18.32 18.2504 10.74 18.2504 10.74C15.9504 10.74 14.7304 12.37 14.0904 14.1L12.3204 18.68C12.3204 18.35 12.0704 14.14 12.0704 14.14C11.9851 13.2286 11.5684 12.3802 10.8994 11.7554C10.2304 11.1307 9.35551 10.7729 8.44043 10.75L10.3204 22.23C12.7204 22.23 14.0204 20.6 14.6904 18.87L16.1904 14.97C16.1904 15.13 17.1904 22.23 17.1904 22.23C18.1718 22.2287 19.1273 21.915 19.9184 21.3342C20.7095 20.7535 21.2952 19.9359 21.5904 19L24.9904 10.74C22.5904 10.74 21.3304 12.37 20.6904 14.1H20.7004Z" fill="white"/>
</svg>
