<?xml version="1.0" encoding="UTF-8"?>
<svg xmlns="http://www.w3.org/2000/svg" viewBox="0 0 100 100" width="100px" height="100px">
<g id="surface8262448">
<path style=" stroke:none;fill-rule:nonzero;fill:rgb(90.588236%,29.803923%,23.529412%);fill-opacity:1;" d="M 41.144531 13 C 38.308594 13 36 15.402344 36 18.355469 L 36 20 L 29.269531 20 C 20.785156 20 17 23.628906 17 31.765625 L 17 37 C 17 37.265625 17.105469 37.519531 17.292969 37.707031 L 22 42.414062 L 22 45.019531 C 19.722656 45.484375 18 47.503906 18 49.917969 L 18 53.917969 C 18 56.332031 19.722656 58.351562 22 58.8125 L 22 75.308594 C 22 82.300781 27.128906 87 34.765625 87 L 65.035156 87 C 72.789062 87 78 82.300781 78 75.308594 L 78 58.8125 C 80.277344 58.347656 82 56.332031 82 53.917969 L 82 49.917969 C 82 47.503906 80.277344 45.484375 78 45.019531 L 78 42.335938 L 82.703125 37.710938 C 82.890625 37.523438 83 37.269531 83 37 L 83 31.765625 C 83 23.628906 79.214844 20 70.726562 20 L 64 20 L 64 18.355469 C 64 15.402344 61.691406 13 58.855469 13 Z M 41.144531 15 L 58.855469 15 C 60.589844 15 62 16.503906 62 18.355469 L 62 20 L 38 20 L 38 18.355469 C 38 16.503906 39.410156 15 41.144531 15 Z M 29.269531 22 L 70.730469 22 C 77.75 22 80.773438 24.621094 80.988281 31 L 19.015625 31 C 19.039062 30.285156 19.101562 29.621094 19.199219 29 L 72.5 29 C 72.777344 29 73 28.777344 73 28.5 C 73 28.222656 72.777344 28 72.5 28 L 19.394531 28 C 20.414062 23.792969 23.476562 22 29.269531 22 Z M 75.5 28 C 75.222656 28 75 28.222656 75 28.5 C 75 28.777344 75.222656 29 75.5 29 L 78.5 29 C 78.777344 29 79 28.777344 79 28.5 C 79 28.222656 78.777344 28 78.5 28 Z M 19 33 L 81 33 L 81 35 L 19 35 Z M 19 36 L 81 36 L 81 36.578125 L 76.296875 41.203125 C 76.109375 41.390625 76 41.648438 76 41.917969 L 76 75.308594 C 76 77.699219 75.332031 79.5625 74.265625 81 L 25.707031 81 C 24.65625 79.5625 24 77.699219 24 75.308594 L 24 42 C 24 41.734375 23.894531 41.480469 23.707031 41.292969 L 19 36.585938 Z M 32 39.917969 C 30.347656 39.917969 29 41.265625 29 42.917969 L 29 60.5 C 29 60.777344 29.222656 61 29.5 61 C 29.777344 61 30 60.777344 30 60.5 L 30 42.917969 C 30 41.816406 30.898438 40.917969 32 40.917969 C 33.101562 40.917969 34 41.816406 34 42.917969 L 34 73.917969 C 34 75.019531 33.101562 75.917969 32 75.917969 C 30.898438 75.917969 30 75.019531 30 73.917969 L 30 70.5 C 30 70.222656 29.777344 70 29.5 70 C 29.222656 70 29 70.222656 29 70.5 L 29 73.917969 C 29 75.570312 30.347656 76.917969 32 76.917969 C 33.652344 76.917969 35 75.570312 35 73.917969 L 35 42.917969 C 35 41.265625 33.652344 39.917969 32 39.917969 Z M 44 40 C 42.347656 40 41 41.347656 41 43 L 41 74 C 41 75.652344 42.347656 77 44 77 C 45.652344 77 47 75.652344 47 74 L 47 43 C 47 41.347656 45.652344 40 44 40 Z M 56 40 C 54.347656 40 53 41.347656 53 43 L 53 74 C 53 75.652344 54.347656 77 56 77 C 57.652344 77 59 75.652344 59 74 L 59 43 C 59 41.347656 57.652344 40 56 40 Z M 68 40 C 66.347656 40 65 41.347656 65 43 L 65 74 C 65 75.652344 66.347656 77 68 77 C 69.652344 77 71 75.652344 71 74 L 71 43 C 71 41.347656 69.652344 40 68 40 Z M 44 41 C 45.101562 41 46 41.898438 46 43 L 46 74 C 46 75.101562 45.101562 76 44 76 C 42.898438 76 42 75.101562 42 74 L 42 43 C 42 41.898438 42.898438 41 44 41 Z M 56 41 C 57.101562 41 58 41.898438 58 43 L 58 74 C 58 75.101562 57.101562 76 56 76 C 54.898438 76 54 75.101562 54 74 L 54 43 C 54 41.898438 54.898438 41 56 41 Z M 68 41 C 69.101562 41 70 41.898438 70 43 L 70 74 C 70 75.101562 69.101562 76 68 76 C 66.898438 76 66 75.101562 66 74 L 66 43 C 66 41.898438 66.898438 41 68 41 Z M 22 47.085938 L 22 56.746094 C 20.835938 56.332031 20 55.222656 20 53.917969 L 20 49.917969 C 20 48.613281 20.835938 47.5 22 47.089844 Z M 78 47.085938 C 79.164062 47.5 80 48.613281 80 49.917969 L 80 53.917969 C 80 55.21875 79.164062 56.332031 78 56.742188 Z M 29.5 62 C 29.222656 62 29 62.222656 29 62.5 L 29 65.5 C 29 65.777344 29.222656 66 29.5 66 C 29.777344 66 30 65.777344 30 65.5 L 30 62.5 C 30 62.222656 29.777344 62 29.5 62 Z M 26.5625 82 L 73.390625 82 C 71.203125 84.128906 67.980469 85 65.035156 85 L 34.765625 85 C 31.875 85 28.710938 84.128906 26.5625 82 Z M 26.5625 82 "/>
</g>
</svg>
