<svg width="24" height="24" viewBox="0 0 24 24" fill="none" xmlns="http://www.w3.org/2000/svg">
<path d="M11.0002 2C8.66016 2 5.71016 3.72 5.76016 8.16L2.04016 12.98C1.93016 13.12 2.06016 13.3 2.26016 13.3L4.74016 14.53C4.87016 15.45 5.35016 18.13 5.61016 19.47C5.70016 19.89 9.80016 19.57 9.80016 19.57L11.0002 22" fill="white" fill-opacity="0.3"/>
<path fill-rule="evenodd" clip-rule="evenodd" d="M15.8447 2.20218C15.9563 1.89019 15.7939 1.54675 15.4819 1.43509C15.17 1.32343 14.8265 1.48583 14.7149 1.79783L13.6949 4.64783C13.5832 4.95982 13.7456 5.30326 14.0576 5.41492C14.3696 5.52658 14.713 5.36417 14.8247 5.05218L15.8447 2.20218ZM22.0491 5.22033C22.3144 5.02176 22.3684 4.64573 22.1699 4.38044C21.9713 4.11516 21.5953 4.06108 21.33 4.25966L17.91 6.81966C17.6447 7.01823 17.5906 7.39426 17.7892 7.65955C17.9878 7.92483 18.3638 7.97891 18.6291 7.78033L22.0491 5.22033ZM18.1311 11.8261C18.1554 11.4956 18.4429 11.2474 18.7734 11.2716L22.0434 11.5116C22.3739 11.5359 22.6221 11.8234 22.5979 12.1539C22.5736 12.4844 22.2861 12.7326 21.9556 12.7084L18.6856 12.4684C18.3551 12.4441 18.1068 12.1566 18.1311 11.8261ZM11.7197 17.31C11.3884 17.31 11.1197 17.5787 11.1197 17.91C11.1197 18.2414 11.3884 18.51 11.7197 18.51H14.3497C14.6811 18.51 14.9497 18.2414 14.9497 17.91C14.9497 17.5787 14.6811 17.31 14.3497 17.31H11.7197ZM11.1197 15.33C11.1197 14.9986 11.3884 14.73 11.7197 14.73H11.8791C10.5599 13.6226 8.75386 11.193 10.2298 9.25002C11.6698 7.36002 14.3998 7.36002 15.8398 9.25002C17.3142 11.1909 15.5204 13.6245 14.1981 14.73H14.3497C14.6811 14.73 14.9497 14.9986 14.9497 15.33C14.9497 15.6613 14.6811 15.93 14.3497 15.93H11.7197C11.3884 15.93 11.1197 15.6613 11.1197 15.33ZM13.6398 14.73V12.1748C13.9183 11.9752 14.0998 11.6488 14.0998 11.28C14.0998 10.6725 13.6073 10.18 12.9998 10.18C12.3923 10.18 11.8998 10.6725 11.8998 11.28C11.8998 11.6831 12.1165 12.0355 12.4398 12.227V14.73H13.6398ZM12.9727 11.1837C12.9855 11.1823 12.9984 11.1813 13.0114 11.1807C13.0076 11.1803 13.0037 11.18 12.9998 11.18C12.9904 11.18 12.9813 11.1813 12.9727 11.1837Z" fill="white" fill-opacity="0.6"/>
</svg>
